<svg height="743.929" viewBox="0 0 900.31 743.929" width="900.31" xmlns="http://www.w3.org/2000/svg"><path d="m-325.108 1189.586c-10.726-89.89 228.306-68.067 399.74-50.028s178.228 58.157 229.15 19.386 286.31-26.54 248.119 101.892-207.908 58.788-266.664 166.328-605.76 61.28-416.626-33.167-182.993-114.522-193.719-204.411z" fill="#f9fbfe" transform="translate(325.457 -745.231)"/><path d="m653.4 292.384a41.871 41.871 0 0 0 -56.089-22.443 63.35 63.35 0 0 0 -77.85-85.181 103.351 103.351 0 0 0 -187.116 60.885c0 .718.046 1.427.061 2.141h-.053a42.74 42.74 0 0 0 -42.6 42.869c0 .971.053 1.931.118 2.882z" fill="#c5d9ff" opacity=".66" transform="translate(246.912 -45.338)"/><path d="m393.1 198.16a28.431 28.431 0 0 0 -38.069-15.234 43 43 0 0 0 -52.831-57.814 70.15 70.15 0 0 0 -127 41.324c0 .488.034.971.042 1.453h-.042a29 29 0 0 0 -28.909 29.1c0 .659.036 1.31.08 1.958z" fill="#c5d9ff" opacity=".66" transform="translate(88.339 -96.06)"/><path d="m388.04 302.355 5.994-29.526a12.649 12.649 0 0 0 -9.845-14.893l-9.234-1.872a14.02 14.02 0 0 1 -11.1-11.843 107.13 107.13 0 0 0 -2.581-13.221 14.04 14.04 0 0 1 5.84-15.2l7.819-5.167a12.648 12.648 0 0 0 3.556-17.521l-16.658-25.106a12.679 12.679 0 0 0 -17.519-3.552l-7.807 5.175a13.992 13.992 0 0 1 -16.237-.552 115.471 115.471 0 0 0 -11.192-7.535 14.027 14.027 0 0 1 -6.576-14.852l1.863-9.165a12.644 12.644 0 0 0 -9.872-14.9l-29.5-5.986a12.656 12.656 0 0 0 -14.917 9.87l-1.855 9.171a14 14 0 0 1 -11.845 11.112 122.26 122.26 0 0 0 -13.26 2.573 13.962 13.962 0 0 1 -15.142-5.811l-5.185-7.811a12.666 12.666 0 0 0 -17.506-3.554l-25.132 16.622a12.634 12.634 0 0 0 -3.558 17.525l5.162 7.8a14 14 0 0 1 -.507 16.277 106.285 106.285 0 0 0 -7.554 11.171 13.993 13.993 0 0 1 -14.845 6.577l-9.175-1.863a12.663 12.663 0 0 0 -14.91 9.872l-5.99 29.528a12.654 12.654 0 0 0 9.887 14.881l9.177 1.859a14.007 14.007 0 0 1 11.106 11.843 112.238 112.238 0 0 0 2.585 13.281 13.906 13.906 0 0 1 -5.859 15.135l-7.8 5.171a12.649 12.649 0 0 0 -3.556 17.531l16.666 25.125a12.66 12.66 0 0 0 17.506 3.556l7.832-5.221a14.042 14.042 0 0 1 16.207.556 117.349 117.349 0 0 0 11.2 7.567 13.972 13.972 0 0 1 6.577 14.818l-1.867 9.184a12.587 12.587 0 0 0 9.9 14.864l29.511 5.988a12.571 12.571 0 0 0 14.879-9.826l1.865-9.2a14.011 14.011 0 0 1 11.847-11.085 112.5 112.5 0 0 0 13.245-2.6 14.061 14.061 0 0 1 15.171 5.8l5.16 7.855a12.675 12.675 0 0 0 17.519 3.558l25.131-16.638a12.671 12.671 0 0 0 3.558-17.531l-5.192-7.809a13.986 13.986 0 0 1 .533-16.222 111.04 111.04 0 0 0 7.546-11.222 14.03 14.03 0 0 1 14.834-6.579l9.238 1.87a12.626 12.626 0 0 0 14.862-9.852zm-144.771 25.034a68.614 68.614 0 1 1 74.022-49.095 68.617 68.617 0 0 1 -74.022 49.095z" fill="#a7b1dd" transform="translate(46.583 -73.599)"/><path d="m523.786 269.906-5.261-1.07a8.04 8.04 0 0 1 -6.28-7.135 75.758 75.758 0 0 0 -1.373-8.061 9.012 9.012 0 0 1 3.449-9.316l4.524-3.221a8.087 8.087 0 0 0 2.175-10.71l-9.35-15.207a6.9 6.9 0 0 0 -10.032-2.036l-4.526 3.215a7.659 7.659 0 0 1 -9.333-.19 65.234 65.234 0 0 0 -6.373-4.539 8.53 8.53 0 0 1 -3.649-9l1.139-5.617a7.5 7.5 0 0 0 -5.562-9.017l-16.9-3.432a7.507 7.507 0 0 0 -8.645 6.139l-1.135 5.617a8.528 8.528 0 0 1 -6.88 6.857 65.525 65.525 0 0 0 -7.647 1.7 7.643 7.643 0 0 1 -8.649-3.455l-2.905-4.729a6.9 6.9 0 0 0 -10.026-2.036l-14.557 10.358a8.092 8.092 0 0 0 -2.175 10.71l2.908 4.731a9 9 0 0 1 -.423 9.927 68.651 68.651 0 0 0 -4.421 6.889 8.07 8.07 0 0 1 -8.573 4.12l-5.247-1.065a7.508 7.508 0 0 0 -8.64 6.15l-3.668 18.058a7.492 7.492 0 0 0 5.564 9.017l5.249 1.065a8.065 8.065 0 0 1 6.289 7.141 69.477 69.477 0 0 0 1.385 8.064 8.982 8.982 0 0 1 -3.482 9.306l-4.514 3.211a8.112 8.112 0 0 0 -2.177 10.721l9.369 15.2a6.919 6.919 0 0 0 10.028 2.027l4.524-3.2a7.655 7.655 0 0 1 9.308.189 64.02 64.02 0 0 0 6.379 4.533 8.522 8.522 0 0 1 3.668 8.992l-1.147 5.63a7.5 7.5 0 0 0 5.567 9.013l16.908 3.43a7.5 7.5 0 0 0 8.628-6.135l1.145-5.621a8.53 8.53 0 0 1 6.868-6.863 62.582 62.582 0 0 0 7.64-1.686 7.639 7.639 0 0 1 8.649 3.459l2.931 4.716a6.922 6.922 0 0 0 10.034 2.036l14.536-10.354a8.105 8.105 0 0 0 2.175-10.721l-2.915-4.711a9 9 0 0 1 .453-9.916 79.227 79.227 0 0 0 4.419-6.891 8.019 8.019 0 0 1 8.548-4.127l5.263 1.067a7.5 7.5 0 0 0 8.636-6.137l3.667-18.058a7.51 7.51 0 0 0 -5.56-9.032z" fill="#a7b1dd" transform="translate(330.738 1.628)"/><path d="m205.827 243.331s-14.154 7.255-18.974 7.575-16.165 1.284-23.822.034a42.873 42.873 0 0 1 -14.761-5.194c-2.554-1.383-3.4-1.065-.011-9.251s7.634-16.047 8.763-21.077 4.065-11.643 7.838-12.906 13.973-4.108 20.786-.027 10.51 9.417 12.782 16.647 2.284 9.742 4.564 14.455a34.172 34.172 0 0 1 2.835 9.744z" fill="#1c1965" transform="translate(88.041 19.237)"/><g fill="#eec49f"><path d="m174.8 243.213s-2.472-13.87-2.326-18.521 1.377-5.331 1.377-5.331l-18.051.059s2.048 7.516 1.156 12.977a49.531 49.531 0 0 0 -.678 9.645s4.021 5.291 8.257 4.655 7.247-1.59 8.76-2.535z" transform="translate(98.852 40.233)"/><path d="m152.887 220.928c.019 11.765 6.668 25.555 14.845 25.544s14.685-13.78 14.664-25.544c0-1.8-.392-17.093-14.723-17.072-1.209.006-14.807-.305-14.786 17.072z" transform="translate(95.628 23.094)"/><path d="m165.761 216.475c-1.112 2-.838 4.27.6 5.072s3.51-.175 4.619-2.175.848-4.263-.592-5.065-3.511.17-4.627 2.168z" transform="translate(109.102 34.335)"/><path d="m158.107 216.483c1.114 2 .865 4.27-.573 5.078s-3.512-.166-4.628-2.164-.861-4.259.579-5.07 3.504.162 4.622 2.156z" transform="translate(94.881 34.356)"/></g><path d="m181.241 229.1s-5.019-7.055-8.48-8.48c-2.827-1.168-8.617-1.76-12.441-5.234s-6.278-3.057-6.23-5.912 6.623-7.617 9.784-7.8 8.716-.272 12.323 2.091a15.475 15.475 0 0 1 6.786 9.544 19.085 19.085 0 0 1 .678 7.278c.005 1.978-2.42 8.513-2.42 8.513z" fill="#1c1965" transform="translate(96.957 20.577)"/><path d="m109.321 400.465s-2.813-4.331 2.084-7.2c4.9-2.882 11.512-3.571 13.9-5.24s6.16-8.017 6.16-8.017l9.828.777s2.093 15.527-1.124 16.443-12.2.7-17.759 1.859a90.283 90.283 0 0 1 -13.089 1.378z" fill="#1c1965" transform="translate(46.583 217.809)"/><path d="m191.933 400.738s3.04-3.99-1.491-7.118-10.891-4.289-13.081-6.07-4.215-6.221-4.215-6.221l-10.952-.7s-2.933 13.639.109 14.759 11.773 1.558 17.056 3.076a88.821 88.821 0 0 0 12.574 2.274z" fill="#1c1965" transform="translate(104.51 218.493)"/><path d="m116.063 503.736s25.258-101.026 29.337-119.345 21.416-90.937 22.879-96.691c2.156-8.516 3.482-12.723 3.482-12.723s46.842.876 52.261-.259a18.46 18.46 0 0 1 8.792-.044s12.893 34.334 10.763 52.647-9.049 78.823-12.784 107.685-5.179 70.176-5.179 70.176l-20.714 1.638s-4.124-52.8-2.592-79.45c1.533-26.616-.594-90.411-.594-90.411l-33.151 76.7-32.846 92.242z" fill="#41b4e6" transform="translate(54.924 100.849)"/><path d="m143.741 328.961s-.3-20.129-.429-35.859c-.07-9.316-.234-22.447-.116-29.073.314-17.83-.686-24.673 4.71-30.016 4.209-4.167 22.334-7.327 22.334-7.327s-2 7.192 9.742 7c5.691-.095 9.407-4.889 9.407-4.889l19.917 11.12.137 28.239-6.453 47.478 3.43 12.748s-22.188.063-29.936.1c-7.523.031-32.743.479-32.743.479z" fill="#cb1232" transform="translate(84.869 48.33)"/><path d="m224.977 345.777s-18.262-29.5-22.395-43.156-10.912-46.189-12.79-52.621c-3.7-12.622-9.767-17.028-9.767-17.028l-6.769 30.778-3.615 10.906c8.861 18.75 14.138 26.123 16.31 31.374 7.861 19.005 15.674 28.768 15.674 28.768l10.8 15.843z" fill="#cb1232" transform="translate(114.148 55.278)"/><path d="m142 286.1a28.523 28.523 0 0 0 6.63 11.811c5.093 5.325 10.171 10.2 13.167 5.514 2.489-3.887-3.352-8.464-4.613-10.824-1.324-2.467 2.526.6 4.076 1.112 1.067.337 1.11-1.587 1.11-1.587a43.416 43.416 0 0 0 -5.83-6.165c-4.579-3.646-6.859-5.56-6.859-5.56z" fill="#eec49f" transform="translate(83.597 107.708)"/><path d="m125.575 298.806c4.4-16 5.583-16.108 15.933-35.892 10.331-19.759 20.782-29.9 26.452-32.747l1.04 44.455c-10.422 5.678-19.323 19.993-18.83 24.1.781 6.577 21.2 37.732 21.2 37.732s-2.916 6.423-5.217 7.617c-3.621 1.878-4.259.825-4.259.825s-9.474-9.893-18.51-18.651c-13.996-13.571-20.4-18.037-17.809-27.439z" fill="#cb1232" transform="translate(64.815 52.177)"/><path d="m200.949 294.5c.013 2.838 1.345 5.139 2.99 5.135 1.642 0 2.964-2.31 2.956-5.156l-.013-3.718c-.008-2.836-1.345-5.139-2.985-5.135-1.644 0-2.966 2.316-2.958 5.152z" fill="#fd675a" transform="translate(148.742 113.475)"/><path d="m299.72 313.489.419 132.054 197.672-.625" fill="none" stroke="#8296be" stroke-miterlimit="10" transform="translate(257.931 144.278)"/><path d="m385.971 315.323.252 79.761-191.1.609" fill="none" stroke="#8296be" stroke-miterlimit="10" transform="translate(142.31 146.305)"/><path d="m202.465 217.84a11.921 11.921 0 1 0 11.883-11.958 11.926 11.926 0 0 0 -11.883 11.958z" fill="#1c1965" transform="translate(150.43 25.333)"/><path d="m0 0h3.531v36.223h-3.531z" fill="#1c1965" transform="matrix(.99999379 -.00352556 .00352556 .99999379 363.061 248.834)"/><path d="m253.141 393.5c-31.656.1-61.009 2.985-85.259 7.821 11.571-41.321 46.918-71.476 88.823-71.607 42.467-.133 78.372 30.6 89.714 72.721-25.692-5.682-58.072-9.042-93.278-8.935z" fill="#ffbcc6" transform="translate(112.203 162.211)"/><path d="m230.951 386.338.261 82.073a104.3 104.3 0 0 1 -8.771 42.316l42.9-.135a297.365 297.365 0 0 0 20.839-111.037c-.208-65.955-21.519-126.45-56.918-173.875a284.339 284.339 0 0 0 -40.179 77.366 104.251 104.251 0 0 1 41.868 83.292z" fill="#c5d9ff" transform="translate(135.641 47.217)"/><path d="m191.859 396.743 70.732-.226-11.557-35.487-47.846.152z" fill="#ffbcc6" transform="translate(138.706 196.828)"/><path d="m228.336 225.676a283.691 283.691 0 0 1 38.864 72.052l-77.269.244a283.408 283.408 0 0 1 38.405-72.296z" fill="#eb798a" transform="translate(136.574 47.212)"/><path d="m181.66 359.29a297.775 297.775 0 0 0 21.546 110.9l27.445-.086a104.3 104.3 0 0 0 8.771-42.316l-.261-82.073a104.251 104.251 0 0 0 -41.861-83.288 298.821 298.821 0 0 0 -15.64 96.863z" fill="#a7b1dd" transform="translate(127.431 87.835)"/><path d="m273.816 350.831q-3.385 10.93-7.544 21.437l-70.342.225q-4.248-10.485-7.682-21.4z" fill="#eb798a" transform="translate(134.715 185.554)"/><path d="m218.6 307.891a18.36 18.36 0 1 0 -18.42-18.291 18.373 18.373 0 0 0 18.42 18.291z" fill="#1c1965" transform="translate(147.904 97.5)"/><path d="m202.34 287.2a13.818 13.818 0 1 0 13.773-13.87 13.8 13.8 0 0 0 -13.773 13.87z" fill="#ecf1f7" transform="translate(150.292 99.886)"/><path d="m221.081 342.48a23.953 23.953 0 1 0 -24.039-23.88 23.979 23.979 0 0 0 24.039 23.88z" fill="#1c1965" transform="translate(144.435 123.37)"/><path d="m199.86 315.469a18.024 18.024 0 1 0 17.971-18.077 18.032 18.032 0 0 0 -17.971 18.077z" fill="#ecf1f7" transform="translate(147.55 126.484)"/><path d="m205.826 437.307a6.321 6.321 0 0 0 6.337 6.3 6.328 6.328 0 0 0 6.3-6.341l-.3-94.449a6.319 6.319 0 0 0 -6.335-6.3 6.324 6.324 0 0 0 -6.3 6.343z" fill="#1c1965" transform="translate(153.814 169.736)"/><path d="m208.416 307.629a5.966 5.966 0 1 0 5.95-5.985 5.964 5.964 0 0 0 -5.95 5.985z" fill="#fff" transform="translate(157.008 131.184)"/><path d="m207.181 283.039a5.967 5.967 0 1 0 5.946-5.986 5.971 5.971 0 0 0 -5.946 5.986z" fill="#fff" transform="translate(155.643 104.003)"/><path d="m156.719 299.468.3 100.182 2.905 69.538c3.322-4.7 2.809-12.71 2.779-21.346l-.4-127.435c-.028-8.631-2.232-16.253-5.584-20.939z" fill="#0091c8" transform="translate(99.863 128.779)"/><path d="m308.332 336.721.262 82.631 116.478-.37-.438-138.255" fill="none" stroke="#8296be" stroke-miterlimit="10" transform="translate(267.451 108.064)"/><path d="m465.391 303.28-29.174-3.217-11.417-1.257c1.061 6.171 3.2 19.148 2.889 22.216-.68 6.828-8.285 11.638-16.994 10.771s-15.226-7.082-14.556-13.891c.307-3 5.192-15.54 7.535-21.424l-10.291-1.131-30.521-3.36-4.362 39.513s-20.586-8.4-24.53-8.788c-6.813-.669-13.036 5.838-13.9 14.548s3.954 16.325 10.767 17c4.068.4 25.536-3.474 25.536-3.474l-1.943 17.723-3.152 28.557 103.894 11.444 11.575-105.087z" fill="#41b4e6" transform="translate(280.321 120.51)"/><path d="m386.449 326.779s-4.295-6.282-5.676-8.767-3.373-4.748-4.369-3.733.564 6.445.564 6.445a18.408 18.408 0 0 1 -3.777-1.72c-1.667-1.057-2.314-5.794-2.314-5.794s-3.954-.851-4.226 1.156-.922 11.192.562 12.916 14.954 4.207 14.954 4.207z" fill="#fd675a" transform="translate(331.499 143.772)"/><path d="m433.167 408.208s-6.817 1.221-6.962-5.554 1.994-12.83 1.636-16.289-4.407-4.173-4.407-4.173l7.914-17.338s16.272 4.779 15.363 8.657-6.019 14.6-8.03 21.054a116.224 116.224 0 0 1 -5.514 13.643z" fill="#cb1232" transform="translate(394.68 201.055)"/><path d="m376.238 394.252s-3.779-5.79 2.4-8.59c6.181-2.783 12.58-3.183 15.63-4.863s2.105-5.693 2.105-5.693l19.064.507s1.964 16.843-1.96 17.517-15.788.185-22.515.851a116.579 116.579 0 0 1 -14.724.271z" fill="#cb1232" transform="translate(341.246 212.387)"/><path d="m440.983 342.235s-42.853 10.577-48.409 13.39-14.651 10.049-12.51 18.971 5.931 21.018 15.06 24.578 37.482 4.141 48.388 7.615 29.124 7.165 29.124 7.165l11.782-23.081-54.398-13.973s24.022-7.352 30.446-10.341 9.693-9.392 9.693-9.392z" fill="#d95d6f" transform="translate(346.386 176.053)"/><path d="m390.523 418.436s-10.834-42.366-13.243-56.6-3.609-22.563 6.4-27.563 57.7 16.658 68.965 22.508 19.993 9.685 25.949 8.914 28.3-.084 28.3-.084 5.992 13.963 5.428 22.216-10.817 20.759-25.768 21.4-26.094-4.647-40.69-9.1c-10.285-3.133-37.717-25.226-37.717-25.226l14.716 56.232s-29.463-2.633-31.229-3.333-1.111-9.364-1.111-9.364z" fill="#f57a8c" transform="translate(341.816 166.434)"/><path d="m421.455 318.545s2.87 10.712-4.5 9.638-10.129-6.438-17.036-9.811c-7.009-3.438-8.287-19.384-6.8-24.553 1.238-4.318 6.407-11.559 10.028-12.653s13.434-3.56 19.976-.027a24.481 24.481 0 0 1 12.287 14.428c2.183 6.263-2.4 11.342-2.369 24.121.071 19.985-11.586-1.143-11.586-1.143z" fill="#1c1965" transform="translate(360.564 106.494)"/><path d="m394.826 299.263c.023 12.118 6.866 26.317 15.3 26.309s15.125-14.186 15.108-26.309c0-1.861-.411-17.6-15.173-17.586-1.245 0-15.261-.318-15.235 17.586z" fill="#fd675a" transform="translate(363.057 109.114)"/><path d="m408.364 293.307c-1.143 2.061-.865 4.4.613 5.228s3.619-.181 4.758-2.238.878-4.4-.6-5.226-3.619.177-4.771 2.236z" fill="#fd675a" transform="translate(377.242 119.182)"/><path d="m420.857 309.8s-3.08-8.122-6.651-9.59c-2.908-1.2-8.872-1.809-12.82-5.39s-6.461-3.147-6.413-6.091 6.819-7.842 10.078-8.038 8.979-.284 12.7 2.15a15.926 15.926 0 0 1 6.986 9.836 19.58 19.58 0 0 1 .7 7.5c.001 2.035-4.58 9.623-4.58 9.623z" fill="#1c1965" transform="translate(363.219 107.921)"/><path d="m417.1 336.568-16.072-24.9s8.556-2.388 11.4-7.11a51.634 51.634 0 0 0 4.518-10.624s1.659 7.642 4.089 12.344c2.232 4.305 12 13.8 12 13.8a58.052 58.052 0 0 0 -11.337 6.261c-4.641 3.547-4.598 10.229-4.598 10.229z" fill="#fd675a" transform="translate(369.916 122.664)"/><path d="m482.35 401.05s-28.9-77.553-36.1-87.505-20.757-17.66-30.738-6-18.816 28.121-17.588 35.675 4.447 14.4 7.274 15.946 9.706 27.719 9.706 27.719 22.191 14.6 28.942 16.571 20.155 1.267 26.41-.082 12.094-2.324 12.094-2.324z" fill="#8fa925" transform="translate(366.356 131.227)"/><path d="m407.356 369.434s16.291-5.411 25.576-11.255 26.014-23.574 29.982-29.179 6.392-13.27 2.971-17.969-3.16-6.428-12.377-7.023c-7.445-.488-28.437 31.309-34.9 38.694s-10.622 10.251-18.891 5.143-21.07-14.211-21.07-14.211l-5.925 8.451s15.9 16.8 21.2 21 13.434 6.349 13.434 6.349z" fill="#8fa925" transform="translate(338.628 133.787)"/><path d="m299.5 328.626.156 48.723-40.781.132-.261-82.146" fill="none" stroke="#8296be" stroke-miterlimit="10" transform="translate(212.498 124.211)"/><path d="m363.524 106.252c-82.351 4.274-145.192 60.506-140.9 143.352 2.745 52.969 17.5 91.251 75.094 122.635 16.959 9.255 10.99 76.751 9.287 86.229 21.527-6.04 40.459 1.747 69.087.139 23.906-1.335 36.85-5.106 56.506-2.741-4.063-14.289-4.225-74.123 9.615-81.564 57.787-30.99 81.687-80.159 78.587-140.153-4.3-82.831-74.948-132.162-157.276-127.897z" fill="#ffce0c" transform="translate(172.485 -85.076)"/><path d="m373.165 267.244a166.12 166.12 0 0 1 -150.719-95.1c.025 1.95.057 3.9.158 5.876 2.752 52.967 17.5 91.251 75.1 122.635 16.956 9.255 10.988 76.751 9.287 86.238 21.525-6.053 40.457 1.739 69.085.135 23.906-1.345 36.852-5.108 56.508-2.748-4.061-14.285-4.223-74.121 9.617-81.557 53.455-28.673 77.894-72.911 78.8-126.873a166.079 166.079 0 0 1 -147.836 91.394z" fill="#fbb947" transform="translate(172.516 -11.958)"/><path d="m334.154 389.64-3.865-.078c.044-1.9-.291-6.872-.659-12.131-.331-4.851-.688-10.023-.787-13.516-.478-15.11-1.219-69.4.874-115.843a45.227 45.227 0 0 1 -10.419-1.545c-.884-.244-1.779-.516-2.678-.811-.324 6.354-.756 12.723-1.2 19.041-.712 10.184-1.364 19.8-1.537 28.987-.1 4.781-.173 9.939-.263 15.378-.356 24.039-.811 53.948-2.682 83.374l-3.855-.246c1.872-29.34 2.329-59.192 2.693-83.183.08-5.447.154-10.613.238-15.382.181-9.3.851-18.952 1.55-29.185.457-6.7.909-13.443 1.261-20.167-22.252-8.916-45.413-32.22-46.773-56.038-1.234-21.344 8.76-25.1 13.3-25.738 13.4-1.9 30.521 13.721 34.578 31.528 3.333 14.691 3.585 31.039 2.876 47.623 1.171.415 2.35.779 3.5 1.105a41.976 41.976 0 0 0 9.592 1.4c1.415-28.984 3.975-54.35 8.464-64.26 6.962-15.386 18.369-22.016 30.582-17.7 13.834 4.884 25.182 23.452 20.041 43.32-3.491 13.485-13.527 25.879-27.511 33.983a61.479 61.479 0 0 1 -27.886 8.506c-1.926 42.64-1.6 93.072-.895 115.734.11 3.465.459 8.569.79 13.384.37 5.588.709 10.384.671 12.46zm-.368-145.468a57.881 57.881 0 0 0 25.755-7.965c13.1-7.6 22.46-19.1 25.706-31.606 4.546-17.544-5.621-34.488-17.592-38.718-10.236-3.611-19.624 2.091-25.776 15.645-4.192 9.248-6.687 33.895-8.093 62.644zm-53.992-77.78c-7.12 1.067-10.632 8.76-9.887 21.677 1.257 21.921 22.388 43.427 43.1 52.175.621-15.87.311-31.42-2.84-45.309-3.895-17.133-19.908-30.018-30.271-28.561a.4.4 0 0 1 -.102.018z" fill="#fff" transform="translate(220.601 -24.328)"/><path d="m271.822 302.952c4.981 18.106 22.9 31.471 44.221 31.347s39.1-13.689 43.872-31.831z" fill="#a7b1dd" transform="translate(227.094 132.095)"/><path d="m262.507 269.326.777 46.2c.278 16.99 14.7 30.549 32.176 30.239l62.283-1.032c17.47-.293 31.418-14.306 31.151-31.309l-.783-46.192z" fill="#c5d9ff" transform="translate(216.798 93.15)"/><path d="m397.4 275.473c.017 4.56-4.874 8.278-10.923 8.3l-115.546.371c-6.047.015-10.958-3.67-10.973-8.234-.015-4.556 4.876-8.28 10.923-8.3l115.544-.366c6.047-.017 10.963 3.672 10.975 8.232z" fill="#a7b1dd" transform="translate(213.976 93.157)"/><path d="m397.433 286.608c.015 4.556-4.876 8.27-10.923 8.3l-115.547.364c-6.047.017-10.958-3.667-10.975-8.223-.013-4.564 4.876-8.285 10.923-8.3l115.546-.366c6.044-.021 10.961 3.667 10.975 8.232z" fill="#a7b1dd" transform="translate(214.015 105.465)"/><path d="m397.467 297.732c.015 4.564-4.876 8.274-10.923 8.3l-115.544.368c-6.045.021-10.958-3.663-10.973-8.228-.015-4.556 4.874-8.27 10.921-8.293l115.546-.362c6.047-.025 10.963 3.659 10.975 8.219z" fill="#a7b1dd" transform="translate(214.054 117.776)"/><path d="m336.388 301.744a49.976 49.976 0 1 1 -50.133-49.813 49.975 49.975 0 0 1 50.133 49.813z" fill="#f9dee2" transform="translate(187.979 76.234)"/><path d="m463.311 285.644a65.463 65.463 0 1 1 -65.675-65.258 65.471 65.471 0 0 1 65.675 65.258z" fill="#fa503c" transform="translate(294.037 41.365)"/><path d="m448.581 280.6a55.8 55.8 0 1 1 -55.981-55.626 55.809 55.809 0 0 1 55.981 55.626z" fill="#fff" transform="translate(299.109 46.437)"/><path d="m434.408 275.746a46.511 46.511 0 1 1 -46.659-46.358 46.5 46.5 0 0 1 46.659 46.358z" fill="#fa503c" transform="translate(303.988 51.316)"/><path d="m419.077 270.5a36.458 36.458 0 1 1 -36.577-36.336 36.451 36.451 0 0 1 36.577 36.336z" fill="#fff" transform="translate(309.266 56.595)"/><path d="m400.11 264.011a24.02 24.02 0 1 1 -24.1-23.94 24.019 24.019 0 0 1 24.1 23.94z" fill="#fa503c" transform="translate(315.796 63.124)"/><path d="m249.257 262.166 56.436-.181a1.8 1.8 0 0 1 1.8 1.8l.131 41.408a3.184 3.184 0 0 1 -3.169 3.194l-21.776.067a.925.925 0 0 0 -.665.291l-18.037 19.216a.919.919 0 0 1 -1.581-.691l-.057-17.771a.954.954 0 0 0 -.926-.979l-12.015.044a3.056 3.056 0 0 1 -2.964-3.129l-.126-40.124a3.048 3.048 0 0 1 2.949-3.145z" fill="#fff" transform="translate(198.896 87.347)"/></svg>