<svg height="655.828" viewBox="0 0 762.732 655.828" width="762.732" xmlns="http://www.w3.org/2000/svg" xmlns:xlink="http://www.w3.org/1999/xlink"><linearGradient id="a" gradientUnits="objectBoundingBox" x1=".5" x2=".5" y2="1"><stop offset="0" stop-color="#fe8464"/><stop offset="1" stop-color="#fe6e9a"/></linearGradient><linearGradient id="b" gradientUnits="objectBoundingBox" x1=".5" x2=".5" y2="1"><stop offset="0" stop-color="#6349ee"/><stop offset="1" stop-color="#1d4f8f"/></linearGradient><linearGradient id="c" gradientUnits="objectBoundingBox" x1="1.76" x2="-.237" y1=".425" y2=".942"><stop offset="0" stop-color="#361cc1"/><stop offset="1" stop-color="#2e82ef"/></linearGradient><linearGradient id="d" x2=".435" xlink:href="#b" y2=".9"/><path d="m361.362 340.609h151.919v86.14h-151.919z" fill="#f9dee2"/><g fill="#fff"><path d="m380.156 356.271h112.765v9.397h-112.765z"/><path d="m380.156 379.764h112.765v9.397h-112.765z"/><path d="m380.156 403.257h112.765v9.397h-112.765z"/></g><path d="m711.538 318.736a32.5 32.5 0 0 0 -31.906 12.564c-4.151 5.637-5.247 12.1-6.608 18.8-.726 3.589-1.534 7.4-3.608 10.492-3.786 5.637-10.735 5.325-16.752 5.934-12.464 1.259-27.967 7.723-28.347 22.411-.1 3.971 1.393 7.6 2.347 11.39 1.473 5.851 1.2 11.626-2.233 16.781-5.3 7.952-15.685 10.127-23.837 13.884-6.177 2.846-12.4 7.037-14.4 13.9a13.876 13.876 0 0 0 1.067 10.952 19.275 19.275 0 0 0 -2.781 10.307c-.139.319-.3.609-.429.945a1.233 1.233 0 0 0 .74 1.661 17 17 0 0 0 .431 1.838c.382 1.23 2.469 1.083 2.35-.316a30.922 30.922 0 0 1 -.093-3.582c4.047-8.43 14.977-10.046 23.382-11.3 9-1.342 17.962-2.954 26.2-7 7.809-3.835 14.553-9.854 18.281-17.814s2.666-14.833.716-23.048c-3.616-15.228 10.28-17.324 21.6-19.17 7.653-1.249 14.629-3.915 18.3-11.205 4.018-7.984 2.881-16.993 1.921-25.53-1.213-10.811-1.417-28.731 13.292-30.175 1.429-.138 2.029-2.412.367-2.719zm-16.791 29.623c.86 8.885 2.9 18.281-.952 26.776-4.264 9.416-14.044 9.946-22.988 11.4-5.707.925-12.057 2.876-15.766 7.641-4.621 5.941-1.875 12.505-.46 19.036 4.512 20.813-15.98 33.562-33.389 37.395-9.167 2.016-21.663 2.1-29.937 7.548a14.117 14.117 0 0 1 -1.361-1.325c10.5-20.382 51.534-17.614 55.157-45.055 1.071-8.123-5-15.632-.453-23.426 3.862-6.62 11.655-10.331 18.585-12.793 10.263-3.647 22.352-6.832 27.025-17.794.241-.56-.543-1.064-.84-.492-7.047 13.458-24 13.521-35.931 20.234-5.008 2.82-9.959 6.8-12.062 12.328-2.61 6.859 1.495 12.593 1.446 19.44-.141 19.742-25.065 24.833-38.863 31.712-5.676 2.829-11.953 7.577-15.819 13.419-4.276-8.154 5.34-17.631 12.783-21.113 7.275-3.4 15.564-5.184 21.765-10.579a21.52 21.52 0 0 0 7.3-18.938c-.709-5.741-3.944-11.025-2.893-16.969 1-5.62 5.079-10.212 9.852-13.048 5.376-3.195 11.6-4.21 17.733-4.729 3.55-.3 7.234-.3 10.575-1.7 6.241-2.622 8.678-8.695 10.075-14.911 1.919-8.554 3-16.487 9.584-22.919a29.874 29.874 0 0 1 19.092-8.497c-8.476 5.172-10.2 17.612-9.257 27.359z" fill="url(#a)" transform="translate(-1.063 136.098)"/><path d="m666.3 307.408c.842-.635.964-2.274-.331-2.522-16.355-3.136-17.826 17.833-22.5 27.957-6.715 14.526-25.831 11.975-35.839 22.885-9.871 10.757-6.1 26.874-3.811 39.71 1.517 8.5 2.737 18.076-1 26.192-3.959 8.6-13.029 11.1-19.635 17.022-11.585 10.38-11.753 27.621-10.273 42.165a1.457 1.457 0 0 0 .26 2.389c.027.231.049.47.078.7.092.789 1.307.833 1.269 0-.012-.258-.024-.516-.036-.772.794-.514 1.549-1.076 2.32-1.614a30.588 30.588 0 0 1 -1.921 4.129 1.262 1.262 0 0 0 2.177 1.273 25.2 25.2 0 0 0 3.677-8.325 75.518 75.518 0 0 0 21.965-27.719c1.466-3.207 2.491-6.523 3.72-9.817 1.968-5.271 6.051-6.9 10.1-10.139a34.6 34.6 0 0 0 10.789-15.2c2.325-6.4 2.216-12.691 1.256-19.34-1.4-9.7-1.084-17.628 7.726-23.195 8.666-5.474 20.823-7.261 26.611-16.552 9.157-14.705-11.819-37.735 3.398-49.227zm-4.9 29.192c2.381 9.52 2 18.461-6.7 24.259-4.887 3.251-10.531 5.123-15.763 7.711-4.164 2.062-8.335 4.6-11.02 8.5-3.738 5.43-3.246 11.833-2.357 18.05 1.352 9.44 1.2 18.142-4.254 26.4a32.082 32.082 0 0 1 -9.133 9.07c-2.316 1.539-4.612 2.72-6.248 5.026-2.664 3.75-3.44 8.834-5.284 13.012a73.222 73.222 0 0 1 -6.136 11.14 71.637 71.637 0 0 1 -12.807 14.4c.222-1.208.421-2.42.621-3.628a67.039 67.039 0 0 1 6.374-20.336c5.883-11.322 15.97-18.308 23.5-28.245 7.935-10.467 5.88-21.261 4.823-33.518-1.419-16.435 7.68-27.071 20.833-35.561.723-.467.061-1.619-.677-1.159-9.423 5.873-19.05 13.453-21.734 24.816-3.3 13.974 4.889 28.352-3.382 41.461-6.871 10.886-18.172 17.872-24.6 29.27a64.15 64.15 0 0 0 -6.813 18.133c-.845 3.966-1.422 7.821-2.393 11.578-1.278.981-2.579 1.936-3.918 2.839-.368-8.3-.5-16.7 1.7-24.775a30.206 30.206 0 0 1 7.524-13.647c3.847-3.85 8.868-6.026 13.219-9.192 14.044-10.214 11.149-27.531 8.466-42.508-1.751-9.776-3.372-21.838 2.832-30.467 5.435-7.563 15.159-9.223 23.245-12.552 6.492-2.677 11.708-6.423 14.682-12.946 3.65-8.006 4.943-26.1 16.457-26.416-7.03 7.909-3.434 19.793-1.057 29.285z" fill="url(#a)" transform="translate(-17.83 116.538)"/><path d="m479.315 404.721c8.281-9.949 6.6-25.929-5.055-32.946-8.79-5.291-20.251-4.777-28.471-11.093-7.626-5.858-7.553-15.1-5.354-23.594 3.331-12.868 13.448-28.6 7.261-42.065-3.582-7.794-11.884-11.364-20.007-12.157-10.4-1.018-32.157 7.044-37.363-5.142-3.392-7.935-5.968-14.385-14.879-17.378a20.013 20.013 0 0 0 -19.6 3.5 21.947 21.947 0 0 0 -7.222 20.034c1.449 7.85 7.589 13.579 12.469 19.464 2.893 3.492 5.953 7.407 6.5 12.06.789 6.657-3.915 11.422-8.5 15.425-7.044 6.148-13.4 12.014-14.412 21.887a22.979 22.979 0 0 0 10.518 21.898c8.349 5.252 16.214 2.469 25.3 1.6 4.882-.463 10.2.635 11.273 6.267.7 3.66-1.161 7.334-2.876 10.472-2.649 4.845-5.961 9.177-7.743 14.468-2.927 8.675-1.87 18.471 5.517 24.553 19.231 15.836 48.848-6.44 66.6 11.826a1.193 1.193 0 0 0 .923.312v.049a.582.582 0 0 0 1.147.068c.032-.278.054-.562.085-.84l.007-.012a131.544 131.544 0 0 1 24.142-36.71 1.25 1.25 0 0 0 -.26-1.946zm-25.556 35.7c-13.832-12.352-34.039-3.73-50.587-5.359-10.764-1.059-21.164-6.82-20.971-19 .17-10.789 8.249-17.687 11.4-27.344 1.843-5.646.521-11.96-5.488-14.349-8.68-3.453-18.152 3.124-27.093.19-12.627-4.144-17.482-19.155-11.074-30.49 4.434-7.838 13.467-11.517 17.962-19.245 8.106-13.927-7.826-24.134-14.142-34.655-5.5-9.165-2.7-21.763 7.163-26.737 10.129-5.111 22.016 1.11 25.7 11.232 2.542 6.99 5.116 11.473 13.173 11.953 11.5.684 23.073-3.589 34.378.039 20.726 6.652 11.166 28.551 6.294 42.829-4.578 13.411-6.467 28.761 8.846 35.717a42.7 42.7 0 0 0 5.4 1.97c-9.691 6.737-12.457 21-9.834 31.989-.528-.078-1.057-.153-1.59-.229-.5-.453-1.006-.908-1.546-1.337-7.224-5.737-18.488-5.242-23.533-13.57-5.271-8.7-2.8-19.632-.5-28.812 1.546-6.165 3.112-12.5 2.9-18.824 9.489-11.882 24.507-29.99 12.544-44.468a1.03 1.03 0 0 0 -1.709 1.149c8.473 15.169-1.936 28.089-11.142 39.878a27.22 27.22 0 0 0 -.857-3.957c-2.113-6.932-6.93-12.637-12.5-17.122-11.607-9.35-35.542-13.959-36.854-31.5-.088-1.186-2.082-1.393-2.167-.129-.957 14.2 15.422 20.636 25.7 26.06 7.9 4.166 15.912 9.537 20.648 17.322a25.721 25.721 0 0 1 3.7 12.335c-.088.117-.178.234-.265.351-4.341-4.738-13.19-.7-17.855 1.678-10.041 5.113-26.048 16.633-35.707 4.412-.48-.609-1.485.054-1.006.677 4.784 6.231 12.863 7.1 20.095 5.184 6.891-1.821 28.49-18.546 33.513-9.4a1.1 1.1 0 0 0 1.225.446c-.253 5.793-1.782 11.67-3.195 17.456-3.253 13.311-3.966 30.623 11.342 36.382 4.424 1.665 8.875 2.678 12.837 5.242-13.582-1.553-28.089-1.115-36.586 11.31-.453.66.467 1.5.952.838 9.05-12.435 25.052-11.821 38.863-9.552a34.188 34.188 0 0 1 7.589 10.455c4.212 8.831 4.582 18.374 4.487 27.925-.169.354-.348.702-.511 1.058zm23.781-35.547a133.058 133.058 0 0 0 -21.6 31.023c.319-12.216-1.962-25.1-9.973-34.259.08.017.166.032.248.046a1.165 1.165 0 0 0 1.307-1.51c-3.594-12.559 1.079-22.267 8.744-31.885a.924.924 0 0 0 .2-.614c7.662 2.118 15.861 3.475 21.339 9.386 6.93 7.482 6.672 19.859.234 27.463a1.379 1.379 0 0 0 -.499.348z" fill="url(#a)" transform="translate(-344.557 51.448)"/><path d="m538.33 403.287-5.481-12.138h19.576l1.566 14.488s-5.481 7.048-15.661-2.35z" fill="#9ad2eb" transform="translate(-74.383 240.769)"/><path d="m592.783 322.835s4.178-16.708.523-33.935-19.839-20.884-29.235-18.795-27.149 19.316-27.149 19.316l17.75 17.229z" fill="#203772" transform="translate(-68.539 66.327)"/><path d="m621.952 396.723-13.251 1.32 6.248-18.551 14.229 3.139s4.929 7.442-7.226 14.092z" fill="#9ad2eb" transform="translate(34.454 224.041)"/><path d="m613.159 396.313s4.59-2.586 6.336-6.543-1.459-9.167-1.459-9.167 9.786-.838 14.239.662c1.205 9.91-3.633 13.238-3.633 13.238s-5.961 5.43-4.977 7.414.674 15.656-2.788 20.543c-4.726 6.672-9.416 2.2-9.416 2.2z" fill="#cb1232" transform="translate(38.416 225.303)"/><path d="m599.8 338.158s-71.261-1.566-78.308 6.265 28.975 122.944 28.975 122.944h19.576l-7.047-89.272 57.163 5.481s-20.36 54.035-6.265 68.914 123.73 8.612 123.73 8.612l.781-23.492s-62.647-18.795-91.622-7.049c1.568-2.35 19.579-32.89 27.409-49.333s7.831-30.54 7.831-30.54z" fill="#203772" transform="translate(-91.997 164.551)"/><path d="m389.311 336.307s-10.441 42.293 16.189 48.03 93.448-14.1 93.448-14.1l5.22 119.029h19.316l16.18-155.566-64.212-3.655z" fill="#2d4d8e" transform="translate(-283.236 153.089)"/><path d="m424.767 327.582 58.471-7.831 58.993 133.125-17.75 7.831-76.743-112.243-27.669-1.564z" fill="#4b67aa" transform="translate(-236.207 138.322)"/><path d="m434.434 405.063h46.986s1.045-9.4-26.625-9.917c-4.7-.524-19.316 0-19.316 0z" fill="#191f3f" transform="translate(-215.596 246.17)"/><path d="m462.951 385.722 3.655 8.354 42.286-18.795s-9.92-8.875-28.191 2.61c-.521-1.044-17.75 7.831-17.75 7.831z" fill="#191f3f" transform="translate(-174.677 213.306)"/><path d="m475.93 379.647-40.575-18.378c-1.77-.8-1.948-3.129-.4-5.2l52.6-70.431c1.609-2.155 4.422-3.3 6.284-2.557l42.705 17.093c1.945.779 2.165 3.195.487 5.393l-54.831 71.777c-1.612 2.111-4.422 3.141-6.27 2.303z" fill="#ac9ff3" transform="translate(-216.359 85.375)"/><path d="m493.844 283.078c-1.863-.745-4.675.4-6.284 2.557l-52.6 70.431c-1.549 2.074-1.371 4.4.4 5.2l23.5 10.648 7.161 3.126c1.872.818 4.792-.353 6.518-2.62l57.132-75z" fill="#d4ccff" transform="translate(-216.359 85.375)"/><g transform="translate(208.129 78.013)"><rect fill="#f9dee2" height="281.39" rx="7.314" width="168.373"/><path d="m1.973 0h227.536a1.972 1.972 0 0 1 1.972 1.972v138.418a1.973 1.973 0 0 1 -1.973 1.973h-227.535a1.973 1.973 0 0 1 -1.973-1.973v-138.417a1.973 1.973 0 0 1 1.973-1.973z" fill="#fff" transform="matrix(0 -1 1 0 13.005 244.487)"/><g fill="#f9dee2"><path d="m34.597 39.21h99.178v86.493h-99.178z"/><path d="m34.597 138.389h26.524v86.493h-26.524z"/><path d="m74.961 136.082h61.122v47.283h-61.122z"/><path d="m74.961 192.591h61.122v31.137h-61.122z"/></g><circle cx="87.646" cy="264.092" fill="#f6c5cd" r="9.226"/></g><path d="m428.883 320.242 35.239-15.662 36.022-50.118 17.228 7.048-37.588 66.563-54.033 30.541z" fill="#b20026" transform="translate(-228.055 44.642)"/><path d="m417.1 313.312s-26.625 72.045-28.975 93.187c31.325 21.928 86.141-6.265 86.141-6.265l1.566-16.443 62.647-10.18v-18.011l-56.382-2.347s5.481-64.215.781-71.264-65.778 31.323-65.778 31.323z" fill="#cb1232" transform="translate(-282.047 82.897)"/><path d="m481.649 271.841s-1.566-28.975-27.407-26.625-43.07 33.674-39.939 57.947-14.1 42.289-16.445 59.515 23.494 28.975 39.155 19.579 28.191-55.6 28.191-55.6z" fill="#2d4d8e" transform="translate(-268.292 31.18)"/><path d="m656.6 265.695-69.593-27.176-32.447 3.815-2.56-23.859 38.77-4.161 74.064 36.547s24.181 10.923 22.664 17.874-20.743.02-20.743.02l-.5 10.735z" fill="#dbd3c2" transform="translate(-46.905 -12.966)"/><path d="m577.949 216.023 2.561 23.859-19.689 3.9-26.909-26.65z" fill="url(#b)" transform="translate(-72.856 -10.514)"/><path d="m643.243 261.184 14.119-2.954 9.75 27-11.842-10.153-13.161 4.108z" fill="#dbd3c2" transform="translate(82.391 50.048)"/><path d="m652.2 308.553 18.858 8.222-11.1 26.469-1.845-15.485-12.466-5.887z" fill="#dbd3c2" transform="translate(87.468 122.254)"/><path d="m574.522 232.213s19.973 1.01 39.61 18.522 55.987 60.9 55.987 60.9l95.824-14.176 3.328 17.784-115.577 34.102-96.058-99.963z" fill="#2d4d8e" transform="translate(-38.817 12.717)"/><path d="m796.484 415.56-10.168 13-125.016-51.873-112.836-104.818 34.921-37.278s19.367 12.992 46.133 47.884 47.273 64.962 47.273 64.962 35.223 6.284 58.753 26 60.94 42.123 60.94 42.123z" fill="#4b67aa" transform="translate(-51.978 16.129)"/><path d="m660.869 309.514s6.309 1.446 9.511 4.987c-.826 1.458-15.693 35.622-15.693 35.622s-7.173.762-5.332-5.9a48.548 48.548 0 0 0 1.748-12.3s3.8 6.572 7.134-.017 2.632-22.392 2.632-22.392z" fill="#db011a" transform="translate(92.353 123.633)"/><path d="m644.956 259.244s5.622-3.209 10.372-2.768c.382 1.631 12.566 36.842 12.566 36.842s-4.76 5.418-7.918-.733a48.527 48.527 0 0 0 -7.042-10.239s7.246 2.269 5.242-4.838-13.22-18.264-13.22-18.264z" fill="#db011a" transform="translate(86.476 47.471)"/><path d="m519.1 254.745s-16.236-25.349 8.164-42.637 38.571-.553 47.015-9.136-5.405-21.8 26.579-30.692 31.217 26.107 44.975 21.3 38.577-20.58 54.058 19.751-45.323 64.782-63.165 51.366-40.879-23.09-42.011-10.633-21.415 37.46-49.092 20.543c-8.412-1.926-21.614-8.101-26.523-19.862z" fill="url(#c)" transform="translate(-101.712 -75.365)"/><path d="m488.476 220.971 64.685 36.185 36.942.39-3.209 21.712-38.943-1.97-67.417-47.709s-19.425-16.749-16.84-23.375 17.748 5.4 17.748 5.4l7.461-13.888z" fill="#dbd3c2" transform="translate(-173.952 -36.782)"/><path d="m516.07 204.881s-1.838 26.438 8.693 35.98a20.812 20.812 0 0 0 13.759-4.809l9.53 9.491 10.068-11-8.634-7.446a10.046 10.046 0 0 0 .606-11.982c-4.166-6.718-11.609 1.916-11.609 1.916s-16.977-.862-22.413-12.15z" fill="#dbd3c2" transform="translate(-98.636 -26.501)"/><path d="m515.365 228.372 36.311-.416 10.592-11.478 39.732 26.036 34.919 12.277s1.714 15.605-11.975 28.929-27.244 14.139-27.244 14.139l-25.276-24.8-24.792 5.252-12.922-21.675-20.555-4.3z" fill="url(#d)" transform="translate(-101.21 -9.861)"/><path d="m437.746 252.533s25.057 14.1 25.057 42.286c-19.576 7.049-24.276 7.049-24.276 7.049v21.142h-15.66l7.049-27.407s-11.748-.784-7.049-10.964 13.314-2.35 13.314-2.35 5.481-21.141 1.565-29.756z" fill="#dde7eb" transform="translate(-233.785 41.873)"/><path d="m412.6 308.173s-.784 28.972 8.612 32.888 25.844 3.918 25.844 3.918l-1.566 7.568s-25.06 1.568-33.674-6 .784-38.374.784-38.374z" fill="#a80024" transform="translate(-253.271 121.709)"/><path d="m451.308 317.733s1.566-9.4 7.049-10.18 3.915 10.18 3.915 10.18l21.142 1.568s-1.566 7.831-13.311 7.047c2.35.784 9.4 10.964-18.795 9.4-5.481-.786 0-18.015 0-18.015z" fill="#9ad2eb" transform="translate(-194.88 120.762)"/><path d="m456.09 269.952s7.831-26.1 12.53-26.1.521 16.182.521 16.182 7.309.523 8.875 5.744-4.176 13.051-4.176 13.051z" fill="#9ad2eb" transform="translate(-184.522 29.415)"/><path d="m679.8 131.713-125.3 237.015 228.666-223.441" fill="none" stroke="#293651" stroke-miterlimit="10" stroke-width=".967" transform="translate(-43.311 -131.487)"/><path d="m543.569 269.748 8.353 7.309 21.4-46.463-6.265-2.61z" fill="#313f7d" transform="translate(-59.001 6.648)"/><path d="m29.854 538.992h172.28v109.633h-172.28z" fill="#9ad1f0"/><path d="m44.994 550.477h65.779v89.272h-65.779z" fill="#75bad8"/><path d="m122.196 550.477h65.78v89.272h-65.78z" fill="#75bad8"/><path d="m538.316 342.8 16.445 24.276 18.795-10.18 10.18 28.975-10.18 13.314s18.795 21.926 42.286 25.057 46.2-11.746 46.2-11.746-11.746-68.912-31.322-98.671-52.467-16.443-52.467-16.443z" fill="url(#a)" transform="translate(-66.539 101.962)"/><path d="m585.963 334.03-11.746 5.481-39.155-20.36s0-13.311-3.915-13.311-4.7 7.046-4.7 7.046l-20.36-10.18a21.6 21.6 0 0 0 3.913 17.228c6.265 8.612 18.011 7.831 18.011 7.831l43.07 39.937 31.325-13.311z" fill="#9ad2eb" transform="translate(-113.402 113.864)"/><path d="m550.56 394.595s3.915 3.526 8.223 3.918 8.217-4.308 8.217-4.308 3.915 9 3.915 13.7c-9 4.307-13.7.784-13.7.784s-7.049-3.918-8.615-2.35-14.624 5.634-20.36 3.915c-7.83-2.35-5.089-8.223-5.089-8.223z" fill="#cb1232" transform="translate(-88.963 245.154)"/><path d="m541.639 281.157s4.7 25.581 7.833 32.89c4.7 6.786 18.271-1.566 18.271-1.566l4.7 5.22 21.4-3.655-8.352-15.14s-8.875 3.655-13.574 1.566-7.307-7.309-7.307-7.309 5.221-7.831-1.568-10.962-8.875 6.786-8.875 6.786z" fill="#9ad2eb" transform="translate(-61.771 82.945)"/></svg>