<svg xmlns="http://www.w3.org/2000/svg" xmlns:xlink="http://www.w3.org/1999/xlink" width="857.915" height="604.582" viewBox="0 0 857.915 604.582">
  <defs>
    <linearGradient id="linear-gradient" x1="0.5" x2="0.5" y2="1" gradientUnits="objectBoundingBox">
      <stop offset="0" stop-color="#fe8464"/>
      <stop offset="1" stop-color="#fe6e9a"/>
    </linearGradient>
    <linearGradient id="linear-gradient-4" x1="0.5" x2="0.5" y2="1" gradientUnits="objectBoundingBox">
      <stop offset="0" stop-color="#33c8c1"/>
      <stop offset="1" stop-color="#119bd2"/>
    </linearGradient>
    <linearGradient id="linear-gradient-7" x2="1.11" y2="0.904" xlink:href="#linear-gradient-4"/>
    <linearGradient id="linear-gradient-8" x1="0.5" x2="0.5" y2="1" gradientUnits="objectBoundingBox">
      <stop offset="0" stop-color="#d5324e"/>
      <stop offset="1" stop-color="#fe6e9a"/>
    </linearGradient>
    <linearGradient id="linear-gradient-54" x1="0.5" x2="0.5" y2="1" gradientUnits="objectBoundingBox">
      <stop offset="0" stop-color="#6349ee"/>
      <stop offset="1" stop-color="#1d4f8f"/>
    </linearGradient>
    <linearGradient id="linear-gradient-55" x1="0.561" y1="0.215" xlink:href="#linear-gradient-54"/>
    <linearGradient id="linear-gradient-57" x1="0.5" x2="3.002" y2="1.249" gradientUnits="objectBoundingBox">
      <stop offset="0" stop-color="#361cc1"/>
      <stop offset="1" stop-color="#2e82ef"/>
    </linearGradient>
    <linearGradient id="linear-gradient-58" x2="0.454" y2="0.962" xlink:href="#linear-gradient-54"/>
  </defs>
  <g id="Group_175" data-name="Group 175" transform="translate(-1063.086 -6293.014)">
    <path id="Subtraction_1" data-name="Subtraction 1" d="M-1309.954,932.582c-25.708-1.179-50.784-7.221-72.516-17.473a145.3,145.3,0,0,1-29.971-18.692,111.248,111.248,0,0,1-22.707-24.862,120.613,120.613,0,0,1-13.548-28.743,167.373,167.373,0,0,1-7.039-32.638c-2.582-22.135-1.191-44.965,3.918-64.285a113.17,113.17,0,0,1,9.119-23.24,151.612,151.612,0,0,1,13.865-21.626A213.287,213.287,0,0,1-1411.378,681c5.934-6.045,12.625-12.241,19.888-18.418,10.022-8.524,21.511-17.419,35.122-27.193,12.138-8.717,24.791-17.3,37.027-25.606,18.316-12.429,37.254-25.28,54.746-38.763,9.415-7.257,17.677-14.117,25.258-20.972a282.5,282.5,0,0,0,22.746-22.9c13.93-15.809,25.578-33.244,36.843-50.1,9.94-14.878,20.217-30.261,32.031-44.484,24.563-29.572,57.159-54.778,94.262-72.892a306.357,306.357,0,0,1,58.884-21.609,293.266,293.266,0,0,1,63.343-8.947c2.578-.077,5.2-.115,7.8-.115a273.7,273.7,0,0,1,62.131,7.207,264.033,264.033,0,0,1,57.61,20.6,218.006,218.006,0,0,1,48.422,32.458A163.664,163.664,0,0,1-720.7,432.047a169.42,169.42,0,0,1,9.178,19.652c2.483,6.291,4.737,12.945,6.891,20.343,4,13.74,7.032,28,9.964,41.8,3.477,16.361,7.072,33.28,12.3,49.339a191.728,191.728,0,0,0,9.321,23.6,146.046,146.046,0,0,0,13.135,22.341,187.28,187.28,0,0,0,16.134,19.263c5.818,6.168,12.067,12.244,18.111,18.12l0,0c8.669,8.43,17.634,17.146,25.5,26.3v199.35a195.58,195.58,0,0,1-38.652,34.092A214.646,214.646,0,0,1-687,930.5Z" transform="translate(2520.666 5964.514)" fill="#f9fbfe" stroke="rgba(0,0,0,0)" stroke-miterlimit="10" stroke-width="1"/>
    <path id="Path_178" data-name="Path 178" d="M467.139,538.082l-1.117,8.663c3.368-.181,5.828-1.37,6.931-2.733a2.627,2.627,0,0,0,.5-2.7C472.746,539.291,469.892,538.417,467.139,538.082Z" transform="translate(766.377 6324.176)" fill="none"/>
    <g id="Group_99" data-name="Group 99" transform="translate(1209.967 6703.993)">
      <g id="Group_98" data-name="Group 98" transform="translate(0 113.953)">
        <path id="Path_179" data-name="Path 179" d="M521.528,537.64c-2.634-7.511-10.436-10.389-17.413-11.449-15.264,23.869-34.333,28.629-44.773,29.256l3.037,17.887h34.4l1.839-14.279c8.715-.156,16.433-3.141,20.567-8.242A13.3,13.3,0,0,0,521.528,537.64Zm-8.953,7.821c-2.048,2.531-6.612,4.738-12.861,5.075l2.07-16.076c5.108.623,10.4,2.244,11.717,6A4.871,4.871,0,0,1,512.575,545.461Z" transform="translate(-451.623 -508.069)" fill="url(#linear-gradient)"/>
        <path id="Path_180" data-name="Path 180" d="M508.33,536.085c-.414-.064-.835-.143-1.24-.194l2.079-16.131a1.6,1.6,0,0,0-1.581-1.8H457.614a1.777,1.777,0,0,0-1.751,2.075l7.693,45.3C474,564.714,493.066,559.954,508.33,536.085Z" transform="translate(-455.837 -517.963)" fill="url(#linear-gradient)"/>
      </g>
      <path id="Path_181" data-name="Path 181" d="M476.581,573.479c-4.969-2.641-9.711-12.158-11.667-16.561s-2.526-9.674-.357-13.975c1.833-3.634,5.343-6.136,7.53-9.568A15.528,15.528,0,0,0,474,521.281c-1.489-5.725-6.187-10.29-7.264-16.109-1.262-6.823,2.7-13.382,4.443-20.1a32.1,32.1,0,0,0-.892-18.845c4.846,2.879,7.744,8.081,10.42,13.043,2.443,4.528,4.958,9.374,4.6,14.508-.222,3.229-1.57,6.253-2.7,9.286-2.051,5.486-3.451,11.506-1.989,17.178,2.211,8.577,10.66,15.281,10.328,24.133-.2,5.242-3.6,9.9-7.691,13.175-2.669,2.137-5.753,3.918-7.625,6.779s-1.938,7.332.958,9.149" transform="translate(-447.021 -466.226)" fill="url(#linear-gradient)"/>
    </g>
    <g id="Group_111" data-name="Group 111" transform="translate(1522.561 6517.038)">
      <path id="Path_182" data-name="Path 182" d="M620.195,397.145c-3.98,9.229-7.026,18.149-8.506,27.318s-1.991,18.515-4.271,27.518c-2.015,7.956-5.376,15.5-8.991,22.871a4.949,4.949,0,0,0-.665,2.123c0,1.46,1.264,2.573,2.443,3.434a66.2,66.2,0,0,0,63.268,7.533" transform="translate(-597.762 -362.344)" fill="#4b3c51"/>
      <ellipse id="Ellipse_60" data-name="Ellipse 60" cx="17.662" cy="21.961" rx="17.662" ry="21.961" transform="translate(0 52.718)" fill="#00b7d8"/>
      <ellipse id="Ellipse_61" data-name="Ellipse 61" cx="17.662" cy="21.961" rx="17.662" ry="21.961" transform="translate(8.309 55.827)" fill="url(#linear-gradient-4)"/>
      <path id="Path_183" data-name="Path 183" d="M655.98,480.616,619.125,403.3c-4.079,13.585-8.156,27.173-12.008,40.824a76.444,76.444,0,0,0-2.967,13.821,39.388,39.388,0,0,0,.837,12.308,23.024,23.024,0,0,0,5.209,10.724,17.922,17.922,0,0,0,1.619,1.438A65.961,65.961,0,0,0,655.98,480.616Z" transform="translate(-590.269 -354.947)" fill="#3e3244"/>
      <path id="Path_184" data-name="Path 184" d="M627.255,447.892c1.667,9.385,3.046,20.041-2.78,27.585-1.277,1.654-2.94,3.269-3.033,5.357-.119,2.738,2.5,4.751,4.947,5.976a39.05,39.05,0,0,0,30.844,1.6,4.971,4.971,0,0,0,2.218-1.355c1.249-1.542.449-3.808-.317-5.636a67.97,67.97,0,0,1,.542-53.119" transform="translate(-569.29 -324.884)" fill="#e8a17e"/>
      <path id="Path_185" data-name="Path 185" d="M623.7,439.841c1.626,6.594,2.7,12.938,1.978,19.691a.827.827,0,0,0,.117.663c.214.227.588.137.881.031a27.369,27.369,0,0,0,6.251-2.872,27.865,27.865,0,0,0,8.618-9.7,28.776,28.776,0,0,0,2.985-14.931" transform="translate(-566.569 -319.566)" fill="#d88d6c"/>
      <path id="Path_186" data-name="Path 186" d="M619.254,397.725c-6.691,7.469-8.251,18.107-9.132,28.1-.777,8.8-1.251,17.7,0,26.448s4.321,17.407,9.98,24.195a37.167,37.167,0,0,0,8.33,7.381,21.243,21.243,0,0,0,6.993,3.115c4.769,1.024,9.7-.344,14.341-1.848,10.572-3.427,21.462-8.061,27.988-17.059,8.5-11.724,14.129-42.575,16.338-56.892" transform="translate(-583.826 -361.646)" fill="#e8a17e"/>
      <path id="Path_187" data-name="Path 187" d="M607.8,402.331a71.749,71.749,0,0,0,35.058,16.429,122.935,122.935,0,0,0,22.668,1.1,38.964,38.964,0,0,0,8.456-.824,15.494,15.494,0,0,0,9.548-6.429c2.088-3.335,2.368-7.9.15-11.151" transform="translate(-585.695 -357.156)" fill="#d88d6c"/>
      <path id="Path_188" data-name="Path 188" d="M695.131,387.429c-18.852-9.114-46.148-7.226-59.863.623s-19.4,14.878-26.56,31.236c-.427.978-2.9,7-2.529,8a2.872,2.872,0,0,0,1.837,1.921c16.944,6.464,31.84,7.632,49.954,8.526,6.033.3,12.151.311,18.021-1.115,8.306,27.827,3.978,47.769-9.854,73.3,9,3.8,44.013,5.982,60.675-6.925a39.875,39.875,0,0,0,10.834-12.033c6.623-12.094,3.779-27,.178-40.313-2.68-9.9-5.718-19.8-10.585-28.838-7.475-13.878-17.636-28.133-32.109-34.379" transform="translate(-587.686 -381.345)" fill="#4b3c51"/>
      <path id="Path_189" data-name="Path 189" d="M616.565,425.559c1.374,4.249,2.956,8.167,6.716,10.574,3.729,2.388,8.713,2.11,12.722.231s7.823-6.586,10.627-10.01a116.027,116.027,0,0,1-30.065-.8" transform="translate(-575.15 -328.175)" fill="#fff"/>
      <path id="Path_190" data-name="Path 190" d="M674.464,462.01a8.553,8.553,0,0,1-2.724-3.368c-1.066-2.632-.139-5.6.678-8.317a44.216,44.216,0,0,0,2.282-14.178,20.878,20.878,0,0,0-4.885-13.264c-4.66-5.174-11.984-6.812-18.812-8.18q-2.151-.433-4.3-.861c2.553,19.946-2.313,36.738-13.286,56.993,9,3.8,44.013,5.982,60.675-6.925.61-.471,1.189-.985,1.78-1.482a24.9,24.9,0,0,1-3.145,1.59C686.752,466.345,679.485,465.995,674.464,462.01Z" transform="translate(-554.888 -342.264)" fill="#3e3244"/>
      <g id="Group_100" data-name="Group 100" transform="translate(48.921 69.538)">
        <path id="Path_191" data-name="Path 191" d="M629.217,415.669a8.351,8.351,0,0,0-8.339-.073l-.905-1.333a9.877,9.877,0,0,1,10-.018Z" transform="translate(-619.973 -412.916)" fill="#161119"/>
      </g>
      <g id="Group_101" data-name="Group 101" transform="translate(87.673 70.158)">
        <path id="Path_192" data-name="Path 192" d="M641.777,414.881l-4.21-.074V413.2h3.989Z" transform="translate(-637.567 -413.198)" fill="#161119"/>
      </g>
      <path id="Path_193" data-name="Path 193" d="M624.49,415.484l-5.1,15.623,8.028.651" transform="translate(-571.753 -340.29)" fill="#d88d6c"/>
      <g id="Group_102" data-name="Group 102" transform="translate(67.211 58.635)">
        <path id="Path_194" data-name="Path 194" d="M629.728,412.1a9.65,9.65,0,0,1,1.013-.533c.207-.1.416-.189.625-.278l-.231.1q.79-.334,1.6-.59a19.755,19.755,0,0,1,2.042-.535q.667-.135,1.339-.225l-.256.033a19.137,19.137,0,0,1,3.89-.123c.4.029.8.068,1.2.123l-.258-.035a19.326,19.326,0,0,1,3.857.936q.578.2,1.139.441l-.229-.1a22.873,22.873,0,0,1,3.991,2.2.97.97,0,0,0,.742.1.971.971,0,0,0,.676-1.189,1.091,1.091,0,0,0-.445-.577,22.653,22.653,0,0,0-6.447-3.09,20.06,20.06,0,0,0-5.795-.788,20.725,20.725,0,0,0-4.766.625,20.468,20.468,0,0,0-3.346,1.165,11.176,11.176,0,0,0-1.3.663l-.018.009a1.018,1.018,0,0,0-.443.577.988.988,0,0,0,.1.745.974.974,0,0,0,.577.445.988.988,0,0,0,.744-.1Z" transform="translate(-628.277 -407.966)" fill="#3e3244"/>
      </g>
      <g id="Group_103" data-name="Group 103" transform="translate(25.092 56.905)">
        <path id="Path_195" data-name="Path 195" d="M626.739,413.159a9.6,9.6,0,0,0-.9-.707c-.187-.134-.374-.262-.566-.388l.209.137q-.714-.469-1.467-.872a19.841,19.841,0,0,0-1.912-.9c-.418-.17-.846-.326-1.275-.467l.247.081a19.19,19.19,0,0,0-3.8-.83q-.6-.069-1.2-.1l.26.013a19.4,19.4,0,0,0-3.962.218q-.6.1-1.2.227l.245-.053c-1.487.328.491,1.335-2.236.621-.253-.066,1.777-2.63,4.158-2.865a19.991,19.991,0,0,1,5.841.28,20.659,20.659,0,0,1,4.573,1.482,20.233,20.233,0,0,1,3.077,1.755,11.094,11.094,0,0,1,1.163.888l.013.013a1.019,1.019,0,0,1,.333.65.992.992,0,0,1-.231.714.977.977,0,0,1-.648.33.994.994,0,0,1-.716-.231Z" transform="translate(-609.154 -407.181)" fill="#3e3244"/>
      </g>
      <path id="Path_196" data-name="Path 196" d="M629,416.388s4.665-6.694,11.5-.952" transform="translate(-560.202 -343.146)" fill="none" stroke="#3e3244" stroke-miterlimit="10" stroke-width="5"/>
      <path id="Path_197" data-name="Path 197" d="M610.831,415.732s4.665-6.693,11.5-.951" transform="translate(-582.046 -343.935)" fill="none" stroke="#3e3244" stroke-miterlimit="10" stroke-width="5"/>
      <circle id="Ellipse_62" data-name="Ellipse 62" cx="6.901" cy="6.901" r="6.901" transform="translate(74.544 80.874)" fill="#f27b53" opacity="0.45"/>
      <circle id="Ellipse_63" data-name="Ellipse 63" cx="5.816" cy="5.816" r="5.816" transform="translate(25.971 79.274)" fill="#f27b53" opacity="0.45"/>
      <g id="Group_104" data-name="Group 104" transform="translate(19.431 56.906)">
        <path id="Path_198" data-name="Path 198" d="M621.837,437.684a15.251,15.251,0,1,1,15.253-15.25A15.268,15.268,0,0,1,621.837,437.684Zm0-28.745a13.494,13.494,0,1,0,13.493,13.495A13.511,13.511,0,0,0,621.837,408.939Z" transform="translate(-606.584 -407.181)" fill="#161119"/>
      </g>
      <g id="Group_105" data-name="Group 105" transform="translate(57.799 56.906)">
        <path id="Path_199" data-name="Path 199" d="M639.257,437.684a15.251,15.251,0,1,1,15.253-15.25A15.269,15.269,0,0,1,639.257,437.684Zm0-28.745a13.494,13.494,0,1,0,13.495,13.495A13.511,13.511,0,0,0,639.257,408.939Z" transform="translate(-624.004 -407.181)" fill="#161119"/>
      </g>
      <g id="Group_108" data-name="Group 108" transform="translate(51.631 93.935)">
        <g id="Group_106" data-name="Group 106" transform="translate(0 18.076)">
          <ellipse id="Ellipse_64" data-name="Ellipse 64" cx="5.308" cy="4.151" rx="5.308" ry="4.151" transform="translate(0 1.02) rotate(-5.513)" fill="#161119"/>
        </g>
        <g id="Group_107" data-name="Group 107" transform="translate(8.111)">
          <path id="Path_200" data-name="Path 200" d="M632.064,447.531a53.042,53.042,0,0,1-7.178.209l.088-2.291c27.651,1.1,48.916-21.232,49.125-21.457l1.672,1.564C675.571,425.773,657.169,445.109,632.064,447.531Z" transform="translate(-624.886 -423.993)" fill="#161119"/>
        </g>
      </g>
      <g id="Group_110" data-name="Group 110" transform="translate(14.059 1.127)">
        <g id="Group_109" data-name="Group 109">
          <path id="Path_201" data-name="Path 201" d="M609.147,434.954c2.209-15.495,10.33-32.564,23.635-41.326,11.914-7.845,27.853-8.345,40.987-3.308,11.312,4.337,18.8,14.008,22.495,25.281,3.143,9.6,3.566,19.466,4.3,29.441.242,3.291,5.4,3.317,5.158,0-.7-9.493-1.086-18.953-3.685-28.184-3.383-12.015-10.312-23.05-21.543-29.087-13.36-7.182-31.069-7.949-44.872-1.617-11.224,5.15-19.431,15.184-24.64,26.155a75.38,75.38,0,0,0-6.8,21.272c-.465,3.247,4.5,4.65,4.971,1.372Z" transform="translate(-604.145 -381.856)" fill="url(#linear-gradient-4)"/>
        </g>
        <ellipse id="Ellipse_65" data-name="Ellipse 65" cx="17.662" cy="21.961" rx="17.662" ry="21.961" transform="translate(78.539 57.786)" fill="url(#linear-gradient-4)"/>
        <ellipse id="Ellipse_66" data-name="Ellipse 66" cx="16.78" cy="20.863" rx="16.78" ry="20.863" transform="translate(82.203 58.884)" fill="url(#linear-gradient-7)"/>
      </g>
    </g>
    <g id="Group_131" data-name="Group 131" transform="translate(1287.198 6358.382)">
      <g id="Group_114" data-name="Group 114" transform="translate(374.873 67.254)">
        <rect id="Rectangle_31" data-name="Rectangle 31" width="107.536" height="72.049" rx="4.762" transform="translate(2.526 2.42)" fill="#26476d" opacity="0.07"/>
        <g id="Group_113" data-name="Group 113">
          <rect id="Rectangle_32" data-name="Rectangle 32" width="107.536" height="72.049" rx="4.762" fill="#fff"/>
          <g id="Group_112" data-name="Group 112" transform="translate(38.836 11.621)">
            <path id="Path_202" data-name="Path 202" d="M700.961,346.688a12.693,12.693,0,0,1,5.178,4.35,10.756,10.756,0,0,1,1.885,6.167,11.051,11.051,0,0,1-.863,4.509,12.382,12.382,0,0,1-2.11,3.324,34.615,34.615,0,0,1-3.293,3.1,26.254,26.254,0,0,0-4.092,4.218,7.65,7.65,0,0,0-1.339,4.6v.894a1.749,1.749,0,0,1-1.729,1.727h-2.363a1.749,1.749,0,0,1-1.729-1.727v-1.341a10.667,10.667,0,0,1,.9-4.506,12.34,12.34,0,0,1,2.139-3.293q1.245-1.345,3.357-3.262a26.655,26.655,0,0,0,4-4.057,6.814,6.814,0,0,0,1.313-4.189,5.63,5.63,0,0,0-2.559-4.859,10.44,10.44,0,0,0-6.134-1.791,9.34,9.34,0,0,0-5.757,1.727,9.1,9.1,0,0,0-3.194,5.306,1.693,1.693,0,0,1-.608,1.024A1.656,1.656,0,0,1,682.9,359h-2.749a1.452,1.452,0,0,1-1.024-.416,1.114,1.114,0,0,1-.383-.991,13.164,13.164,0,0,1,6.872-10.612,15.857,15.857,0,0,1,7.9-1.854A17.134,17.134,0,0,1,700.961,346.688ZM696.454,390a1.676,1.676,0,0,1-1.216.511h-3.645a1.749,1.749,0,0,1-1.727-1.727v-3.645a1.749,1.749,0,0,1,1.727-1.725h3.645a1.741,1.741,0,0,1,1.724,1.725v3.645A1.667,1.667,0,0,1,696.454,390Z" transform="translate(-678.735 -345.122)" fill="#cb1232"/>
          </g>
        </g>
      </g>
      <g id="Group_121" data-name="Group 121" transform="translate(156.36)">
        <path id="Path_203" data-name="Path 203" d="M659.685,310.373H573.976a10.914,10.914,0,0,0-10.914,10.914v50.222a10.912,10.912,0,0,0,10.914,10.914h60.792L657.8,398.77V382.422h1.885A10.914,10.914,0,0,0,670.6,371.509V321.287A10.915,10.915,0,0,0,659.685,310.373Z" transform="translate(-560.487 -308.034)" fill="#26476d" opacity="0.07"/>
        <g id="Group_120" data-name="Group 120">
          <path id="Path_204" data-name="Path 204" d="M658.516,309.311h-85.71a10.914,10.914,0,0,0-10.914,10.913v50.222a10.912,10.912,0,0,0,10.914,10.914H633.6l23.032,16.347V381.36h1.885a10.912,10.912,0,0,0,10.911-10.914V320.225A10.913,10.913,0,0,0,658.516,309.311Z" transform="translate(-561.893 -309.311)" fill="#fff"/>
          <g id="Group_119" data-name="Group 119" transform="translate(10.44 8.262)">
            <path id="Path_205" data-name="Path 205" d="M567.01,313.062" transform="translate(-566.18 -313.062)" fill="#fe816b"/>
            <g id="Group_115" data-name="Group 115" transform="translate(0 10.341)">
              <path id="Path_206" data-name="Path 206" d="M652.459,317.757h-85a.861.861,0,0,0,0,1.72h85a.861.861,0,0,0,0-1.72Z" transform="translate(-566.633 -317.757)" fill="#fe816b"/>
            </g>
            <g id="Group_116" data-name="Group 116" transform="translate(0 21.543)">
              <path id="Path_207" data-name="Path 207" d="M652.459,322.843h-85a.859.859,0,0,0,0,1.718h85a.859.859,0,0,0,0-1.718Z" transform="translate(-566.633 -322.843)" fill="#fe816b"/>
            </g>
            <g id="Group_117" data-name="Group 117" transform="translate(0 32.745)">
              <path id="Path_208" data-name="Path 208" d="M627.068,327.929h-59.6a.86.86,0,0,0,0,1.718h59.6a.86.86,0,0,0,0-1.718Z" transform="translate(-566.633 -327.929)" fill="#fe816b"/>
            </g>
            <g id="Group_118" data-name="Group 118" transform="translate(0 43.945)">
              <path id="Path_209" data-name="Path 209" d="M627.068,333.014h-59.6a.861.861,0,0,0,0,1.72h59.6a.861.861,0,0,0,0-1.72Z" transform="translate(-566.633 -333.014)" fill="#fe816b"/>
            </g>
          </g>
        </g>
      </g>
      <g id="Group_128" data-name="Group 128" transform="translate(145.211 90.341)">
        <path id="Path_210" data-name="Path 210" d="M620.36,351.018H564.68a7.09,7.09,0,0,0-7.09,7.088v32.626a7.091,7.091,0,0,0,7.09,7.09h39.494l14.962,10.621V397.822h1.225a7.089,7.089,0,0,0,7.09-7.09V358.106A7.089,7.089,0,0,0,620.36,351.018Z" transform="translate(-555.918 -349.498)" fill="#26476d" opacity="0.07"/>
        <g id="Group_127" data-name="Group 127">
          <path id="Path_211" data-name="Path 211" d="M619.6,350.328H563.921a7.089,7.089,0,0,0-7.09,7.088v32.628a7.089,7.089,0,0,0,7.09,7.088h39.492l14.962,10.621V397.132H619.6a7.089,7.089,0,0,0,7.09-7.088V357.416A7.089,7.089,0,0,0,619.6,350.328Z" transform="translate(-556.831 -350.328)" fill="#fff"/>
          <g id="Group_126" data-name="Group 126" transform="translate(6.782 5.365)">
            <path id="Path_212" data-name="Path 212" d="M560.155,352.764" transform="translate(-559.616 -352.764)" fill="#fe816b"/>
            <g id="Group_122" data-name="Group 122" transform="translate(0 6.718)">
              <path id="Path_213" data-name="Path 213" d="M615.665,355.814H560.45a.559.559,0,0,0,0,1.117h55.215a.559.559,0,0,0,0-1.117Z" transform="translate(-559.91 -355.814)" fill="#fe816b"/>
            </g>
            <g id="Group_123" data-name="Group 123" transform="translate(0 13.995)">
              <path id="Path_214" data-name="Path 214" d="M615.665,359.118H560.45a.559.559,0,0,0,0,1.117h55.215a.559.559,0,0,0,0-1.117Z" transform="translate(-559.91 -359.118)" fill="#fe816b"/>
            </g>
            <g id="Group_124" data-name="Group 124" transform="translate(0 21.272)">
              <path id="Path_215" data-name="Path 215" d="M599.17,362.422H560.45a.559.559,0,0,0,0,1.117h38.72a.559.559,0,0,0,0-1.117Z" transform="translate(-559.91 -362.422)" fill="#fe816b"/>
            </g>
            <g id="Group_125" data-name="Group 125" transform="translate(0 28.549)">
              <path id="Path_216" data-name="Path 216" d="M599.17,365.726H560.45a.559.559,0,0,0,0,1.117h38.72a.559.559,0,0,0,0-1.117Z" transform="translate(-559.91 -365.726)" fill="#fe816b"/>
            </g>
          </g>
        </g>
      </g>
      <g id="Group_130" data-name="Group 130" transform="translate(0 169.551)">
        <rect id="Rectangle_33" data-name="Rectangle 33" width="107.536" height="72.049" rx="4.762" transform="translate(3.191 2.859)" fill="#26476d" opacity="0.07"/>
        <g id="Group_129" data-name="Group 129">
          <rect id="Rectangle_34" data-name="Rectangle 34" width="107.536" height="72.049" rx="4.762" fill="#fff"/>
          <path id="Path_217" data-name="Path 217" d="M512.219,399.767c.766,8.154,9.473,6.865,9.473,6.865,5.317.78,4.522,12.416,4.522,12.416s-.566,11.651-5.938,11.806c0,0-8.5-2.3-10.207,5.718s3.119,12.11,10.993,11.568c0,0,10.907-1.059,12.535-28.913.9-28.23-9.112-29.67-9.112-29.67C516.727,388.1,511.452,391.611,512.219,399.767Z" transform="translate(-468.267 -382.75)" fill="url(#linear-gradient-8)"/>
        </g>
      </g>
    </g>
    <g id="Group_142" data-name="Group 142" transform="translate(1665.942 6638.505)" opacity="0.77">
      <g id="Group_133" data-name="Group 133" transform="translate(0 9.165)">
        <path id="Path_218" data-name="Path 218" d="M675,675.567c25.783-12.614,43.621-36.655,57.389-61.369,24.972-44.835,40.035-96.72,31.677-147.083-1.639-9.881-5.224-20.926-14.614-24.97a21.378,21.378,0,0,0-14.244-.526c-9.189,2.656-16.3,10.074-20.578,18.433s-6.114,17.673-7.826,26.867c-12.134,65.122-20.7,131.41-43.941,193.6" transform="translate(-662.86 -440.654)" fill="url(#linear-gradient)"/>
        <path id="Path_219" data-name="Path 219" d="M666.338,650.19c19.946-9.273,42.782-37.707,53.865-56.693,20.107-34.441,35.016-70.2,29.86-109.7-1.011-7.748-3.478-16.451-10.533-19.816a15.924,15.924,0,0,0-10.841-.731c-7.063,1.868-12.658,7.5-16.12,13.931s-5.086,13.66-6.61,20.8C695.147,548.543,687.024,600.1,667.82,648.126" transform="translate(-658.678 -414.219)" fill="#345d95" opacity="0.11"/>
        <g id="Group_132" data-name="Group 132" transform="translate(0.681 28.351)">
          <path id="Path_220" data-name="Path 220" d="M740.262,453.793c-2.132,15.583-4.357,31.157-7.046,46.661-2.665,15.374-5.786,30.681-9.718,45.8A311.869,311.869,0,0,1,710,587.3a299.288,299.288,0,0,1-19.228,38.34,265.86,265.86,0,0,1-24.2,34.459q-1.642,1.972-3.33,3.905c-.238.273.167.672.407.4a259.2,259.2,0,0,0,24.726-33.714,292.881,292.881,0,0,0,34.153-78.575c4.174-15.193,7.484-30.6,10.286-46.088,2.8-15.51,5.1-31.1,7.264-46.707q.383-2.759.76-5.52c.049-.357-.526-.355-.575,0Z" transform="translate(-663.169 -453.526)" fill="#fe816b"/>
        </g>
      </g>
      <g id="Group_135" data-name="Group 135" transform="translate(22.195 189.54)">
        <path id="Path_221" data-name="Path 221" d="M672.937,574.292c17.878,4.4,42.582,7.826,60.107,8.843,33.009,1.914,73.463.716,99.676-19.44,8.5-6.537,15.924-17.244,12.449-27.391-2.209-6.445-8.449-10.865-15.037-12.6s-13.539-1.2-20.308-.423a305.885,305.885,0,0,0-136.888,51.011" transform="translate(-672.937 -522.549)" fill="url(#linear-gradient)"/>
        <path id="Path_222" data-name="Path 222" d="M676.314,566.174a305.3,305.3,0,0,0,46.634,6.4c25.618,1.357,57.015.419,77.388-14.418,6.608-4.812,12.383-12.684,9.7-20.127-1.7-4.729-6.542-7.964-11.649-9.231s-10.508-.861-15.761-.28a246.76,246.76,0,0,0-106.312,37.65" transform="translate(-668.876 -516.028)" fill="#345d95" opacity="0.11"/>
        <g id="Group_134" data-name="Group 134" transform="translate(0.69 22.96)">
          <path id="Path_223" data-name="Path 223" d="M817.712,532.982q-13.767,3.112-27.536,6.193-14.077,3.135-28.183,6.152-14.213,3.023-28.472,5.828-14.173,2.768-28.4,5.22-14.041,2.4-28.155,4.354-1.708.234-3.416.46c-.405.053-.388.7.024.643q14.048-1.857,28.025-4.216,14.193-2.369,28.32-5.112,14.266-2.749,28.483-5.762,14.206-2.993,28.375-6.154,13.893-3.083,27.77-6.233l3.361-.76c.4-.09.209-.7-.192-.615Z" transform="translate(-673.25 -532.973)" fill="#fe816b"/>
        </g>
      </g>
      <g id="Group_137" data-name="Group 137" transform="translate(13.993 47.071)">
        <path id="Path_224" data-name="Path 224" d="M669.352,649.385c37.467-1.958,79.269-24.2,109.285-46.709,19.757-14.816,39.271-30.538,53.863-50.464a141.76,141.76,0,0,0,24.4-55.046c2.667-12.988,2.207-29.12-9-36.212-6.048-3.83-13.949-3.841-20.7-1.445s-12.51,6.938-17.739,11.828c-14.9,13.942-26.331,31.106-37.941,47.892-30.234,43.709-67.77,89.654-102.178,130.156" transform="translate(-669.046 -457.864)" fill="url(#linear-gradient)"/>
        <path id="Path_225" data-name="Path 225" d="M673.941,619.426c28.939-1.44,61.224-17.818,84.408-34.4,15.259-10.911,30.331-22.49,41.6-37.163A102.1,102.1,0,0,0,818.8,507.326c2.059-9.566,1.7-21.446-6.949-26.668-4.672-2.819-10.775-2.828-15.984-1.064s-9.663,5.108-13.7,8.709c-11.513,10.268-20.338,22.911-29.3,35.271-23.353,32.188-52.343,66.023-78.919,95.852" transform="translate(-663.528 -433.189)" fill="#345d95" opacity="0.11"/>
        <g id="Group_136" data-name="Group 136" transform="translate(0 34.327)">
          <path id="Path_226" data-name="Path 226" d="M833.5,473.559,800.565,513.8c-9.744,11.907-19.415,23.88-29.362,35.617-9.16,10.808-18.587,21.4-28.622,31.406A261.176,261.176,0,0,1,710.7,608.248a172.068,172.068,0,0,1-36.456,20.263q-2.389.951-4.808,1.821c-.388.139-.22.762.17.621a166.989,166.989,0,0,0,36.923-19.015,244.672,244.672,0,0,0,32.333-26.565c10.264-9.88,19.867-20.424,29.151-31.223,9.795-11.394,19.25-23.076,28.765-34.7l33.04-40.372,4.143-5.064c.26-.317-.194-.775-.456-.454Z" transform="translate(-669.213 -473.449)" fill="#fe816b"/>
        </g>
      </g>
      <g id="Group_139" data-name="Group 139" transform="translate(134.456 107.459)" opacity="0.38">
        <g id="Group_138" data-name="Group 138" transform="translate(0 9.889)">
          <path id="Path_227" data-name="Path 227" d="M724.619,573.366c7.537-2.324,14.264-6.559,20.587-11.185,3.346-2.447,6.618-5,9.9-7.528,3.592-2.766,7.174-5.548,10.715-8.381q10.1-8.081,19.766-16.68,9.7-8.63,18.94-17.757t17.984-18.724q1.06-1.163,2.114-2.332c.5-.555-.317-1.379-.817-.824q-8.62,9.574-17.726,18.7t-18.673,17.752q-9.568,8.633-19.572,16.759c-6.808,5.533-13.755,10.909-20.761,16.191-6.218,4.685-12.731,9.215-20.067,11.973-.89.335-1.791.639-2.7.921-.711.218-.408,1.337.308,1.117Z" transform="translate(-723.906 -489.771)" fill="url(#linear-gradient)"/>
        </g>
        <path id="Path_228" data-name="Path 228" d="M768.284,498.355a15.644,15.644,0,0,1,7.76-12.1c1.747-.978,4.141-1.52,5.6-.152a3.761,3.761,0,0,1,.637,4.11,9.079,9.079,0,0,1-2.8,3.368,34.066,34.066,0,0,1-11.435,6.253" transform="translate(-670.82 -485.282)" fill="url(#linear-gradient)"/>
        <path id="Path_229" data-name="Path 229" d="M768.073,502.44c-2.088-1.359-3.024-3.929-3.482-6.376a11.886,11.886,0,0,1-.026-5.218,5.665,5.665,0,0,1,3.22-3.912,1.516,1.516,0,0,1,.78-.126,1.468,1.468,0,0,1,.681.359,4.94,4.94,0,0,1,1.6,3.4,11.887,11.887,0,0,1-.46,3.817,40.835,40.835,0,0,1-3.055,8.275" transform="translate(-675.351 -483.46)" fill="url(#linear-gradient)"/>
        <path id="Path_230" data-name="Path 230" d="M764.444,507.619A5.733,5.733,0,0,1,762.272,506c-1.729-1.775-3.548-3.729-3.883-6.185a9.11,9.11,0,0,1,.412-3.707c.54-1.883,1.474-3.822,3.209-4.729a2.732,2.732,0,0,1,1.881-.319,2.582,2.582,0,0,1,1.667,1.588A6.4,6.4,0,0,1,765.92,495a41.632,41.632,0,0,1-1.476,12.618" transform="translate(-682.506 -478.397)" fill="url(#linear-gradient)"/>
        <path id="Path_231" data-name="Path 231" d="M759.691,513.8c-.222.2-.568.022-.8-.159a17.7,17.7,0,0,1-5.266-6.187,11.8,11.8,0,0,1-.978-7.971,4.552,4.552,0,0,1,2-3.011,3.761,3.761,0,0,1,4.33.985,7.809,7.809,0,0,1,1.771,4.352c.582,4.244-.385,8.53-1.348,12.7" transform="translate(-689.724 -472.228)" fill="url(#linear-gradient)"/>
        <path id="Path_232" data-name="Path 232" d="M754.013,521.3a7.124,7.124,0,0,1-2.971-2.374,21.8,21.8,0,0,1-4.729-8.077,10.057,10.057,0,0,1,1.491-8.958,3.778,3.778,0,0,1,3.236-1.619,3.832,3.832,0,0,1,2.326,1.553c2.443,3.05,2.522,7.332,2.132,11.22a64.7,64.7,0,0,1-1.139,7.235" transform="translate(-697.475 -467.286)" fill="url(#linear-gradient)"/>
        <path id="Path_233" data-name="Path 233" d="M746.465,529.2a23,23,0,0,1-8.665-17.272c-.064-2.562.647-5.592,3.028-6.533a4.663,4.663,0,0,1,4.623,1,9.073,9.073,0,0,1,2.511,4.218c1.762,5.57.668,11.594-.441,17.332" transform="translate(-707.203 -461.407)" fill="url(#linear-gradient)"/>
        <path id="Path_234" data-name="Path 234" d="M761.74,499.489c3.839-1.676,8.237-1.218,12.38-.6,1.007.15,2.169.419,2.595,1.344a2.434,2.434,0,0,1-.641,2.5,6.259,6.259,0,0,1-4.24,1.949,11.208,11.208,0,0,1-4.68-.808,14.389,14.389,0,0,1-6.141-4.2" transform="translate(-679.284 -469.593)" fill="url(#linear-gradient)"/>
        <path id="Path_235" data-name="Path 235" d="M766.508,494.364c3.839-1.676,8.237-1.218,12.381-.6,1.006.15,2.167.419,2.592,1.344a2.436,2.436,0,0,1-.641,2.5,6.253,6.253,0,0,1-4.24,1.949,11.167,11.167,0,0,1-4.678-.81,14.357,14.357,0,0,1-6.143-4.2" transform="translate(-673.553 -475.756)" fill="url(#linear-gradient)"/>
        <path id="Path_236" data-name="Path 236" d="M755.972,504.988a17.729,17.729,0,0,1,15.464.148,4.26,4.26,0,0,1,2.438,2.432,2.993,2.993,0,0,1-.914,2.8,5.5,5.5,0,0,1-2.747,1.321,12.162,12.162,0,0,1-6.969-.777,23.874,23.874,0,0,1-6.026-3.731,4.208,4.208,0,0,1-1.687-2.2" transform="translate(-685.876 -463.63)" fill="url(#linear-gradient)"/>
        <path id="Path_237" data-name="Path 237" d="M749.65,509.912c4.669-1.623,9.812-.678,14.592.584,1.852.489,3.876,1.167,4.8,2.843,1.152,2.088-.115,4.907-2.214,6.039a8.741,8.741,0,0,1-6.949.112,19.884,19.884,0,0,1-10.055-8.6" transform="translate(-692.948 -456.698)" fill="url(#linear-gradient)"/>
        <path id="Path_238" data-name="Path 238" d="M742.306,516.045a17.29,17.29,0,0,1,11.094.56,51.366,51.366,0,0,1,9.962,5.315c1.548.978,3.26,2.216,3.405,4.039a3.778,3.778,0,0,1-1.632,3.2,7.535,7.535,0,0,1-3.5,1.251c-6.418.875-12.931-2.544-16.891-7.669-1.689-2.185-3.028-4.854-2.751-7.6" transform="translate(-702.198 -449.374)" fill="url(#linear-gradient)"/>
        <path id="Path_239" data-name="Path 239" d="M736.886,537.2c-.194.326-.7.1-.973-.163a20.917,20.917,0,0,1-6.2-18.18,9.376,9.376,0,0,1,1.214-3.6,9.879,9.879,0,0,1,4.656-3.458,2.525,2.525,0,0,1,1.346-.282,2.417,2.417,0,0,1,1.412,1.066,16.768,16.768,0,0,1,2.9,12.1,30.228,30.228,0,0,1-4.476,11.848" transform="translate(-717.216 -453.753)" fill="url(#linear-gradient)"/>
        <path id="Path_240" data-name="Path 240" d="M732.3,523.895a16.578,16.578,0,0,1,8.931-.965,43.5,43.5,0,0,1,8.746,2.443,14.3,14.3,0,0,1,5.793,3.235c1.526,1.632,2.2,4.288.925,6.125-1.242,1.8-3.729,2.147-5.909,2.1a21.872,21.872,0,0,1-12.105-3.63,14.27,14.27,0,0,1-6.24-10.7" transform="translate(-713.81 -440.519)" fill="url(#linear-gradient)"/>
      </g>
      <g id="Group_141" data-name="Group 141" transform="translate(90.913)" opacity="0.38">
        <g id="Group_140" data-name="Group 140" transform="translate(6.904 13.426)">
          <path id="Path_241" data-name="Path 241" d="M708.293,568.5c4.8-6.26,7.832-13.609,10.31-21.041,1.313-3.934,2.5-7.907,3.716-11.872,1.326-4.334,2.636-8.676,3.883-13.037q3.558-12.436,6.46-25.045,2.91-12.65,5.161-25.444t3.821-25.677q.192-1.563.372-3.125c.086-.74-1.057-.943-1.143-.2q-1.483,12.8-3.625,25.51T732.3,493.849q-2.8,12.578-6.253,25c-2.35,8.451-4.9,16.858-7.552,25.219-2.359,7.42-5.046,14.887-9.431,21.382q-.8,1.183-1.667,2.313c-.454.592.44,1.328.9.736Z" transform="translate(-707.271 -442.589)" fill="url(#linear-gradient)"/>
        </g>
        <path id="Path_242" data-name="Path 242" d="M723.56,454.243a15.646,15.646,0,0,1-.676-14.356c.859-1.808,2.5-3.636,4.48-3.368a3.765,3.765,0,0,1,2.9,2.982,9.1,9.1,0,0,1-.331,4.365,34.074,34.074,0,0,1-5.7,11.72" transform="translate(-683.308 -436.493)" fill="url(#linear-gradient)"/>
        <path id="Path_243" data-name="Path 243" d="M727.667,455.158c-2.489.1-4.74-1.451-6.531-3.18a11.9,11.9,0,0,1-3.042-4.238,5.666,5.666,0,0,1,.359-5.055,1.508,1.508,0,0,1,.564-.553,1.468,1.468,0,0,1,.762-.1,4.945,4.945,0,0,1,3.275,1.85,11.879,11.879,0,0,1,1.835,3.379,40.868,40.868,0,0,1,2.3,8.515" transform="translate(-687.86 -429.846)" fill="url(#linear-gradient)"/>
        <path id="Path_244" data-name="Path 244" d="M727.417,461.883a5.748,5.748,0,0,1-2.707-.06c-2.438-.447-5.053-.984-6.747-2.795a9.069,9.069,0,0,1-1.81-3.26c-.652-1.848-1.011-3.969-.121-5.716a2.735,2.735,0,0,1,1.35-1.348,2.577,2.577,0,0,1,2.277.328,6.387,6.387,0,0,1,1.654,1.707,41.7,41.7,0,0,1,6.1,11.143" transform="translate(-690.471 -421.975)" fill="url(#linear-gradient)"/>
        <path id="Path_245" data-name="Path 245" d="M727.629,469.426c-.066.291-.449.346-.747.337a17.729,17.729,0,0,1-7.876-2,11.823,11.823,0,0,1-5.412-5.934,4.548,4.548,0,0,1-.112-3.612,3.762,3.762,0,0,1,4.1-1.707,7.822,7.822,0,0,1,3.965,2.524c2.932,3.123,4.623,7.178,6.258,11.138" transform="translate(-693.293 -412.516)" fill="url(#linear-gradient)"/>
        <path id="Path_246" data-name="Path 246" d="M726.934,479.053a7.143,7.143,0,0,1-3.8-.216,21.761,21.761,0,0,1-8.533-3.85,10.051,10.051,0,0,1-3.969-8.165,3.778,3.778,0,0,1,1.7-3.194,3.837,3.837,0,0,1,2.793-.082c3.758,1.073,6.3,4.517,8.238,7.914a64.892,64.892,0,0,1,3.26,6.559" transform="translate(-696.344 -404.226)" fill="url(#linear-gradient)"/>
        <path id="Path_247" data-name="Path 247" d="M725.627,489.951a23.014,23.014,0,0,1-17.068-9.066c-1.533-2.053-2.709-4.936-1.313-7.081a4.666,4.666,0,0,1,4.35-1.857,9.048,9.048,0,0,1,4.491,1.985c4.663,3.522,7.257,9.068,9.676,14.387" transform="translate(-701.146 -393.887)" fill="url(#linear-gradient)"/>
        <path id="Path_248" data-name="Path 248" d="M721.545,459.251c2.161-3.59,6.011-5.764,9.746-7.66.908-.46,2.011-.914,2.892-.405a2.429,2.429,0,0,1,.927,2.412,6.234,6.234,0,0,1-2.328,4.044,11.16,11.16,0,0,1-4.284,2.051,14.38,14.38,0,0,1-7.44.128" transform="translate(-683.788 -419.094)" fill="url(#linear-gradient)"/>
        <path id="Path_249" data-name="Path 249" d="M722.466,452.313c2.159-3.59,6.011-5.762,9.744-7.66.908-.46,2.011-.914,2.894-.405a2.433,2.433,0,0,1,.925,2.414,6.241,6.241,0,0,1-2.328,4.044,11.148,11.148,0,0,1-4.282,2.048,14.342,14.342,0,0,1-7.443.128" transform="translate(-682.683 -427.438)" fill="url(#linear-gradient)"/>
        <path id="Path_250" data-name="Path 250" d="M719.915,467.1a17.728,17.728,0,0,1,12.693-8.834,4.249,4.249,0,0,1,3.4.573,2.992,2.992,0,0,1,.877,2.813,5.5,5.5,0,0,1-1.474,2.665,12.172,12.172,0,0,1-6.132,3.4,23.814,23.814,0,0,1-7.075.447,4.206,4.206,0,0,1-2.65-.817" transform="translate(-685.599 -410.436)" fill="url(#linear-gradient)"/>
        <path id="Path_251" data-name="Path 251" d="M717.875,474.95c2.868-4.026,7.61-6.233,12.237-7.971,1.793-.674,3.837-1.3,5.559-.463,2.15,1.037,2.749,4.066,1.691,6.207a8.735,8.735,0,0,1-5.6,4.114,19.893,19.893,0,0,1-13.178-1.189" transform="translate(-687.616 -400.87)" fill="url(#linear-gradient)"/>
        <path id="Path_252" data-name="Path 252" d="M715.7,483.534a17.286,17.286,0,0,1,9.37-5.969,51.47,51.47,0,0,1,11.2-1.436c1.828-.1,3.943-.082,5.117,1.324a3.776,3.776,0,0,1,.524,3.557,7.515,7.515,0,0,1-2.128,3.044c-4.727,4.429-12.017,5.414-18.213,3.528-2.643-.8-5.279-2.2-6.645-4.606" transform="translate(-691.172 -388.871)" fill="url(#linear-gradient)"/>
        <path id="Path_253" data-name="Path 253" d="M721.707,502.577c.031.381-.511.484-.89.432a20.921,20.921,0,0,1-15.581-11.231,9.371,9.371,0,0,1-1.092-3.636,9.885,9.885,0,0,1,1.793-5.515,2.512,2.512,0,0,1,.936-1.009,2.417,2.417,0,0,1,1.767.051,16.776,16.776,0,0,1,9.374,8.189,30.247,30.247,0,0,1,3.211,12.25" transform="translate(-704.137 -382.409)" fill="url(#linear-gradient)"/>
        <path id="Path_254" data-name="Path 254" d="M712.036,496.746a16.584,16.584,0,0,1,6.722-5.958,43.548,43.548,0,0,1,8.546-3.073,14.316,14.316,0,0,1,6.6-.716c2.189.445,4.273,2.227,4.3,4.46.027,2.181-1.8,3.907-3.6,5.13a21.865,21.865,0,0,1-11.973,4.048,14.273,14.273,0,0,1-11.279-5.108" transform="translate(-695.466 -375.95)" fill="url(#linear-gradient)"/>
      </g>
    </g>
    <g id="Group_144" data-name="Group 144" transform="translate(1449.012 6668.905)" opacity="0.38">
      <g id="Group_143" data-name="Group 143" transform="translate(8.623 11.893)">
        <path id="Path_255" data-name="Path 255" d="M636.461,566.9c-1.2-7.8-4.409-15.07-8.061-22-1.934-3.669-3.98-7.277-6-10.9-2.214-3.958-4.44-7.907-6.727-11.823q-6.522-11.17-13.618-21.988-7.12-10.856-14.8-21.329t-15.9-20.523q-.995-1.219-2-2.432c-.474-.573-1.41.112-.934.689q8.217,9.925,15.911,20.263t14.838,21.065q7.143,10.721,13.724,21.805c4.478,7.544,8.786,15.2,12.986,22.9,3.729,6.837,7.26,13.942,8.916,21.6.2.93.372,1.866.518,2.806.112.736,1.264.6,1.152-.141Z" transform="translate(-568.284 -455.695)" fill="url(#linear-gradient)"/>
      </g>
      <path id="Path_256" data-name="Path 256" d="M575.736,465.946A15.655,15.655,0,0,1,564.9,456.5c-.711-1.872-.9-4.319.667-5.566a3.763,3.763,0,0,1,4.158-.031,9.1,9.1,0,0,1,2.923,3.258,34.056,34.056,0,0,1,4.517,12.229" transform="translate(-564.369 -450.295)" fill="url(#linear-gradient)"/>
      <path id="Path_257" data-name="Path 257" d="M580.3,462.372c-1.648,1.868-4.328,2.418-6.817,2.513a11.9,11.9,0,0,1-5.165-.733,5.666,5.666,0,0,1-3.4-3.758,1.5,1.5,0,0,1-.011-.789,1.471,1.471,0,0,1,.454-.621,4.928,4.928,0,0,1,3.6-1.086,11.823,11.823,0,0,1,3.709,1.013,40.839,40.839,0,0,1,7.74,4.229" transform="translate(-563.781 -441.169)" fill="url(#linear-gradient)"/>
      <path id="Path_258" data-name="Path 258" d="M584.824,467.3a5.735,5.735,0,0,1-1.914,1.912c-2.009,1.454-4.207,2.967-6.687,2.94a9.117,9.117,0,0,1-3.605-.949c-1.786-.808-3.566-2.015-4.209-3.865a2.735,2.735,0,0,1-.042-1.907,2.579,2.579,0,0,1,1.813-1.418,6.43,6.43,0,0,1,2.377-.013,41.645,41.645,0,0,1,12.268,3.3" transform="translate(-559.747 -433.939)" fill="url(#linear-gradient)"/>
      <path id="Path_259" data-name="Path 259" d="M590.361,473.164c.163.249-.062.564-.275.773a17.7,17.7,0,0,1-6.887,4.306,11.817,11.817,0,0,1-8.03-.2,4.543,4.543,0,0,1-2.685-2.418,3.759,3.759,0,0,1,1.6-4.141,7.822,7.822,0,0,1,4.566-1.117c4.284.044,8.383,1.625,12.372,3.187" transform="translate(-554.811 -426.154)" fill="url(#linear-gradient)"/>
      <path id="Path_260" data-name="Path 260" d="M596.857,480.425a7.128,7.128,0,0,1-2.782,2.592,21.778,21.778,0,0,1-8.682,3.5,10.055,10.055,0,0,1-8.643-2.782,3.781,3.781,0,0,1-1.13-3.438,3.828,3.828,0,0,1,1.875-2.073c3.374-1.973,7.623-1.425,11.411-.474a64.714,64.714,0,0,1,6.993,2.183" transform="translate(-550.961 -418.314)" fill="url(#linear-gradient)"/>
      <path id="Path_261" data-name="Path 261" d="M603.61,489.588a23,23,0,0,1-18.352,6.053c-2.544-.311-5.438-1.458-6.022-3.951a4.667,4.667,0,0,1,1.667-4.427,9.1,9.1,0,0,1,4.542-1.868c5.768-.932,11.568,1.031,17.081,2.965" transform="translate(-546.605 -408.375)" fill="url(#linear-gradient)"/>
      <path id="Path_262" data-name="Path 262" d="M576.339,473.32c-1.1-4.044,0-8.328,1.209-12.336.3-.973.731-2.086,1.709-2.37a2.433,2.433,0,0,1,2.383,1,6.245,6.245,0,0,1,1.308,4.478,11.136,11.136,0,0,1-1.482,4.511,14.353,14.353,0,0,1-5.057,5.464" transform="translate(-550.52 -440.369)" fill="url(#linear-gradient)"/>
      <path id="Path_263" data-name="Path 263" d="M571.966,467.857c-1.1-4.044,0-8.328,1.209-12.336.3-.974.731-2.086,1.709-2.37a2.432,2.432,0,0,1,2.383,1,6.241,6.241,0,0,1,1.308,4.478,11.138,11.138,0,0,1-1.482,4.511,14.343,14.343,0,0,1-5.055,5.462" transform="translate(-555.78 -446.938)" fill="url(#linear-gradient)"/>
      <path id="Path_264" data-name="Path 264" d="M580.843,481.037a17.723,17.723,0,0,1,2.4-15.274,4.245,4.245,0,0,1,2.762-2.057,2.991,2.991,0,0,1,2.639,1.31,5.517,5.517,0,0,1,.905,2.91,12.167,12.167,0,0,1-1.784,6.782,23.792,23.792,0,0,1-4.572,5.416,4.2,4.2,0,0,1-2.423,1.35" transform="translate(-545.487 -434.186)" fill="url(#linear-gradient)"/>
      <path id="Path_265" data-name="Path 265" d="M585,488.69c-.925-4.857.762-9.808,2.709-14.352.753-1.76,1.718-3.665,3.511-4.335,2.236-.833,4.839.83,5.652,3.073a8.735,8.735,0,0,1-.9,6.889A19.9,19.9,0,0,1,586,488.66" transform="translate(-539.872 -426.858)" fill="url(#linear-gradient)"/>
      <path id="Path_266" data-name="Path 266" d="M590.317,499.141a17.3,17.3,0,0,1,2.172-10.9,51.454,51.454,0,0,1,6.711-9.079c1.194-1.388,2.667-2.9,4.493-2.78a3.781,3.781,0,0,1,2.932,2.081,7.536,7.536,0,0,1,.727,3.645c-.071,6.476-4.4,12.42-10.05,15.592-2.41,1.352-5.244,2.286-7.923,1.61" transform="translate(-534.294 -418.928)" fill="url(#linear-gradient)"/>
      <path id="Path_267" data-name="Path 267" d="M609.887,500.728c.295.24-.007.7-.3.938a20.911,20.911,0,0,1-18.889,3.482,9.344,9.344,0,0,1-3.381-1.724,9.874,9.874,0,0,1-2.742-5.11,2.507,2.507,0,0,1-.081-1.374,2.418,2.418,0,0,1,1.258-1.24,16.775,16.775,0,0,1,12.4-1.106,30.23,30.23,0,0,1,11.068,6.156" transform="translate(-540.255 -397.849)" fill="url(#linear-gradient)"/>
      <path id="Path_268" data-name="Path 268" d="M596.617,510.41a16.574,16.574,0,0,1,.346-8.975,43.832,43.832,0,0,1,3.694-8.3,14.382,14.382,0,0,1,4.046-5.26c1.837-1.271,4.564-1.544,6.2-.02,1.593,1.489,1.579,4,1.211,6.152a21.872,21.872,0,0,1-5.356,11.447,14.279,14.279,0,0,1-11.493,4.612" transform="translate(-527.222 -406.377)" fill="url(#linear-gradient)"/>
    </g>
    <g id="Group_148" data-name="Group 148" transform="translate(1469.01 6667.631)">
      <path id="Path_269" data-name="Path 269" d="M684.866,450.748c23.129.982,48.163,7.962,65.094,23.752a11.929,11.929,0,0,1,3.469,4.658c.914,2.711-.027,5.658-.892,8.385a171.074,171.074,0,0,0-1.524,97.762c2.359,8.326,5.372,16.552,6.185,25.168s-.9,17.942-6.854,24.224a32.512,32.512,0,0,1-9.1,6.387c-18.517,9.359-40.262,9.011-60.993,8.149-12.779-.531-25.688-1.2-37.994-4.7s-24.122-10.105-31.6-20.484c-7.715-10.709-10.127-24.312-11.109-37.474-2.227-29.891,1.828-59.863,2.392-89.833.163-8.715-.02-17.7-3.421-25.726,15.794-10.922,34.672-17.559,53.506-21.305,4.044,5.385,9.718,7.837,16.444,8.18s11.819-2.2,16.391-7.149" transform="translate(-543.295 -449.717)" fill="url(#linear-gradient-54)"/>
      <path id="Path_270" data-name="Path 270" d="M751.714,570.409c-.749-8.614,5.37-18.583,3.191-26.908-5.539-21.162-15.986-41.74-13.74-63.6-4.749,2.381-9.055,5.528-11.5,10.222-2.011,3.859-2.531,8.348-2.579,12.72-.1,8.733,1.531,17.391,1.879,26.118s-.749,17.927-5.663,25.069c-5.672,8.249-15.453,12.411-24.992,14.966a189.3,189.3,0,0,1-19.523,3.931c-7.535,1.19-15.2,2.187-22.768,1.216s-15.121-4.125-20.092-10.037c-7.883-9.372-7.647-22.981-9.063-35.256a110.359,110.359,0,0,0-11.922-38.617c-1.888-3.586-4.105-7.2-7.515-9.3l-.029-.013c-1.172,21.887-13.841,44.868-12.339,66.7.907,13.16,14.213,25.657,21.338,36.366,6.905,10.378,17.816,16.99,29.179,20.486s23.283,4.163,35.086,4.694c19.144.861,39.223,1.211,56.323-8.147a30.207,30.207,0,0,0,8.4-6.39C750.881,588.351,752.465,579.026,751.714,570.409Z" transform="translate(-547.611 -413.415)" fill="url(#linear-gradient-55)"/>
      <path id="Path_271" data-name="Path 271" d="M638.307,456.692c7.145,31.761.991,69.239-6.942,100.812-2.359,9.381-1.861,19.66,1.5,24.435,3.48,4.938,9.484,7.887,14.973,10.413,12.753,5.877,21.611,12.812,31.346,22.931,3.9,4.057,7.478,8.627,9.163,14s1.194,11.676-2.392,16.01c-3.429,4.145-9.1,5.861-14.477,5.854s-10.63-1.5-15.867-2.722a166.733,166.733,0,0,0-26.695-4c-7.775-.526-15.689-.522-23.169-2.713a44.508,44.508,0,0,1-25.393-20.266,53.153,53.153,0,0,1-6.619-32.049,110.869,110.869,0,0,1,3.641-17.442c6.39-23.783,15.2-44.606,23.265-67.873,3.3-9.522,9.372-20.27,15.191-28.5s12.539-17.193,22.472-18.889" transform="translate(-573.449 -441.329)" fill="url(#linear-gradient-54)"/>
      <g id="Group_145" data-name="Group 145" transform="translate(64.058 14.574)">
        <path id="Path_272" data-name="Path 272" d="M605.939,517.606c4.308-19.627,2.777-41.335-1.828-60.7-.24-1.007-1.793-.582-1.553.427a150.683,150.683,0,0,1,3.863,42.19,107.3,107.3,0,0,1-2.033,17.653c-.222,1.009,1.328,1.44,1.551.427Z" transform="translate(-602.533 -456.334)" fill="url(#linear-gradient-57)"/>
      </g>
      <path id="Path_273" data-name="Path 273" d="M657.354,536.555s-21.265-5.28-29.221-.722S608.1,547.041,608.46,555.505l-.009,3.471s57,1.663,61.634-3.471" transform="translate(-531.357 -348.39)" fill="#e8a17e"/>
      <path id="Path_274" data-name="Path 274" d="M694.7,455.607c10.434,1.207,21.84,13.363,29.058,23.873s12.129,22.4,16.984,34.183l27.276,66.206c2.819,6.841,5.654,13.739,7.024,21.01a54.383,54.383,0,0,1,.3,18.332c-.769,4.971-2.3,9.955-5.4,13.911-4.4,5.59-11.337,8.436-17.986,10.964-14.032,5.332-28.424,10.332-43.4,11.365a168.4,168.4,0,0,1-17.737-.024c-16.328-.595-32.725-1.2-48.793-4.176a7.453,7.453,0,0,1-3.284-1.181,7.618,7.618,0,0,1-2.009-3l-4.848-10.594c-.9-1.971-1.826-4.055-1.652-6.216.234-2.9,2.366-5.257,4.5-7.231A71.427,71.427,0,0,1,653.96,610.32c14.48-6.5,31.014-8.121,44.615-16.294a21.156,21.156,0,0,0,4.573-3.482c5.013-5.321,4.713-13.894,1.9-20.644s-4.782-13.193-7.544-19.961c-6.143-15.059-9.211-24.887-9.548-37.756-.478-18.325.894-39.2,6.744-56.574" transform="translate(-505.185 -442.634)" fill="url(#linear-gradient-58)"/>
      <g id="Group_146" data-name="Group 146" transform="translate(134.204 175.575)">
        <path id="Path_275" data-name="Path 275" d="M634.534,530.59a45.156,45.156,0,0,1,4.68,8.493,71.477,71.477,0,0,1,5.881,24.047c.073,1.028,1.683,1.035,1.608,0a73.821,73.821,0,0,0-5.808-24.2,46.311,46.311,0,0,0-4.971-9.156c-.61-.824-2.007-.022-1.39.813Z" transform="translate(-634.38 -529.432)" fill="url(#linear-gradient-57)"/>
      </g>
      <g id="Group_147" data-name="Group 147" transform="translate(180.821 12.21)">
        <path id="Path_276" data-name="Path 276" d="M657.584,519.763c-1.337-21,.277-43.67,7.434-63.526.352-.976-1.2-1.4-1.551-.427-7.2,19.97-8.837,42.839-7.493,63.953.066,1.029,1.676,1.035,1.61,0Z" transform="translate(-655.545 -455.261)" fill="url(#linear-gradient-57)"/>
      </g>
    </g>
    <rect id="Rectangle_35" data-name="Rectangle 35" width="760.097" height="13.885" rx="3.029" transform="translate(1132.106 6883.21)" fill="#646f87"/>
    <g id="Group_150" data-name="Group 150" transform="translate(1308.944 6729.633)">
      <rect id="Rectangle_36" data-name="Rectangle 36" width="259.271" height="6.45" rx="0.501" transform="translate(125.634 147.127)" fill="#26476d"/>
      <path id="Path_277" data-name="Path 277" d="M736.075,631.444h-221.2L504.191,477.867H720.958Z" transform="translate(-496.668 -477.867)" fill="#26476d"/>
      <g id="Group_149" data-name="Group 149">
        <path id="Path_278" data-name="Path 278" d="M732.66,631.444h-221.2L500.775,477.867H717.543Z" transform="translate(-500.775 -477.867)" fill="#c5e1f9"/>
        <circle id="Ellipse_67" data-name="Ellipse 67" cx="13.209" cy="13.209" r="13.209" transform="translate(102.733 63.58)" fill="#26476d" opacity="0.27"/>
        <path id="Path_279" data-name="Path 279" d="M501.618,489.92l8.83,126.9h221.2l-2.952-29.994C612.269,571.775,532.075,514.983,501.618,489.92Z" transform="translate(-499.762 -463.373)" fill="#26476d" opacity="0.07"/>
      </g>
    </g>
  </g>
</svg>
