<svg enable-background="new 0 0 92 33" viewBox="0 0 92 33" xmlns="http://www.w3.org/2000/svg"><g fill="#fe8464"><path d="m5.9 21c1 0 2.8-.5 5.3-1.5-1 2.5-1.5 4.2-1.5 5.3 0 2.9 2 5.3 4.5 5.3s4.5-2.4 4.5-5.3c0-1-.5-2.7-1.5-5.3 2.5 1 4.2 1.5 5.3 1.5 2.9 0 5.3-2 5.3-4.5s-2.5-4.5-5.4-4.5c-1 0-2.7.5-5.3 1.5 1-2.5 1.5-4.2 1.5-5.3 0-2.9-2-5.3-4.5-5.3s-4.5 2.4-4.5 5.3c0 1 .5 2.7 1.5 5.3-2.5-1-4.2-1.5-5.3-1.5-2.9 0-5.3 2-5.3 4.5s2.5 4.5 5.4 4.5zm11-4.5c0 1.5-1.2 2.8-2.8 2.8s-2.8-1.2-2.8-2.8 1.2-2.8 2.8-2.8 2.8 1.3 2.8 2.8zm.2 8.3c0 2-1.3 3.7-3 3.7s-3-1.7-3-3.7c0-.5.2-1.7 1.3-4.4.5.2 1.1.4 1.7.4s1.2-.1 1.7-.4c1.2 2.8 1.3 3.9 1.3 4.4zm5.3-11.3c2 0 3.7 1.3 3.7 3s-1.7 3-3.7 3c-.4 0-1.6-.2-4.4-1.3.2-.5.4-1.1.4-1.7s-.1-1.2-.4-1.7c2.8-1.1 4-1.3 4.4-1.3zm-11.2-5.3c0-2 1.3-3.7 3-3.7s3 1.7 3 3.7c0 .4-.2 1.6-1.3 4.4-.5-.2-1.1-.4-1.7-.4s-1.2.1-1.7.4c-1.1-2.7-1.3-3.9-1.3-4.4zm-5.3 5.3c.4 0 1.6.2 4.4 1.3-.2.5-.4 1.1-.4 1.7s.1 1.2.4 1.7c-2.8 1.1-3.9 1.3-4.4 1.3-2 0-3.7-1.3-3.7-3-.1-1.7 1.6-3 3.7-3z"/><path d="m42.1 8.6c3.4 0 6 1.7 7.2 4.7h-2.4c-.8-1.9-2.5-2.9-4.8-2.9-3.2 0-5.7 2.4-5.7 6.2s2.4 6.1 5.7 6.1c2.3 0 3.9-1 4.8-2.9h2.4c-1.2 3-3.8 4.6-7.2 4.6-4.3 0-7.7-3.2-7.7-7.9s3.4-7.9 7.7-7.9z"/><path d="m59.3 24.4c-4.4 0-7.8-3.3-7.8-7.9s3.4-7.9 7.8-7.9 7.8 3.3 7.8 7.9-3.4 7.9-7.8 7.9zm0-1.7c3.3 0 5.7-2.4 5.7-6.2s-2.4-6.2-5.7-6.2-5.7 2.4-5.7 6.2 2.4 6.2 5.7 6.2z"/><path d="m74.8 8.8c3.6 0 5.4 2 5.4 4.6 0 2-1.1 3.9-3.7 4.4l3.9 6.5h-2.4l-3.7-6.3h-2.4v6.3h-2v-15.5zm0 1.7h-3v5.9h3c2.3 0 3.3-1.2 3.3-3-.1-1.8-1-2.9-3.3-2.9z"/><path d="m91.6 10.4h-6.3v5.2h5.6v1.7h-5.6v5.3h6.3v1.7h-8.3v-15.5h8.3z"/></g></svg>