<svg height="84" viewBox="0 0 52.838 84" width="52.838" xmlns="http://www.w3.org/2000/svg" xmlns:xlink="http://www.w3.org/1999/xlink"><linearGradient id="a" gradientUnits="objectBoundingBox" x1=".5" x2=".5" y2="1"><stop offset="0" stop-color="#fe8464"/><stop offset="1" stop-color="#fe6e9a"/></linearGradient><g fill="url(#a)" transform="translate(-.004)"><path d="m50.555 118.138-5.035 12.583a1.355 1.355 0 0 0 2.01 1.626l11.441-7.625 11.442 7.627a1.355 1.355 0 0 0 2.01-1.626l-5.035-12.586 10.012-7.505a1.355 1.355 0 0 0 -.813-2.438h-12.46l-3.873-11.279a1.352 1.352 0 0 0 -2.562.013l-3.761 11.267h-12.572a1.355 1.355 0 0 0 -.813 2.438zm4.353-7.234a1.355 1.355 0 0 0 1.286-.927l2.8-8.4 2.888 8.4a1.356 1.356 0 0 0 1.281.915h9.36l-7.587 5.69a1.355 1.355 0 0 0 -.445 1.588l3.8 9.5-8.563-5.709a1.352 1.352 0 0 0 -1.5 0l-8.564 5.709 3.8-9.5a1.354 1.354 0 0 0 -.446-1.575l-7.587-5.69zm0 0" transform="translate(-33.226 -79.743)"/><path d="m51.487 0h-50.128a1.355 1.355 0 0 0 -1.359 1.355v81.289a1.355 1.355 0 0 0 2.26 1.013l23.51-20.9 24.844 20.923a1.355 1.355 0 0 0 2.227-1.037v-81.288a1.355 1.355 0 0 0 -1.354-1.355zm-1.355 79.732-23.513-19.802a1.355 1.355 0 0 0 -1.774.023l-22.132 19.673v-76.916h47.419zm0 0"/></g></svg>