<svg height="84.217" viewBox="0 0 84.217 84.217" width="84.217" xmlns="http://www.w3.org/2000/svg" xmlns:xlink="http://www.w3.org/1999/xlink"><linearGradient id="a" gradientUnits="objectBoundingBox" x1=".5" x2=".5" y2="1"><stop offset="0" stop-color="#fe8464"/><stop offset="1" stop-color="#fe6e9a"/></linearGradient><path d="m82.813 11.229a1.4 1.4 0 0 0 1.4-1.4v-8.429a1.4 1.4 0 0 0 -1.4-1.4h-81.413a1.4 1.4 0 0 0 -1.4 1.4v8.425a1.4 1.4 0 0 0 1.4 1.4h19.654v36.498h-4.211v-21.054a1.4 1.4 0 0 0 -1.4-1.4h-8.425a1.4 1.4 0 0 0 -1.4 1.4v30.88a1.4 1.4 0 0 0 1.4 1.4h29.476v14.039h-35.094a1.4 1.4 0 0 0 -1.4 1.4v8.422a1.4 1.4 0 0 0 1.4 1.4h81.41a1.4 1.4 0 0 0 1.4-1.4v-8.418a1.4 1.4 0 0 0 -1.4-1.4h-35.087v-14.04h29.477a1.4 1.4 0 0 0 1.4-1.4v-30.883a1.4 1.4 0 0 0 -1.4-1.4h-8.423a1.4 1.4 0 0 0 -1.4 1.4v21.054h-4.214v-36.494zm-14.036 39.301a1.4 1.4 0 0 0 1.4-1.4v-21.058h5.623v28.073h-29.481a1.4 1.4 0 0 0 -1.4 1.4v16.847a1.4 1.4 0 0 0 1.4 1.4h35.091v5.618h-78.603v-5.61h35.093a1.4 1.4 0 0 0 1.4-1.4v-16.852a1.4 1.4 0 0 0 -1.4-1.4h-29.478v-28.076h5.614v21.055a1.4 1.4 0 0 0 1.4 1.4h22.464a1.4 1.4 0 0 0 1.4-1.4v-21.055h5.614v21.055a1.4 1.4 0 0 0 1.4 1.4h22.463zm-22.458-25.265h-8.419a1.4 1.4 0 0 0 -1.4 1.4v21.058h-4.217v-36.494h19.651v36.494h-4.211v-21.054a1.4 1.4 0 0 0 -1.404-1.404zm15.44-16.843a1.4 1.4 0 0 0 -1.4 1.4v37.9h-5.618v-37.897a1.4 1.4 0 0 0 -1.4-1.4h-22.461a1.4 1.4 0 0 0 -1.4 1.4v37.9h-5.618v-37.9a1.4 1.4 0 0 0 -1.4-1.4h-19.655v-5.618h78.6v5.615z" fill="url(#a)"/></svg>