<svg height="84" viewBox="0 0 84.217 84" width="84.217" xmlns="http://www.w3.org/2000/svg" xmlns:xlink="http://www.w3.org/1999/xlink"><linearGradient id="a" gradientUnits="objectBoundingBox" x1=".5" x2=".5" y2="1"><stop offset="0" stop-color="#fe8464"/><stop offset="1" stop-color="#fe6e9a"/></linearGradient><g fill="url(#a)"><path d="m121.718 77.252-12.77-22.117 4.143-2a1.236 1.236 0 0 0 .669-.839l1.467-6.428 4.111-5.155a1.234 1.234 0 0 0 .239-1.046l-1.467-6.428 1.467-6.428a1.234 1.234 0 0 0 -.239-1.046l-4.111-5.155-1.467-6.428a1.236 1.236 0 0 0 -.669-.839l-5.941-2.861-4.11-5.148a1.236 1.236 0 0 0 -.966-.465h-6.593l-5.941-2.862a1.236 1.236 0 0 0 -1.073 0l-5.94 2.861h-6.593a1.235 1.235 0 0 0 -.966.465l-4.111 5.155-5.941 2.861a1.236 1.236 0 0 0 -.669.839l-1.467 6.428-4.11 5.155a1.234 1.234 0 0 0 -.239 1.046l1.469 6.427-1.467 6.428a1.234 1.234 0 0 0 .239 1.046l4.111 5.155 1.464 6.427a1.236 1.236 0 0 0 .669.839l4.143 2-12.769 22.113a1.246 1.246 0 0 0 1.391 1.812l7.811-2.093 2.093 7.811a1.246 1.246 0 0 0 2.264.3l13.357-23.135 5.262 2.534a1.245 1.245 0 0 0 1.073 0l5.259-2.534 13.356 23.133a1.246 1.246 0 0 0 2.264-.3l2.093-7.811 7.811 2.093a1.246 1.246 0 0 0 1.394-1.81zm-52.518 4.008-1.64-6.123a1.249 1.249 0 0 0 -1.514-.874l-6.122 1.637 11.257-19.5 3.787 4.749a1.236 1.236 0 0 0 .966.465h4.606zm25.462-21.989-5.662 2.729-5.658-2.725a1.235 1.235 0 0 0 -.536-.122h-6.28l-3.916-4.91a1.232 1.232 0 0 0 -.43-.343l-5.658-2.725-1.4-6.123a1.231 1.231 0 0 0 -.239-.5l-3.916-4.91 1.4-6.123a1.233 1.233 0 0 0 0-.55l-1.4-6.123 3.916-4.91a1.235 1.235 0 0 0 .239-.5l1.4-6.123 5.658-2.725a1.231 1.231 0 0 0 .43-.343l3.916-4.91h6.28a1.238 1.238 0 0 0 .536-.122l5.658-2.72 5.658 2.725a1.235 1.235 0 0 0 .536.122h6.28l3.916 4.91a1.232 1.232 0 0 0 .43.343l5.658 2.725 1.4 6.123a1.231 1.231 0 0 0 .239.5l3.916 4.91-1.4 6.123a1.232 1.232 0 0 0 0 .55l1.4 6.123-3.916 4.91a1.235 1.235 0 0 0 -.239.5l-1.4 6.123-5.653 2.72a1.231 1.231 0 0 0 -.43.343l-3.916 4.91h-6.279a1.243 1.243 0 0 0 -.538.118zm17.3 14.992a1.248 1.248 0 0 0 -1.514.874l-1.641 6.123-11.338-19.639h4.606a1.235 1.235 0 0 0 .966-.465l3.787-4.749 11.257 19.5z" transform="translate(-46.896 -1.684)"/><path d="m152.3 55.394a1.236 1.236 0 0 0 -1.718 1.778 21.12 21.12 0 1 1 -4.741-3.456 1.236 1.236 0 1 0 1.166-2.18 23.677 23.677 0 1 0 5.293 3.858z" transform="translate(-93.76 -40.843)"/><path d="m186.165 118.647-3.955-5.274a1.236 1.236 0 0 0 -.989-.494h-23.732a1.236 1.236 0 0 0 -.989.494l-3.955 5.274a1.25 1.25 0 0 0 -.247.742v5.274a1.243 1.243 0 0 0 .3.8l15.814 18.45a1.251 1.251 0 0 0 1.892 0l15.814-18.45a1.243 1.243 0 0 0 .3-.8v-5.274a1.249 1.249 0 0 0 -.253-.742zm-5.562-3.3 2.1 2.8h-4.821l-2.1-2.8zm-4.574 5.274v2.8h-13.349v-2.8zm-10.012-5.274h6.675l2.1 2.8h-10.876zm-7.911 0h4.821l-2.1 2.8h-4.821zm-3.337 5.274h5.439v2.8h-5.439zm1.451 5.274h4.408l4.408 10.286zm13.134 14.085-6.036-14.08h12.072zm4.317-3.8 4.409-10.28h4.408zm10.268-12.758h-5.439v-2.8h5.439z" transform="translate(-127.246 -94.421)"/><path d="m11.783 226.312c-1.91 0-4.038-3.283-4.038-7.993a1.236 1.236 0 1 0 -2.472 0c0 4.711-2.128 7.993-4.038 7.993a1.236 1.236 0 0 0 0 2.472c1.91 0 4.038 3.283 4.038 7.993a1.236 1.236 0 1 0 2.472 0c0-4.711 2.128-7.993 4.038-7.993a1.236 1.236 0 0 0 0-2.472zm-5.274 4.255a8.635 8.635 0 0 0 -2.157-3.019 8.637 8.637 0 0 0 2.157-3.019 8.635 8.635 0 0 0 2.157 3.019 8.637 8.637 0 0 0 -2.157 3.02z" transform="translate(.001 -181.484)"/><path d="m458.023 358.623c-1.474 0-2.719-1.849-2.719-4.038a1.236 1.236 0 0 0 -2.472 0c0 2.189-1.245 4.038-2.719 4.038a1.236 1.236 0 0 0 0 2.472c1.474 0 2.719 1.849 2.719 4.038a1.236 1.236 0 1 0 2.472 0c0-2.189 1.245-4.038 2.719-4.038a1.236 1.236 0 1 0 0-2.472zm-3.955 2.3a5.943 5.943 0 0 0 -.915-1.062 5.941 5.941 0 0 0 .915-1.062 5.942 5.942 0 0 0 .915 1.062 5.958 5.958 0 0 0 -.916 1.06z" transform="translate(-375.042 -295.337)"/><path d="m409.929 5.934c-1.474 0-2.719-1.849-2.719-4.038a1.236 1.236 0 0 0 -2.472 0c0 2.189-1.245 4.038-2.719 4.038a1.236 1.236 0 0 0 0 2.472c1.474 0 2.719 1.849 2.719 4.038a1.236 1.236 0 1 0 2.472 0c0-2.189 1.245-4.038 2.719-4.038a1.236 1.236 0 0 0 0-2.472zm-3.955 2.3a5.94 5.94 0 0 0 -.915-1.062 5.928 5.928 0 0 0 .915-1.062 5.942 5.942 0 0 0 .915 1.062 5.955 5.955 0 0 0 -.916 1.06z" transform="translate(-334.859 -.66)"/></g></svg>