<svg height="54.507" viewBox="0 0 58.71 54.507" width="58.71" xmlns="http://www.w3.org/2000/svg" xmlns:xlink="http://www.w3.org/1999/xlink"><linearGradient id="a" gradientUnits="objectBoundingBox" x1=".5" x2=".5" y2="1"><stop offset="0" stop-color="#fe8464"/><stop offset="1" stop-color="#fe6e9a"/></linearGradient><path d="m186.359 14.026c-.351 0-.483-.074-1.414-.654-.446-.278-1.134-.72-1.875-1.249a11.7 11.7 0 0 1 -3.72-3.641 6.165 6.165 0 0 1 -.529-4.043 5.11 5.11 0 0 1 2.063-3.19 4.293 4.293 0 0 1 3.49-.62 3.939 3.939 0 0 1 1.986 1.193 3.936 3.936 0 0 1 1.985-1.193 4.294 4.294 0 0 1 3.49.62 5.113 5.113 0 0 1 2.063 3.19 6.17 6.17 0 0 1 -.529 4.043 11.7 11.7 0 0 1 -3.72 3.641c-.742.529-1.429.972-1.875 1.249-.931.58-1.064.654-1.415.654zm-3.059-11.232a1.956 1.956 0 0 0 -1.124.349 2.835 2.835 0 0 0 -1.113 1.78 3.866 3.866 0 0 0 .338 2.533c.635 1.271 3.618 3.282 4.958 4.1 1.34-.817 4.323-2.829 4.958-4.1a3.866 3.866 0 0 0 .338-2.533 2.837 2.837 0 0 0 -1.113-1.78 2.031 2.031 0 0 0 -1.673-.283c-.427.1-.644.315-1.267.977-.13.138-.269.285-.421.443a1.147 1.147 0 0 1 -1.646 0c-.153-.157-.292-.3-.421-.443-.623-.662-.84-.877-1.267-.977a2.386 2.386 0 0 0 -.548-.066zm0 0" fill="url(#a)" transform="translate(-158.198 -.5)"/><path d="m156.856 303.718a1.15 1.15 0 0 1 -.224-.023 1.188 1.188 0 0 1 -.215-.065 1.239 1.239 0 0 1 -.2-.106 1.107 1.107 0 0 1 -.316-.316 1.243 1.243 0 0 1 -.106-.2 1.187 1.187 0 0 1 -.065-.215 1.156 1.156 0 0 1 .313-1.036 1.16 1.16 0 0 1 .373-.248 1.188 1.188 0 0 1 .215-.065 1.144 1.144 0 0 1 .448 0 1.187 1.187 0 0 1 .215.065 1.16 1.16 0 0 1 .373.248 1.141 1.141 0 0 1 .313 1.036 1.187 1.187 0 0 1 -.065.215 1.242 1.242 0 0 1 -.106.2 1.354 1.354 0 0 1 -.142.174 1.175 1.175 0 0 1 -.174.142 1.238 1.238 0 0 1 -.2.106 1.187 1.187 0 0 1 -.215.065 1.153 1.153 0 0 1 -.222.023zm0 0" fill="url(#a)" transform="translate(-137.856 -266.918)"/><path d="m58.708 145.867a4.933 4.933 0 0 0 -4.936-4.725h-.333v-13.509l.3.22a1.146 1.146 0 0 0 1.825-.924v-5.724a1.145 1.145 0 0 0 -.468-.924l-15.365-11.287a1.146 1.146 0 0 0 -1.358 0l-6.9 5.066v-1.778a1.147 1.147 0 0 0 -1.147-1.147h-4.34a1.147 1.147 0 0 0 -1.147 1.147v6.65l-1.836 1.35a1.147 1.147 0 0 0 -.468.924v2.2c-3.754-1.631-9.251-1.514-12.564-1.244v-1.086a1.147 1.147 0 0 0 -1.147-1.147h-7.677a1.147 1.147 0 0 0 -1.147 1.146v18.289a1.147 1.147 0 0 0 1.147 1.147h7.682a1.147 1.147 0 0 0 1.147-1.147v-2.764h1.669a21.969 21.969 0 0 1 .9 3.866c1.153 6.7 5.228 10.394 11.473 10.394l29.827.008a4.86 4.86 0 0 0 4.859-5zm-7.562-4.725h-6.615v-11.511a1.147 1.147 0 0 0 -1.147-1.147h-8.663a1.147 1.147 0 0 0 -1.147 1.147v2.84l-7.1-6.192 12.58-9.214 12.094 8.884zm-9.046 0a4.832 4.832 0 0 0 -1.681-2.7l-4.552-3.969v-3.692h6.37v10.365zm-14.962-27.713h2.047v2.316l-2.047 1.5zm-2.3 8.358 14.219-10.445 14.219 10.445v2.878l-13.54-9.947a1.147 1.147 0 0 0 -1.357 0l-13.541 9.918zm-17.155 16.431h-5.39v-16h5.39zm48.007 9.575a2.547 2.547 0 0 1 -1.84.777l-29.828-.008c-6.408 0-8.547-4.617-9.213-8.489a31.42 31.42 0 0 0 -.815-3.695c-.223-.725-.638-2.075-1.8-2.075h-2.218v-9.84c3.319-.28 10.446-.535 13.274 2.049l.02.018 15.66 13.652.037.031a2.567 2.567 0 0 1 -3.2 4.013l-13.105-10.626a1.147 1.147 0 0 0 -1.445 1.781l13.108 10.631a4.824 4.824 0 0 0 3.027 1.067 4.959 4.959 0 0 0 .545-.03 4.861 4.861 0 0 0 4.169-3.612h11.7a2.624 2.624 0 0 1 2.643 2.494 2.549 2.549 0 0 1 -.726 1.863zm0 0" fill="#293651" transform="translate(0 -96.357)"/></svg>