<svg height="55.764" viewBox="0 0 56.697 55.764" width="56.697" xmlns="http://www.w3.org/2000/svg" xmlns:xlink="http://www.w3.org/1999/xlink"><linearGradient id="a" gradientUnits="objectBoundingBox" x1=".5" x2=".5" y2="1"><stop offset="0" stop-color="#fe8464"/><stop offset="1" stop-color="#fe6e9a"/></linearGradient><path d="m51 5.833h-1.54v-4.908a.947.947 0 0 0 -.952-.925h-10.08a.968.968 0 0 0 -.98.926v4.907h-18.2v-4.908a.968.968 0 0 0 -.979-.925h-10.08a.947.947 0 0 0 -.957.926v4.907h-1.539a5.665 5.665 0 0 0 -5.693 5.64v38.621a5.691 5.691 0 0 0 5.693 5.669h45.307a5.691 5.691 0 0 0 5.7-5.669v-38.621a5.665 5.665 0 0 0 -5.7-5.64zm-11.685-3.967h8.285v7.35h-8.285zm-30.215 0h8.283v7.35h-8.283zm-3.407 5.834h1.54v2.417a.982.982 0 0 0 .957.966h10.08a1 1 0 0 0 .98-.966v-2.417h18.2v2.417a1 1 0 0 0 .98.966h10.08a.982.982 0 0 0 .957-.966v-2.417h1.533a3.8 3.8 0 0 1 3.827 3.774v3.809h-52.961v-3.81a3.8 3.8 0 0 1 3.827-3.773zm45.307 46.2h-45.307a3.822 3.822 0 0 1 -3.827-3.8v-32.951h52.965v32.945a3.822 3.822 0 0 1 -3.831 3.806zm0 0" fill="#293651"/><g fill="url(#a)"><path d="m173.792 183.478a10.923 10.923 0 0 0 -3.717-7.36l-.714-.632v-1.792a7.332 7.332 0 0 0 -1.554-4.482l-3.421-4.377a.938.938 0 0 0 -1.476 0l-3.428 4.377a7.332 7.332 0 0 0 -1.554 4.482v1.792l-.714.632a10.929 10.929 0 0 0 -3.723 7.36l-.324 3.884a.935.935 0 0 0 .932 1.012.891.891 0 0 0 .427-.109l3.4-1.817v1.424a.952.952 0 0 0 .957.932h.21v2.459a.93.93 0 0 0 .938.925h7.224a.93.93 0 0 0 .938-.925v-2.463h.21a.952.952 0 0 0 .957-.932v-1.423l3.4 1.816a.909.909 0 0 0 .433.109.932.932 0 0 0 .926-1.012zm-14 3.458v-4.436h7.7v4.433zm1.158-16.576 2.685-3.434 2.7 3.434a5.457 5.457 0 0 1 1.161 3.334v6.942h-7.7v-6.942a5.454 5.454 0 0 1 1.158-3.334zm-5.79 15.451.177-2.176a8.959 8.959 0 0 1 2.592-5.635v6.332zm11.164 4.508h-5.366v-1.519h5.366zm3.033-5.987v-6.332a8.955 8.955 0 0 1 2.582 5.634l.189 2.176zm0 0" transform="translate(-135.296 -145.289)"/><path d="m221.506 232.253h.021a2.849 2.849 0 1 0 -.021 0zm0-3.875a1 1 0 1 1 -1 1 1.031 1.031 0 0 1 1-1zm0 0" transform="translate(-193.158 -200.125)"/><path d="m235.933 408.781a.933.933 0 0 0 -.933.933v3.4a.933.933 0 1 0 1.867 0v-3.4a.933.933 0 0 0 -.934-.933zm0 0" transform="translate(-207.585 -361.093)"/><path d="m262.975 409.229a.933.933 0 0 0 -1.6.969l1.035 1.7a.933.933 0 0 0 1.6-.969zm0 0" transform="translate(-230.767 -361.092)"/><path d="m202.336 408.915a.933.933 0 0 0 -1.282.313l-1.034 1.7a.933.933 0 1 0 1.6.969l1.035-1.7a.933.933 0 0 0 -.319-1.282zm0 0" transform="translate(-176.565 -361.091)"/></g></svg>