<svg height="56.196" viewBox="0 0 56.197 56.196" width="56.197" xmlns="http://www.w3.org/2000/svg" xmlns:xlink="http://www.w3.org/1999/xlink"><linearGradient id="a" gradientUnits="objectBoundingBox" x1=".5" x2=".5" y2="1"><stop offset="0" stop-color="#fe8464"/><stop offset="1" stop-color="#fe6e9a"/></linearGradient><path d="m185.1.008h-34.021a1.1 1.1 0 0 0 0 2.2h30.1a4.581 4.581 0 0 0 -.685 2.415v14.371a1.1 1.1 0 1 0 2.2 0v-3.4h5.927a1.1 1.1 0 0 0 1.1-1.1v-9.876a4.615 4.615 0 0 0 -4.621-4.61zm2.415 13.39h-4.825v-8.78a2.415 2.415 0 0 1 4.829 0v8.782z" fill="#293651" transform="translate(-133.519 -.008)"/><path d="m76.931 200.8-7.17-7.17a12.731 12.731 0 1 0 -23.327-1.029l-1.285 1.285-5.284-5.284a1.1 1.1 0 0 0 -1.552 0l-1.235 1.235v-10.017a1.1 1.1 0 1 0 -2.2 0v12.218l-9.924 9.924a1.1 1.1 0 1 0 1.552 1.552l8.372-8.372v7.91h-4.824a1.1 1.1 0 0 0 -1.1 1.1v3.512a4.615 4.615 0 0 0 4.61 4.61h32.93a4.615 4.615 0 0 0 4.61-4.61v-.942a4.077 4.077 0 0 0 2.861 1.155h.021a4.154 4.154 0 0 0 2.945-7.07zm-18.609-23.287a10.537 10.537 0 1 1 -9.256 15.567l6.343-6.343v2.49a1.1 1.1 0 1 0 2.2 0v-5.268a1.1 1.1 0 0 0 -1.1-1.1h-5.27a1.1 1.1 0 0 0 0 2.2h2.746l-5.814 5.814a10.538 10.538 0 0 1 10.152-13.358zm-24.756 32.563a2.417 2.417 0 0 1 -2.415-2.415v-2.415h30.733v1.317c0 .036 0 .071.005.106s-.005.07-.005.106v.885a4.58 4.58 0 0 0 .685 2.415h-29zm35.343-2.415a2.415 2.415 0 1 1 -4.83 0v-.885c0-.036 0-.071-.005-.106s.005-.07.005-.106v-2.415a1.1 1.1 0 0 0 -1.1-1.1h-25.9v-10.1l2.011-2.011 5.284 5.284a1.1 1.1 0 0 0 1.552 0l1.535-1.535a12.722 12.722 0 0 0 16.422 4.813l5.025 5.025zm6.449-2.558a1.956 1.956 0 0 1 -1.383.575h-.01a1.9 1.9 0 0 1 -1.354-.555l-6.792-6.792a12.842 12.842 0 0 0 2.77-2.764l6.789 6.789a1.944 1.944 0 0 1 -.02 2.744z" fill="#293651" transform="translate(-21.933 -156.076)"/><path d="m329.58 281.315a1.1 1.1 0 0 0 -1.1 1.1 5.858 5.858 0 0 1 -5.852 5.852 1.1 1.1 0 1 0 0 2.2 8.056 8.056 0 0 0 8.047-8.047 1.1 1.1 0 0 0 -1.095-1.105z" fill="url(#a)" transform="translate(-286.242 -250.439)"/><path d="m28.111 66.957h-1v-7.357a1.1 1.1 0 0 0 -1.1-1.1h-5.04a1.1 1.1 0 0 0 -1.1 1.1v7.354h-1.761v-11.854a1.1 1.1 0 0 0 -1.1-1.1h-4.827a1.1 1.1 0 0 0 -1.1 1.1v11.857h-1.754v-4.829a1.1 1.1 0 0 0 -1.1-1.1h-4.829a1.1 1.1 0 0 0 -1.1 1.1v4.829h-1.2a1.1 1.1 0 1 0 0 2.2h27.012a1.1 1.1 0 1 0 0-2.2zm-20.977 0h-2.634v-3.731h2.634zm8.78 0h-2.633v-10.757h2.634zm9 0h-2.845v-6.257h2.845z" fill="url(#a)" transform="translate(0 -48.079)"/><g fill="#293651"><path d="m259.591 54.006h-8.5a1.1 1.1 0 0 0 0 2.2h8.5a1.1 1.1 0 0 0 0-2.2z" transform="translate(-222.553 -48.079)"/><path d="m378.791 54.327a1.1 1.1 0 1 0 .322.776 1.106 1.106 0 0 0 -.322-.776z" transform="translate(-335.547 -48.078)"/><path d="m275.221 98h-1.8a1.1 1.1 0 1 0 0 2.2h1.8a1.1 1.1 0 0 0 0-2.2z" transform="translate(-242.434 -87.249)"/></g><path d="m333.978 98h-5.429a1.1 1.1 0 1 0 0 2.2h5.429a1.1 1.1 0 0 0 0-2.2z" fill="url(#a)" transform="translate(-291.51 -87.249)"/><path d="m1.883 440.085a1.1 1.1 0 1 0 .322.776 1.106 1.106 0 0 0 -.322-.776z" fill="url(#a)" transform="translate(-.008 -391.496)"/></svg>