<svg height="60.051" viewBox="0 0 56.694 60.051" width="56.694" xmlns="http://www.w3.org/2000/svg" xmlns:xlink="http://www.w3.org/1999/xlink"><linearGradient id="a" gradientUnits="objectBoundingBox" x1=".5" x2=".5" y2="1"><stop offset="0" stop-color="#fe8464"/><stop offset="1" stop-color="#fe6e9a"/></linearGradient><g transform="translate(-24.877 -11.319)"><path d="m136.488 243.737a.737.737 0 0 0 -.737-.737h-6.015a.736.736 0 0 0 -.737.737v9.943a.736.736 0 0 0 .737.736h6.015a.737.737 0 0 0 .737-.736zm-1.35 9.083h-4.664v-8.347h4.664z" fill="#293651" transform="translate(-91.341 -203.243)"/><path d="m35.488 185.736a.736.736 0 0 0 -.736-.736h-6.016a.736.736 0 0 0 -.736.736v16.939a.736.736 0 0 0 .736.736h6.015a.736.736 0 0 0 .736-.736zm-1.35 16.2h-4.665v-15.463h4.664z" fill="url(#a)" transform="translate(-2.739 -152.362)"/><path d="m50.908 26.16a4.161 4.161 0 0 0 6.9-4.368l4.832-4.428a4.161 4.161 0 1 0 -.451-1.881 2.435 2.435 0 0 0 .011.286l-5.18 4.744a4.163 4.163 0 0 0 -6.931 4.411l-4.989 4.207a4.16 4.16 0 0 0 -6.99-.365l-5.042-3.511a4.172 4.172 0 1 0 -.651 1.341l5.051 3.517a4.165 4.165 0 1 0 8.144.513zm15.441-13.369a2.691 2.691 0 1 1 -2.691 2.691 2.691 2.691 0 0 1 2.691-2.691zm-12.43 7.809a2.691 2.691 0 1 1 -2.691 2.691 2.691 2.691 0 0 1 2.691-2.691zm-24.862 6.232a2.691 2.691 0 1 1 2.691-2.691 2.691 2.691 0 0 1 -2.691 2.691zm12.431 7.058a2.691 2.691 0 1 1 2.691-2.69 2.691 2.691 0 0 1 -2.691 2.69z" fill="#293651"/><path d="m276.6 278.092a12.19 12.19 0 1 0 12.19 12.19 12.19 12.19 0 0 0 -12.19-12.19zm0 22.908a10.717 10.717 0 1 1 10.717-10.717 10.717 10.717 0 0 1 -10.717 10.717z" fill="#293651" transform="translate(-210.129 -234.027)"/><path d="m250.884 131.646v-16.892a.706.706 0 0 0 -.68-.754h-6.071a.752.752 0 0 0 -.736.754v16.956a15.416 15.416 0 0 0 -4.91 2.3v-11.48a.769.769 0 0 0 -.713-.8h-6.074a.762.762 0 0 0 -.7.8v17.92a.662.662 0 0 0 .7.678h1.353a15.517 15.517 0 0 0 -.9 5.176 15.118 15.118 0 1 0 18.727-14.657zm-6.015-16.173h4.542v15.884a13.847 13.847 0 0 0 -2.149-.157 14.28 14.28 0 0 0 -2.392.2zm-12.4 7.733h4.542v12a16.921 16.921 0 0 0 -3.334 4.451h-1.208zm14.818 36.786a13.66 13.66 0 1 1 13.66-13.66 13.66 13.66 0 0 1 -13.66 13.66z" fill="url(#a)" transform="translate(-180.819 -90.077)"/><text fill="#293651" font-family="SegoeUI-Semibold, Segoe UI" font-size="20" font-weight="600" transform="translate(60.877 63.319)"><tspan x="0" y="0">$</tspan></text></g></svg>