<svg height="56.697" viewBox="0 0 58.509 56.697" width="58.509" xmlns="http://www.w3.org/2000/svg" xmlns:xlink="http://www.w3.org/1999/xlink"><linearGradient id="a" gradientUnits="objectBoundingBox" x1=".5" x2=".5" y2="1"><stop offset="0" stop-color="#fe8464"/><stop offset="1" stop-color="#fe6e9a"/></linearGradient><g transform="translate(0 -1.5)"><path d="m56.872 28.27h-5.845a21.837 21.837 0 0 0 -20.165-20.224v-4.909a1.634 1.634 0 0 0 -1.637-1.637 1.6 1.6 0 0 0 -1.637 1.637v4.91a21.837 21.837 0 0 0 -20.165 20.223h-5.845a1.572 1.572 0 0 0 -1.578 1.579 1.634 1.634 0 0 0 1.637 1.637h5.845a21.733 21.733 0 0 0 20.165 20.165v4.91a1.634 1.634 0 0 0 1.637 1.639 1.6 1.6 0 0 0 1.636-1.64v-4.91a21.822 21.822 0 0 0 20.107-20.165h5.845a1.634 1.634 0 0 0 1.637-1.637 1.585 1.585 0 0 0 -1.637-1.578zm-10.462 3.157h1.461a18.733 18.733 0 0 1 -17.009 17.009v-1.812a1.634 1.634 0 0 0 -1.637-1.637 1.6 1.6 0 0 0 -1.637 1.637v1.812a18.683 18.683 0 0 1 -17.008-17.009h1.812a1.634 1.634 0 0 0 1.637-1.637 1.6 1.6 0 0 0 -1.637-1.637h-1.812a18.683 18.683 0 0 1 17.009-17.009v1.812a1.634 1.634 0 0 0 1.637 1.637 1.6 1.6 0 0 0 1.637-1.637v-1.812a18.683 18.683 0 0 1 17.008 17.009h-1.461a1.634 1.634 0 0 0 -1.637 1.637 1.6 1.6 0 0 0 1.637 1.637z" fill="#293651"/><path d="m45.98 39.2h-5.319a1.971 1.971 0 0 1 -1.987-1.987 2 2 0 0 1 1.987-1.987h7.657a1.634 1.634 0 0 0 1.637-1.637 1.6 1.6 0 0 0 -1.637-1.637h-3.04v-1.115a1.634 1.634 0 0 0 -1.636-1.637 1.6 1.6 0 0 0 -1.642 1.637v1.111h-1.4a5.189 5.189 0 0 0 -5.2 5.2 5.214 5.214 0 0 0 5.2 5.2h5.319a1.987 1.987 0 0 1 0 3.975h-7.655a1.634 1.634 0 0 0 -1.637 1.637 1.6 1.6 0 0 0 1.637 1.64h3.8v1.11a1.634 1.634 0 0 0 1.636 1.636 1.6 1.6 0 0 0 1.637-1.637v-1.109h.7a5.214 5.214 0 0 0 5.2-5.2 5.3 5.3 0 0 0 -5.257-5.2z" fill="url(#a)" transform="translate(-14.709 -11.509)"/></g></svg>