<svg height="56.412" viewBox="0 0 54.531 56.412" width="54.531" xmlns="http://www.w3.org/2000/svg" xmlns:xlink="http://www.w3.org/1999/xlink"><linearGradient id="a" gradientUnits="objectBoundingBox" x1=".5" x2=".5" y2="1"><stop offset="0" stop-color="#fe8464"/><stop offset="1" stop-color="#fe6e9a"/></linearGradient><g transform="translate(-.469)"><path d="m223.726 221-2.949-.737a12.769 12.769 0 0 0 -.977-2.351l1.565-2.607a.941.941 0 0 0 -.141-1.149l-2.935-2.939a.94.94 0 0 0 -1.149-.141l-2.607 1.565c-.338-.181-.686-.349-1.041-.5a12.856 12.856 0 0 0 -1.316-.476l-.737-2.949a.94.94 0 0 0 -.912-.713h-4.148a.941.941 0 0 0 -.912.713l-.737 2.949a12.757 12.757 0 0 0 -2.351.977l-2.607-1.565a.94.94 0 0 0 -1.149.141l-2.938 2.935a.94.94 0 0 0 -.141 1.149l1.565 2.607a12.726 12.726 0 0 0 -.977 2.351l-2.949.737a.94.94 0 0 0 -.713.912v4.151a.94.94 0 0 0 .713.912l2.949.737a12.752 12.752 0 0 0 .977 2.351l-1.565 2.607a.94.94 0 0 0 .141 1.149l2.935 2.935a.94.94 0 0 0 1.149.141l2.607-1.565a12.781 12.781 0 0 0 2.351.977l.737 2.949a.941.941 0 0 0 .912.713h4.151a.94.94 0 0 0 .912-.713l.737-2.949a12.781 12.781 0 0 0 2.351-.977l2.607 1.565a.941.941 0 0 0 1.149-.141l2.934-2.935a.94.94 0 0 0 .141-1.149l-1.565-2.607a12.784 12.784 0 0 0 .977-2.351l2.949-.737a.94.94 0 0 0 .713-.912v-4.15a.939.939 0 0 0 -.706-.91zm-1.168 4.328-2.767.692a.939.939 0 0 0 -.685.681 10.892 10.892 0 0 1 -1.2 2.9.942.942 0 0 0 0 .965l1.469 2.445-1.893 1.9-2.445-1.469a.939.939 0 0 0 -.965 0 10.9 10.9 0 0 1 -2.9 1.2.94.94 0 0 0 -.681.685l-.7 2.765h-2.682l-.692-2.767a.941.941 0 0 0 -.681-.685 10.9 10.9 0 0 1 -2.9-1.2.942.942 0 0 0 -.965 0l-2.445 1.469-1.9-1.893 1.474-2.448a.94.94 0 0 0 0-.965 10.9 10.9 0 0 1 -1.2-2.9.941.941 0 0 0 -.685-.681l-2.765-.7v-2.681l2.767-.692a.94.94 0 0 0 .685-.681 10.889 10.889 0 0 1 1.2-2.9.94.94 0 0 0 0-.965l-1.469-2.445 1.893-1.9 2.445 1.469a.939.939 0 0 0 .965 0 10.9 10.9 0 0 1 2.9-1.2.941.941 0 0 0 .681-.685l.7-2.765h2.682l.692 2.767a.94.94 0 0 0 .68.685 10.849 10.849 0 0 1 2.9 1.2.942.942 0 0 0 .966 0l2.444-1.469 1.9 1.893-1.469 2.445a.941.941 0 0 0 0 .965 10.9 10.9 0 0 1 1.2 2.9.94.94 0 0 0 .685.681l2.765.7zm0 0" fill="url(#a)" transform="translate(-169.432 -183.552)"/><path d="m271.992 280a7.523 7.523 0 1 0 7.523 7.523 7.522 7.522 0 0 0 -7.523-7.523zm0 13.164a5.642 5.642 0 1 1 5.642-5.642 5.642 5.642 0 0 1 -5.642 5.642zm0 0" fill="url(#a)" transform="translate(-232.97 -247.089)"/><path d="m368.469 96h1.881v15.045h-1.881zm0 0" fill="#293651" transform="translate(-324.746 -84.716)"/><path d="m4.23 47.956v3.761a.94.94 0 0 0 .94.94h19.747v-1.88h-18.806v-2.821h11.284a.943.943 0 0 0 .42-.094l3.761-1.881a.94.94 0 0 0 0-1.683l-3.761-1.881a.942.942 0 0 0 -.42-.1h-11.284v-31.973h35.732a3.761 3.761 0 0 0 3.757-3.762v-1.882a.94.94 0 0 0 -.94-.94h-2.817v1.882h1.881v.94a1.881 1.881 0 1 1 -3.761 0v-2.821a1.881 1.881 0 0 1 1.881-1.881h3.756a1.881 1.881 0 0 1 1.881 1.881v21.628h1.881v-21.628a3.761 3.761 0 0 0 -3.762-3.761h-41.37a3.761 3.761 0 0 0 -3.761 3.761v2.821a3.761 3.761 0 0 0 3.761 3.762v31.97h-.94a2.821 2.821 0 1 0 0 5.642zm-1.881-41.374v-2.821a1.881 1.881 0 0 1 1.881-1.88h34.37a3.721 3.721 0 0 0 -.523 1.881v2.82a3.721 3.721 0 0 0 .523 1.881h-34.37a1.881 1.881 0 0 1 -1.881-1.881zm16.7 38.553-1.881.94h-.718v-1.88h.718zm-16.7 0a.94.94 0 0 1 .94-.94h11.285v1.881h-11.284a.94.94 0 0 1 -.941-.941zm0 0" fill="#293651"/><path d="m.469 120h1.88v18.806h-1.88zm0 0" fill="#293651" transform="translate(0 -105.895)"/><path d="m100.178 113.873v-1.881h-12.224a.94.94 0 0 0 -.665.275l-1.718 1.718a10.31 10.31 0 0 0 -13.394 1.034.94.94 0 0 0 0 1.329l6.649 6.652a.941.941 0 0 0 .665.277h9.4a.94.94 0 0 0 .94-.94 10.3 10.3 0 0 0 -2.848-7.107l1.356-1.356zm-12.278 7.527h-8.02l-5.672-5.672a8.435 8.435 0 0 1 10.015-.39l-2.576 2.576 1.33 1.33 2.686-2.686a8.43 8.43 0 0 1 2.237 4.842zm0 0" fill="url(#a)" transform="translate(-63.037 -98.828)"/><g fill="#293651"><path d="m328.469 112h1.881v1.881h-1.881zm0 0" transform="translate(-289.447 -98.836)"/><path d="m88.469 232h1.881v1.881h-1.881zm0 0" transform="translate(-77.657 -204.731)"/><path d="m120.469 232h9.4v1.881h-9.4zm0 0" transform="translate(-105.895 -204.731)"/><path d="m72.469 264h15.045v1.881h-15.045zm0 0" transform="translate(-63.537 -232.969)"/><path d="m248.469 144h1.881v1.881h-1.881zm0 0" transform="translate(-218.85 -127.074)"/><path d="m280.469 144h7.523v1.881h-7.523zm0 0" transform="translate(-247.089 -127.074)"/><path d="m248.469 176h11.284v1.881h-11.284zm0 0" transform="translate(-218.85 -155.313)"/><path d="m72.469 296h12.224v1.881h-12.224zm0 0" transform="translate(-63.537 -261.208)"/></g></g></svg>