<svg fill="none" height="260" viewBox="0 0 272 260" width="272" xmlns="http://www.w3.org/2000/svg" xmlns:xlink="http://www.w3.org/1999/xlink"><linearGradient id="a"><stop offset="0" stop-color="#808080" stop-opacity=".251"/><stop offset=".54" stop-color="#808080" stop-opacity=".122"/><stop offset="1" stop-color="#808080" stop-opacity=".102"/></linearGradient><linearGradient id="b" gradientUnits="userSpaceOnUse" x1="121.809" x2="121.809" xlink:href="#a" y1="477.515" y2="461.135"/><linearGradient id="c" gradientUnits="userSpaceOnUse" x1="-42.8011" x2="-42.8011" xlink:href="#a" y1="557.791" y2="541.416"/><linearGradient id="d" gradientUnits="userSpaceOnUse" x1="-40.1463" x2="-40.1463" xlink:href="#a" y1="495.212" y2="484.499"/><linearGradient id="e" gradientUnits="userSpaceOnUse" x1="-8.03576" x2="-8.03576" xlink:href="#a" y1="403.516" y2="392.803"/><linearGradient id="f" gradientUnits="userSpaceOnUse" x1="-115.933" x2="-115.933" xlink:href="#a" y1="301.992" y2="291.279"/><linearGradient id="g" gradientUnits="userSpaceOnUse" x1="67.9608" x2="67.9608" xlink:href="#a" y1="390.938" y2="374.568"/><linearGradient id="h" gradientUnits="userSpaceOnUse" x1="52.8617" x2="52.8617" xlink:href="#a" y1="517.794" y2="480.316"/><linearGradient id="i" gradientUnits="userSpaceOnUse" x1="-75.9835" x2="-75.9835" xlink:href="#a" y1="653.964" y2="575.751"/><linearGradient id="j" gradientUnits="userSpaceOnUse" x1="-59.8519" x2="-59.8519" xlink:href="#a" y1="402.344" y2="364.894"/><linearGradient id="k" gradientUnits="userSpaceOnUse" x1="-110.502" x2="-110.502" xlink:href="#a" y1="458.591" y2="421.103"/><linearGradient id="l" gradientUnits="userSpaceOnUse" x1="8.85526" x2="8.85526" xlink:href="#a" y1="428.869" y2="412.482"/><g opacity=".3"><path d="m250.076 95.8929-.719-.546.19.007-.056-.057.113.057 22.4.928-1.719 7.2161-1.795 6.35-1.226-.936-1.741 2.651z" fill="url(#b)" opacity=".3"/><path d="m269.575 103.23-1.642 5.812-17.893-13.3613 16.95 3.31z" fill="#2768ff" opacity=".3"/><path d="m269.575 103.23-1.642 5.812-17.893-13.3613 16.95 3.31z" fill="#000" opacity=".2"/><g fill="#2768ff"><path d="m271.147 96.6307-21.106-.95 19.535 7.5493z" opacity=".3"/><path d="m265.178 110.593-15-14.9485 18.76 9.3145z" opacity=".3"/></g></g><g opacity=".3"><path d="m71.341 133.975-.726-.553.19.007-.056-.05.113.05 22.4.929-1.719 7.216-1.783 6.351-1.233-.929-1.742 2.644z" fill="url(#c)" opacity=".3"/><path d="m90.836 141.312-1.642 5.805-17.888-13.361 16.942 3.31z" fill="#2768ff" opacity=".3"/><path d="m90.836 141.312-1.642 5.805-17.888-13.361 16.942 3.31z" fill="#000" opacity=".2"/><g fill="#2768ff"><path d="m92.406 134.713-21.1-.957 19.528 7.556z" opacity=".3"/><path d="m86.436 148.676-15-14.956 18.76 9.314z" opacity=".3"/></g></g><g opacity=".5"><path d="m134.834 185.467-.578-.135.113-.05-.042-.014h.084l13.657-5.358.86 4.777.585 4.274-.979-.234-.353 2.048z" fill="url(#d)" opacity=".5"/><path d="m148.435 184.716.529 3.913-14.207-3.275 11.022-2.495z" fill="#2768ff" opacity=".5"/><path d="m148.435 184.716.529 3.913-14.207-3.275 11.022-2.495z" fill="#000" opacity=".2"/><g fill="#2768ff"><path d="m147.652 180.342-12.9 5.011 13.679-.638z" opacity=".5"/><path d="m147.723 190.287-12.9-5 13.672.631z" opacity=".5"/></g></g><g opacity=".5"><path d="m149.898 89.4654-.578-.142.12-.043-.049-.021.084.007 13.665-5.366.853 4.777.585 4.281-.98-.234-.352 2.041z" fill="url(#e)" opacity=".5"/><path d="m163.497 88.7115.536 3.913-14.214-3.275 11.022-2.495z" fill="#2768ff" opacity=".5"/><path d="m163.497 88.7115.536 3.913-14.214-3.275 11.022-2.495z" fill="#000" opacity=".2"/><g fill="#2768ff"><path d="m162.714 84.3447-12.9 5 13.679-.638z" opacity=".5"/><path d="m162.785 94.29-12.9-5 13.679.624z" opacity=".5"/></g></g><g opacity=".2"><path d="m25.568 9.55505-.578-.135.113-.043-.042-.021.085.007 13.664-5.365.853 4.777.585 4.28095-.98-.234-.352 2.041z" fill="url(#f)" opacity=".2"/><path d="m39.1689 8.80727.5361 3.91303-14.215-3.27803 11.022-2.495z" fill="#2768ff" opacity=".2"/><path d="m39.1689 8.80727.5361 3.91303-14.215-3.27803 11.022-2.495z" fill="#000" opacity=".2"/><g fill="#2768ff"><path d="m38.387 4.42969-12.897 5.01 13.679-.638z" opacity=".2"/><path d="m38.461 14.3818-12.9-4.99996 13.671.63096z" opacity=".2"/></g></g><path d="m218.327 18.6771-.8-.418.19-.028-.063-.043.12.035 22.234-2.892-.486 7.407-.7 6.563-1.367-.716-1.268 2.906z" fill="url(#g)"/><path d="m238.78 22.5962-.641 6-19.874-10.125 17.252.383z" fill="#2768ff"/><path d="m238.78 22.5962-.641 6-19.874-10.125 17.252.383z" fill="#000" opacity=".2"/><path d="m239.222 15.8198-20.958 2.651 20.514 4.125z" fill="#2768ff"/><path d="m235.679 30.5972-17.301-12.19 20.056 6z" fill="#2768ff"/><path d="m168.202 130.688-2.072.128.345-.269-.176-.014.282-.071 40.31-31.8892 7.679 15.1112 6.279 13.722-3.517.213.888 7.2z" fill="url(#h)"/><path d="m212.983 114.166 5.729 12.553-50.853 3.537 34.348-19.591z" fill="#2768ff"/><path d="m212.983 114.166 5.729 12.553-50.853 3.537 34.348-19.591z" fill="#000" opacity=".2"/><path d="m206.08 100.48-38.1 29.911 45.123-16.09z" fill="#2768ff"/><path d="m216.278 133.424-48.2-3.558 46.4-11.865z" fill="#2768ff"/><path d="m4.33398 248.191-4.33398.142.733032-.546-.352051-.043.585022-.128 86.144997-64 15.081 32.038 12.241 29.032-7.343.234 1.4 15.076z" fill="url(#i)"/><path d="m98.767 216.797 11.177 26.566-106.371 4.148 72.932-38.714z" fill="#2768ff"/><path d="m98.767 216.797 11.177 26.566-106.371 4.148 72.932-38.714z" fill="#000" opacity=".2"/><path d="m84.976 187.497-81.39995 60.014 95.19395-30.712z" fill="#2768ff"/><path d="m104.314 257.463-100.38004-10.5 97.58304-21.8z" fill="#2768ff"/><path d="m76.072 10.192-1.889-.86505.43-.078-.148-.089.282.071 50.458-9.22899688-.24 16.97604688-.825 15.076-3.207-1.46-2.565 6.783z" fill="url(#j)"/><path d="m123.24 16.7388-.768 13.793-46.5999-20.79998 39.4709-1.162z" fill="#2768ff"/><path d="m123.24 16.7388-.768 13.793-46.5999-20.79998 39.4709-1.162z" fill="#000" opacity=".2"/><path d="m123.457 1.21191-47.583 8.52 47.364 6.99999z" fill="#2768ff"/><path d="m117.095 35.3972-40.951-25.82103 46.526 11.34103z" fill="#2768ff"/><path d="m24.616 65.6579-1.8999-.858.43-.078-.141-.1.2749.071 50.458-9.229-.24 16.976-.8239 15.076-3.206-1.453-2.565 6.776z" fill="url(#k)"/><path d="m71.79 72.0982-.761 13.793-46.6-20.8 39.471-1.162z" fill="#2768ff"/><path d="m71.79 72.0982-.761 13.793-46.6-20.8 39.471-1.162z" fill="#000" opacity=".2"/><path d="m72.016 56.7842-47.583 8.52 47.357 7z" fill="#2768ff"/><path d="m65.645 90.7051-40.945-25.814 46.5189 11.334z" fill="#2768ff"/><path d="m156.815 52.4319-.8-.418.183-.028-.056-.043.12.035 22.227-2.892-.479 7.407-.7 6.563-1.367-.709-1.268 2.9z" fill="url(#l)"/><path d="m177.27 56.3081-.641 6-19.874-10.125 17.252.383z" fill="#2768ff"/><path d="m177.27 56.3081-.641 6-19.874-10.125 17.252.383z" fill="#000" opacity=".2"/><g fill="#2768ff"><path d="m177.706 49.6128-20.958 2.644 20.514 4.125z"/><path d="m174.18 64.3018-17.301-12.191 20.056 6z"/></g></svg>