<svg fill="none" height="260" viewBox="0 0 273 260" width="273" xmlns="http://www.w3.org/2000/svg" xmlns:xlink="http://www.w3.org/1999/xlink"><linearGradient id="a"><stop offset="0" stop-color="#808080" stop-opacity=".251"/><stop offset=".54" stop-color="#808080" stop-opacity=".122"/><stop offset="1" stop-color="#808080" stop-opacity=".102"/></linearGradient><linearGradient id="b" gradientUnits="userSpaceOnUse" x1="150.195" x2="150.195" xlink:href="#a" y1="477.514" y2="461.134"/><linearGradient id="c" gradientUnits="userSpaceOnUse" x1="314.806" x2="314.806" xlink:href="#a" y1="557.79" y2="541.415"/><linearGradient id="d" gradientUnits="userSpaceOnUse" x1="312.15" x2="312.15" xlink:href="#a" y1="495.211" y2="484.498"/><linearGradient id="e" gradientUnits="userSpaceOnUse" x1="280.043" x2="280.043" xlink:href="#a" y1="403.723" y2="393.003"/><linearGradient id="f" gradientUnits="userSpaceOnUse" x1="387.909" x2="387.909" xlink:href="#a" y1="301.991" y2="291.279"/><linearGradient id="g" gradientUnits="userSpaceOnUse" x1="204.016" x2="204.016" xlink:href="#a" y1="390.938" y2="374.568"/><linearGradient id="h" gradientUnits="userSpaceOnUse" x1="219.149" x2="219.149" xlink:href="#a" y1="517.748" y2="480.274"/><linearGradient id="i" gradientUnits="userSpaceOnUse" x1="347.987" x2="347.987" xlink:href="#a" y1="653.989" y2="575.772"/><linearGradient id="j" gradientUnits="userSpaceOnUse" x1="331.856" x2="331.856" xlink:href="#a" y1="402.342" y2="364.892"/><linearGradient id="k" gradientUnits="userSpaceOnUse" x1="382.517" x2="382.517" xlink:href="#a" y1="458.595" y2="421.107"/><linearGradient id="l" gradientUnits="userSpaceOnUse" x1="263.123" x2="263.123" xlink:href="#a" y1="428.869" y2="412.482"/><g opacity=".3"><path d="m21.928 95.8919.719-.546-.19.007.056-.057-.113.057-22.4.928 1.71899 7.2161 1.79502 6.35 1.22598-.936 1.741 2.651z" fill="url(#b)" opacity=".3"/><path d="m2.42798 103.229 1.642 5.812 17.89302-13.3613-16.94902 3.31z" fill="#2768ff" opacity=".3"/><path d="m2.42798 103.229 1.642 5.812 17.89302-13.3613-16.94902 3.31z" fill="#000" opacity=".2"/><g fill="#2768ff"><path d="m.856995 96.6297 21.106005-.95-19.53499 7.5493z" opacity=".3"/><path d="m6.82498 110.592 15.00002-14.9484-18.76 9.3144z" opacity=".3"/></g></g><g opacity=".3"><path d="m200.664 133.974.726-.553-.19.007.056-.05-.113.05-22.4.929 1.72 7.216 1.783 6.351 1.233-.929 1.738 2.644z" fill="url(#c)" opacity=".3"/><path d="m181.171 141.311 1.642 5.805 17.888-13.361-16.942 3.31z" fill="#2768ff" opacity=".3"/><path d="m181.171 141.311 1.642 5.805 17.888-13.361-16.942 3.31z" fill="#000" opacity=".2"/><g fill="#2768ff"><path d="m179.6 134.712 21.1-.957-19.528 7.556z" opacity=".3"/><path d="m185.569 148.675 15-14.956-18.76 9.314z" opacity=".3"/></g></g><g opacity=".5"><path d="m137.17 185.466.578-.135-.113-.05.042-.014h-.084l-13.657-5.358-.86 4.777-.585 4.274.979-.234.353 2.048z" fill="url(#d)" opacity=".5"/><path d="m123.57 184.715-.529 3.913 14.207-3.275-11.022-2.495z" fill="#2768ff" opacity=".5"/><path d="m123.57 184.715-.529 3.913 14.207-3.275-11.022-2.495z" fill="#000" opacity=".2"/><g fill="#2768ff"><path d="m124.351 180.341 12.9 5.011-13.679-.638z" opacity=".5"/><path d="m124.281 190.286 12.9-5-13.672.631z" opacity=".5"/></g></g><g opacity=".5"><path d="m122.109 89.4664.578-.142-.12-.043.049-.021-.084.007-13.665-5.366-.853 4.777-.585 4.288.98-.234.352 2.041z" fill="url(#e)" opacity=".5"/><path d="m108.508 88.7125-.536 3.913 14.214-3.275-11.022-2.495z" fill="#2768ff" opacity=".5"/><path d="m108.508 88.7125-.536 3.913 14.214-3.275-11.022-2.495z" fill="#000" opacity=".2"/><g fill="#2768ff"><path d="m109.289 84.3447 12.9 5-13.679-.638z" opacity=".5"/><path d="m109.219 94.29 12.9-5-13.679.624z" opacity=".5"/></g></g><g opacity=".2"><path d="m246.436 9.55407.578-.135-.113-.043.042-.021-.085.007-13.661-5.365-.853 4.777-.585 4.28103.98-.234.352 2.041z" fill="url(#f)" opacity=".2"/><path d="m232.836 8.80629-.536 3.91301 14.214-3.27501-11.022-2.498z" fill="#2768ff" opacity=".2"/><path d="m232.836 8.80629-.536 3.91301 14.214-3.27501-11.022-2.498z" fill="#000" opacity=".2"/><g fill="#2768ff"><path d="m233.617 4.42871 12.9 5.011-13.679-.638z" opacity=".2"/><path d="m233.547 14.3809 12.9-5.00004-13.675.62604z" opacity=".2"/></g></g><path d="m53.677 18.6771.8-.418-.19-.028.063-.043-.12.035-22.23-2.892.486 7.407.7 6.563 1.367-.716 1.268 2.906z" fill="url(#g)"/><path d="m33.225 22.5957.641 6 19.874-10.125-17.252.383z" fill="#2768ff"/><path d="m33.225 22.5957.641 6 19.874-10.125-17.252.383z" fill="#000" opacity=".2"/><path d="m32.782 15.8203 20.958 2.651-20.514 4.125z" fill="#2768ff"/><path d="m36.326 30.5973 17.3-12.1911-20.0561 6z" fill="#2768ff"/><path d="m103.803 130.688 2.072.128-.345-.269.176-.014-.282-.071-40.31-31.8888-7.6821 15.1118-6.2789 13.717 3.517.213-.888 7.2z" fill="url(#h)"/><path d="m59.022 114.165-5.729 12.553 50.853 3.537-34.349-19.591z" fill="#2768ff"/><path d="m59.022 114.165-5.729 12.553 50.853 3.537-34.349-19.591z" fill="#000" opacity=".2"/><path d="m65.928 100.479 38.1 29.911-45.123-16.09z" fill="#2768ff"/><path d="m55.727 133.424 48.2-3.558-46.4-11.865z" fill="#2768ff"/><path d="m267.67 248.191 4.334.142-.733-.546.352-.043-.585-.128-86.145-64-15.081 32.038-12.241 29.036 7.343.234-1.4 15.076z" fill="url(#i)"/><path d="m173.237 216.796-11.177 26.568 106.371 4.146-72.931-38.714z" fill="#2768ff"/><path d="m173.237 216.796-11.177 26.568 106.371 4.146-72.931-38.714z" fill="#000" opacity=".2"/><path d="m187.028 187.497 81.4 60.014-95.191-30.712z" fill="#2768ff"/><path d="m167.691 257.462 100.381-10.5-97.583-21.8z" fill="#2768ff"/><path d="m195.932 10.192 1.889-.865-.43-.078.148-.089-.282.071-50.458-9.231.24 16.976.825 15.076 3.207-1.46 2.565 6.783z" fill="url(#j)"/><path d="m148.764 16.7393.768 13.793 46.6-20.79996-39.475-1.163z" fill="#2768ff"/><path d="m148.764 16.7393.768 13.793 46.6-20.79996-39.475-1.163z" fill="#000" opacity=".2"/><path d="m148.547 1.21191 47.583 8.52-47.365 6.99999z" fill="#2768ff"/><path d="m154.904 35.3962 40.956-25.821-46.526 11.341z" fill="#2768ff"/><path d="m247.388 65.6578 1.9-.858-.43-.078.141-.1-.275.071-50.462-9.225.24 16.976.824 15.076 3.206-1.453 2.565 6.776z" fill="url(#k)"/><path d="m200.214 72.0977.761 13.793 46.6-20.8-39.471-1.162z" fill="#2768ff"/><path d="m200.214 72.0977.761 13.793 46.6-20.8-39.471-1.162z" fill="#000" opacity=".2"/><path d="m199.988 56.7832 47.583 8.52-47.357 7z" fill="#2768ff"/><path d="m206.359 90.7037 40.945-25.8141-46.519 11.334z" fill="#2768ff"/><path d="m115.189 52.4319.8-.418-.183-.028.056-.043-.12.035-22.223-2.892.479 7.407.7 6.563 1.367-.709 1.268 2.9z" fill="url(#l)"/><path d="m94.735 56.3076.641 6 19.874-10.125-17.252.383z" fill="#2768ff"/><path d="m94.735 56.3076.641 6 19.874-10.125-17.252.383z" fill="#000" opacity=".2"/><g fill="#2768ff"><path d="m94.298 49.6133 20.958 2.644-20.514 4.125z"/><path d="m97.825 64.3023 17.3-12.191-20.056 6z"/></g></svg>