<svg fill="none" height="225" viewBox="0 0 321 225" width="321" xmlns="http://www.w3.org/2000/svg" xmlns:xlink="http://www.w3.org/1999/xlink"><linearGradient id="a" gradientUnits="userSpaceOnUse" x1="160.87" x2="160.87" y1="203.288" y2="70.2734"><stop offset="0" stop-color="#808080" stop-opacity=".251"/><stop offset=".54" stop-color="#808080" stop-opacity=".122"/><stop offset="1" stop-color="#808080" stop-opacity=".102"/></linearGradient><path d="m151.063 80.272 28.832-8.612c5.976 2.8816 12.526 4.3735 19.16 4.364 22.553 0 40.9-16.828 40.9-37.513s-18.348-37.512953-40.9-37.512953-40.9 16.827953-40.9 37.512953c.055 5.2716 1.259 10.4678 3.528 15.2261 2.27 4.7583 5.551 8.9641 9.613 12.324z" fill="#f97c14"/><g fill="#fff"><path d="m217.551 47.0158c3.5 0 6.337-2.8372 6.337-6.337s-2.837-6.337-6.337-6.337-6.337 2.8372-6.337 6.337 2.837 6.337 6.337 6.337z"/><path d="m199.117 47.0158c3.5 0 6.337-2.8372 6.337-6.337s-2.837-6.337-6.337-6.337-6.337 2.8372-6.337 6.337 2.837 6.337 6.337 6.337z"/><path d="m180.683 47.0158c3.5 0 6.337-2.8372 6.337-6.337s-2.837-6.337-6.337-6.337-6.337 2.8372-6.337 6.337 2.837 6.337 6.337 6.337z"/></g><path d="m14.568 79.7021c.518 3.261 1.843 6.41 1.855 9.707.043 10.7749-13.14601 17.3929-15.16501 27.9799-1.2000039 6.281 1.907 12.7 6.285 17.385 4.37801 4.685 9.96001 8.063 15.10001 11.917 14.1993 10.651 25.1658 25.031 31.68 41.542 1.3855 3.28 2.3222 6.731 2.785 10.261.268 2.57.141 5.2.749 7.709 2.405 9.962 14.6 13.827 24.912 14.473 16.5997 1.023 33.215-1.728 48.6-8.046 3.456-1.428 7.025-3.049 10.735-2.647 2.967.323 5.614 1.913 8.217 3.36 7.673 4.268 15.832 7.599 24.3 9.919 4.695 1.285 9.623 2.261 14.419 1.428 14.4-2.518 22.054-19.832 36.185-23.618 9.776-2.618 19.949 1.956 28.717 6.978s17.818 10.807 27.939 10.821c13.5.017 24.6-10.113 33.763-19.946 1.921-2.064 3.874-4.223 4.79-6.881 1.858-5.4-1.152-11.458-5.6-15.084s-10.061-5.425-15.421-7.5c-9.079-3.51-17.749-7.998-25.856-13.385-5.242-3.483-10.32-7.423-13.906-12.563-3.085-4.431-4.937-9.568-7-14.547-4.534-10.9-10.945-21.985-21.651-27.1-8.742-4.1799-18.895-3.7119-28.6-3.8229-14.3-.157-28.958-1.862-41.635-8.417-10.706-5.536-19.5-14.276-30.364-19.509-17.282-8.317-37.038-6.687-55.659-6.373-8.949.151-19.586 1.036-28.181-1.87-6.357-2.15-9.629-6.544-16.93-4.774-4.8573 1.2451-9.0827 4.2421-11.8634 8.4147-2.7807 4.1727-3.9203 9.2261-3.1996 14.1883z" fill="#2768ff" opacity=".1"/><path d="m279.33 153.268c-.452-1.5-.405-3.107.135-4.577.864-2.239 2.97-3.855 3.71-6.143 1.377-4.25-2.333-8.23-4.608-12.082-2.087-3.576-3.033-7.704-2.71-11.831.354-4.432 2.166-8.671 2.3-13.115.124-4.141-1.215-8.1692-2.538-12.0932-.961-3.2871-2.321-6.4439-4.05-9.4-1.798-2.6781-4.176-4.9168-6.958-6.5498-2.782-1.6331-5.896-2.6185-9.111-2.8832-3.01-.268-5.954.713-8.912.329-4.107-.531-7.99-1.6-12.178-1.731-3.978-.118-8.376.387-11.086 3.307-2.071 2.236-2.733 5.465-4.629 7.855-2.69 3.391-7.394 4.553-10.369 7.693-1.286 1.3887-2.189 3.0879-2.619 4.9309-.431 1.843-.375 3.7663.162 5.5813.412 1.339 1.086 2.583 1.524 3.913 1.84 5.558-.576 11.5-2.036 17.169-.164.463-.194.963-.086 1.443.23.693.956 1.056 1.558 1.466.947.732 1.722 1.663 2.269 2.728.548 1.065.855 2.236.899 3.433.067 2.391-.237 4.779-.9 7.078-1.38 5.913-3.1 12.246-7.653 16.179-.826-1.972-1.802-3.878-2.921-5.7-2.964-4.625-4.647-9.953-4.876-15.441-.002-.016-.002-.033 0-.049 0-.289.014-.577.032-.866.36-6.3 3.079-12.382 3.019-18.655 0-.508-.014-1.017-.043-1.526-.354-5.37-2.929-10.336-5.882-14.8322-2.1-3.4309-4.759-6.4867-7.866-9.041-4.917-3.748-11.164-5.376-17.3-6.236s-11.723-1.668-17.91-2.083c-6.653-.447-13.975-.7-19.235 3.4-6.858 5.35-7.238 15.6832-12.466 22.6372-3.111 4.138-8.065 7.335-9.7 12.036-.443-1.154-.813-2.335-1.106-3.535l-.052-.24c1.977-5.673 2.437-11.763 1.334-17.6682.131-.9565.197-1.9207.2-2.886.032-1.0503-.081-2.0999-.337-3.119-.74-2.811-2.782-5.058-4.755-7.191-.718-.814-1.498-1.5712-2.3329-2.265-5.1678-6.2622-12.3945-10.482-20.388-11.9049s-16.2325.0439-23.2438 4.1382c-7.0112 4.0943-12.3375 10.549-15.0264 18.21-2.689 7.6609-2.5652 16.0289.3492 23.6069-.1991 1.974-1.0469 3.827-2.411 5.269-.637.632-1.46 1.423-1.322 2.231-.0429.23-.0106.467.092.678.1415.251.3385.468.576.632 2.0139 1.542 4.524 2.292 7.054 2.107 2.132 6.281 6.3159 11.662 11.878 15.276 0 .192-.0067.379-.02.56 0 .32-.026.638-.04.961v.133c0-.029-10.029 13.1-19.3 13.585-4.948.26-9.266 3.6-12.538 7.427-3.929 4.588-6.354 9.863-6.561 11.323-.383 2.678-3.056 15.692-3.056 15.692h77c-.91 4.686-2.137 10.656-2.137 10.656h124.6589c-.288-4.014-.608-7.725-.9-10.867h15.669l-.017.1h72.3l4.585-6.894c-1.144-20.092-12.968-31.135-27.119-32.359zm-179.9889-22.438c1.6259.876 3.3739 1.507 5.1849 1.87.772.247 1.611.183 2.336-.179.445-.337.774-.804.942-1.336l.035.087c1.944 4.905 3.744 9.967 4.093 15.236.032.5.052.993.055 1.492.008 3.005-.611 5.979-1.817 8.732-6.513-3.431-12.7929-7.287-18.7999-11.542l-.406-.173c0 .032.141.392.308 1 .04.147.084.309.127.482-.412-1.333-.786-2.7-1.115-4.083l-.112-.493c3.9231-2.886 7.0727-6.697 9.169-11.093z" fill="url(#a)"/><path d="m233.261 74.209c-3.914-.118-8.246.381-10.911 3.255-2.039 2.2-2.69 5.379-4.557 7.73-2.647 3.339-7.276 4.481-10.208 7.572-1.266 1.367-2.155 3.0397-2.579 4.8539-.424 1.8143-.369 3.7071.16 5.4941.406 1.316 1.069 2.542 1.5 3.849 1.812 5.483-.553 11.32-2.016 16.9-.163.457-.192.952-.083 1.425.225.681.942 1.039 1.532 1.443.931.719 1.692 1.636 2.228 2.683.536 1.048.834 2.201.872 3.377.059 2.353-.239 4.702-.884 6.966-1.414 6.06-3.2 12.584-8.111 16.4-2.074 1.63-4.845 2.952-5.386 5.549-.634 3.041 2.264 5.627 5.043 7 8.16 4.04 17.633 4.1 26.559 5.9 7.86 1.587 15.7 4.594 23.656 3.567 3.53-.591 6.982-1.579 10.291-2.943l20.894-7.713c.59-.181 1.146-.461 1.642-.828 1.259-1.05 1.3-3.047.616-4.539-.811-1.429-1.83-2.729-3.024-3.858-2.385-2.675-4.2-6.452-2.9-9.794.864-2.2 2.923-3.795 3.652-6.06 1.354-4.184-2.3-8.1-4.522-11.894-2.052-3.516-2.982-7.574-2.667-11.632.349-4.363 2.131-8.536 2.261-12.91.121-4.074-1.2-8.039-2.5-11.9-.946-3.2368-2.284-6.3456-3.986-9.257-1.771-2.6359-4.112-4.8394-6.851-6.4469-2.738-1.6075-5.803-2.5779-8.968-2.8391-2.964-.263-5.858.7-8.771.326-4.036-.501-7.861-1.552-11.982-1.676z" fill="#f7d6c8"/><path d="m239.104 188.711s-23.687-14.878-14.478-32.033c1.899-3.427 3.014-7.232 3.266-11.141.051-.903.051-1.807 0-2.71v-.13c-.031-.467-.072-.925-.124-1.374-.747-5.565-3.152-10.776-6.9-14.956 0 0 39.29-11.487 32.711-1.131-3.053 4.807-2.14 9.522-.1 14.4.216.514.446 1.033.686 1.55 2.362 5.145 5.64 10.475 6.556 16.254 1.881 11.872-21.617 31.271-21.617 31.271z" fill="#efb7b9"/><path d="m253.578 125.241c-3.053 4.807-2.14 9.522-.1 14.4-3.788 2.448-8.139 3.89-12.64 4.187-4.501.298-9.003-.558-13.081-2.487-.743-5.57-3.147-10.786-6.9-14.968 0 0 39.302-11.491 32.721-1.132z" fill="#000" opacity=".1"/><path d="m239.101 143.322c14.639 0 26.507-11.89 26.507-26.556 0-14.667-11.868-26.556-26.507-26.556s-26.507 11.889-26.507 26.556c0 14.666 11.868 26.556 26.507 26.556z" fill="#efb7b9"/><path d="m227.894 142.843v-.13l.032-.052c-.017.059-.028.121-.032.182z" fill="#000" opacity=".1"/><path d="m239.104 188.71s-23.687-14.878-14.476-32.03c1.899-3.427 3.014-7.232 3.266-11.141.539 4.236 3.456 9.5 8.768 16.791 2.3 3.174 3.3 7.612 3.609 12.047l.527.384 2.592-1.57c.288-4.905 1.279-9.863 3.623-13.378 6.161-9.234 7.624-13.851 7.169-18.635 2.362 5.145 5.64 10.475 6.556 16.255 1.864 11.877-21.634 31.277-21.634 31.277z" fill="#000" opacity=".1"/><path d="m277.078 152.974c-14.113-1.027-23.042-12-23.042-12 .752 5.142-.469 9.745-7.051 19.622-2.33 3.5-3.318 8.452-3.606 13.369l-2.592 1.565-.527-.384c-.314-4.432-1.3-8.876-3.609-12.047-6.579-9.041-9.505-14.973-8.742-19.683 0 0-7.238 11.77-21.337 12.714s-25.943 10.925-27.075 29.193l4.511 6.216h44.492l-.017.1h71.143l4.528-6.79c-1.133-19.949-12.967-30.848-27.076-31.875z" fill="#ff2768"/><path d="m257.023 103.931c-1.262 2.822-3.114 5.341-5.432 7.387-3.088 2.929-6.97 5.509-11.216 5.309 2.315-2.162 3.991-4.919 4.842-7.97-2.679 1.564-4.7 4.04-7.261 5.8s-6.172 2.672-8.673.831c4.543-2.289 8.315-5.86 10.85-10.27-6.072 1.578-9.188 8.429-14.658 11.5-2.612 1.386-5.546 2.05-8.5 1.922-2.088-.043-4.415-.531-5.579-2.268-.615-1.061-.914-2.275-.864-3.5.024-5.587 2.001-10.99 5.588-15.2731 3.578-4.2401 8-7.6883 12.984-10.125 1.718-.9731 3.586-1.6557 5.527-2.02 2.449-.2125 4.915.0293 7.276.713 3.118.6117 6.156 1.58 9.053 2.886 6.08 3.022 8.736 8.487 6.063 15.0781z" fill="#000" opacity=".1"/><path d="m257.023 103.553c-1.262 2.822-3.114 5.341-5.432 7.387-3.088 2.929-6.97 5.509-11.216 5.309 2.315-2.161 3.991-4.919 4.842-7.97-2.679 1.564-4.7 4.04-7.261 5.8s-6.172 2.672-8.673.831c4.543-2.289 8.315-5.86 10.85-10.27-6.072 1.578-9.188 8.429-14.658 11.5-2.612 1.386-5.546 2.05-8.5 1.922-2.088-.043-4.415-.531-5.579-2.268-.615-1.061-.914-2.275-.864-3.5.024-5.587 2.001-10.99 5.588-15.273 3.578-4.2401 8-7.6883 12.984-10.125 1.718-.9732 3.586-1.6557 5.527-2.02 2.449-.2125 4.915.0292 7.276.713 3.118.6116 6.156 1.58 9.053 2.886 6.08 3.016 8.736 8.487 6.063 15.078z" fill="#f7d6c8"/><path d="m74.2509 138.727c18.5844 0 33.6501-15.094 33.6501-33.712 0-18.6189-15.0657-33.7123-33.6501-33.7123s-33.65 15.0934-33.65 33.7123c0 18.618 15.0656 33.712 33.65 33.712z" fill="#c3705a"/><path d="m104.424 169.894s-30.8191 7.909-31.5821 8.657-25.943 2.076-18.609-13.368c2.693-5.67 3.814-13.372 4.153-20.848.014-.317.029-.632.04-.946.2383-8.072-.1575-16.151-1.184-24.161 0 0 35.716-14.139 33.086 7.347-.5731 5.277-.2075 10.614 1.08 15.764.4 1.685.8641 3.333 1.3831 4.931 2.7085 8.087 6.631 15.716 11.633 22.624z" fill="#ecb4b6"/><path d="m91.4029 142.343c-4.7343 3.518-10.4312 5.504-16.3265 5.692-5.8954.188-11.7071-1.432-16.6555-4.642.2383-8.072-.1576-16.151-1.184-24.161 0 0 35.716-14.139 33.086 7.347-.5705 5.277-.2049 10.614 1.08 15.764z" fill="#000" opacity=".1"/><path d="m74.1559 147.483c15.9886 0 28.9501-12.985 28.9501-29.003s-12.9615-29.0029-28.9501-29.0029c-15.9887 0-28.95 12.9849-28.95 29.0029s12.9613 29.003 28.95 29.003z" fill="#ecb4b6"/><path d="m104.424 169.897s-30.8191 7.909-31.5821 8.657-25.943 2.072-18.609-13.372c2.693-5.67 3.814-13.372 4.153-20.848.288 3.907 2.517 13.369 2.8 16.517.0181.184.0546.365.109.542.418 1.4 1.907 3.013 3.7 4.542l.107.089c2.2305 1.875 5.0004 2.991 7.9081 3.186 2.9076.195 5.8015-.542 8.2619-2.104 2.5621-1.617 5.0208-3.392 7.362-5.315 1.4186-1.211 2.5579-2.715 3.3396-4.409.7816-1.694 1.1871-3.537 1.1884-5.402.0538-1.585-.0716-3.17-.374-4.727 2.7069 8.095 6.6306 15.73 11.6361 22.644z" fill="#000" opacity=".1"/><path d="m143.341 191.747h-125.777s2.633-12.806 3.007-15.444c.2-1.443 2.592-6.637 6.46-11.147 3.22-3.751 7.469-7.055 12.339-7.312 9.116-.479 18.987-13.372 18.987-13.372.219 3.751 2.529 13.548 2.82 16.762.0181.184.0546.366.109.542.418 1.4 1.907 3.013 3.7 4.542l.107.089c2.23 1.877 4.9999 2.994 7.9078 3.189s5.8024-.541 8.2632-2.103c2.5616-1.618 5.0203-3.393 7.362-5.315 1.4186-1.211 2.5579-2.715 3.3396-4.409.7816-1.694 1.1871-3.536 1.1884-5.402.0662-2.19-.1988-4.378-.786-6.49-.0851-.333-.1869-.661-.305-.984l.4.17s17.031 12.408 32.634 17.481c1.829.598 3.554 1.475 5.115 2.6 1.265.916 2.43 1.964 3.474 3.125 2.113 2.394 3.86 5.086 5.185 7.99 2.244 4.915 3.75 10.134 4.47 15.488z" fill="#2768ff"/><path d="m88.0729 108.741c.749 2.886 1.728 6.091 4.3 7.595.3448.165.6624.382.942.643.634.69.441 1.766.346 2.7-.1152 1.613.1208 3.231.6918 4.744.5709 1.512 1.4632 2.883 2.6152 4.017 2.3312 2.255 5.2781 3.769 8.4681 4.351.76.242 1.585.179 2.3-.176.45-.342.78-.818.945-1.359.731-2.411.651-4.996-.228-7.358-.734-2.389-1.817-4.669-2.373-7.107-1.322-5.786.429-11.765 1.218-17.6479.354-1.9474.324-3.9452-.089-5.881-.729-2.764-2.739-4.981-4.681-7.078-.984-1.1827-2.151-2.2005-3.4561-3.015-3.958-2.167-9.053-.242-13.278-1.821-1.6252-.7802-3.2069-1.6482-4.738-2.6-3.5158-1.6005-7.4691-1.9666-11.219-1.039-3.7174.9301-7.3184 2.2755-10.735 4.011l-2.659 1.206c-3.744 1.731-7.757 3.688-9.773 7.309-2.146 3.855-1.55 8.789-3.7 12.6449-.651 1.154-1.558 2.262-1.728 3.59-.0429.968.1108 1.935.452 2.842.7556 2.233 1.1605 4.569 1.2 6.925.0279 2.377-.8543 4.675-2.466 6.423-.7.7-1.642 1.593-1.21 2.484.1417.249.3388.462.576.623 1.3664 1.04 2.9735 1.718 4.6721 1.97 1.6985.252 3.4333.071 5.0429-.527 1.2869-.438 2.3981-1.28 3.168-2.4.4751-.835.8191-1.738 1.02-2.678 1.0692-3.356 1.6597-6.847 1.754-10.368-.2051-2.013-.2436-4.04-.115-6.06.294-2 1.46-4.066 3.4-4.617 1.44-.413 2.981.087 4.485.072 2.166-.017 4.822-2.4239 6.829-1.7169 1.728.6119 3.1 3.9239 4.525 5.1939 1.8021 1.647 3.9492 2.87 6.2846 3.58 2.3353.71 4.7998.889 7.2134.525z" fill="#000" opacity=".1"/><path d="m88.0731 108.363c.749 2.886 1.728 6.091 4.3 7.595.3396.162.653.374.93.629.634.69.441 1.766.346 2.7-.1152 1.613.1208 3.231.6917 4.744.5709 1.512 1.4632 2.883 2.6153 4.017 2.3311 2.255 5.2779 3.769 8.4679 4.351.761.242 1.585.179 2.3-.176.45-.342.781-.818.945-1.359.731-2.412.651-4.996-.228-7.358-.734-2.389-1.817-4.669-2.373-7.107-1.322-5.786.429-11.764 1.218-17.648.354-1.9474.324-3.9452-.089-5.881-.729-2.764-2.739-4.98-4.68-7.078-.984-1.1826-2.151-2.2004-3.4559-3.015-3.958-2.167-9.053-.242-13.278-1.821-1.6253-.7802-3.2069-1.6482-4.738-2.6-3.5158-1.6005-7.4691-1.9666-11.219-1.039-3.7175.9301-7.3185 2.2756-10.735 4.011l-2.624 1.212c-3.744 1.731-7.757 3.688-9.773 7.309-2.146 3.855-1.55 8.789-3.7 12.645-.651 1.154-1.558 2.262-1.728 3.59-.0396.97.1183 1.938.464 2.845.7556 2.232 1.1604 4.569 1.2 6.925.0278 2.377-.8544 4.675-2.466 6.423-.7.7-1.642 1.593-1.21 2.484.1416.249.3387.462.576.623 1.3663 1.04 2.9735 1.718 4.672 1.97s3.4333.071 5.043-.527c1.2869-.438 2.398-1.28 3.168-2.4.475-.835.819-1.738 1.02-2.678 1.0691-3.356 1.6596-6.847 1.754-10.368-.2052-2.013-.2436-4.04-.115-6.06.294-2 1.46-4.066 3.4-4.617 1.44-.413 2.981.087 4.485.072 2.166-.017 4.822-2.424 6.829-1.717 1.728.612 3.1 3.924 4.525 5.194 1.793 1.649 3.9336 2.875 6.2635 3.586 2.33.711 4.79.89 7.1985.524z" fill="#c3705a"/><path d="m184.512 120.681h-65.988v56.69h65.988z" fill="#463a3e"/><path d="m184.512 120.681h-65.988v56.69h65.988z" fill="#000" opacity=".05"/><path d="m175.05 202.234h-56.454c.729-4.118 2.86-8.631 7.014-13.5 3.28-3.826 5.962-8.126 7.955-12.754.533-1.237 1.013-2.477 1.44-3.72 1.248-3.691 2.097-7.504 2.532-11.375.007-.11.019-.22.037-.329.291-2.676.408-5.367.351-8.057v-.577c-.201-6.601-1.291-13.145-3.24-19.455l-.072-.225c-.614-1.936-1.063-3.024-1.063-3.024s1.12-.609 2.97-1.506l.156-.075c6.8-3.272 22.9-10.1 30-5.234l.115.078c2.483 1.772 3.819 5.024 3.191 10.44v.063c-.006.097-.016.193-.032.289-.38 3.733-.56 7.483-.539 11.236v.577c0 .879.01 1.77.029 2.672v.364c.058 2.914.187 5.924.369 8.977.25 4.233.608 8.544 1.02 12.774.176 1.809.366 3.607.576 5.376.023.208.046.421.069.626.242 2.156.493 4.268.749 6.317l.017.133c.975 8.142 2.058 15.246 2.81 19.909z" fill="#c17174"/><path d="m169.954 132.936v.063c-.406 3.834-.598 7.687-.576 11.542v.577c-3.786 4.406-8.872 7.498-14.527 8.829-5.654 1.332-11.586.835-16.94-1.419v-.577c-.203-6.68-1.317-13.301-3.312-19.68-.613-1.936-1.063-3.024-1.063-3.024s1.12-.609 2.97-1.506c6.734-3.261 23.166-10.3 30.257-5.246 2.48 1.773 3.816 5.025 3.191 10.441z" fill="#000" opacity=".1"/><path d="m148.571 154.093c15.163 0 27.455-12.314 27.455-27.505s-12.292-27.505-27.455-27.505-27.455 12.314-27.455 27.505 12.292 27.505 27.455 27.505z" fill="#c17174"/><path d="m150.026 202.046h-58.5711s2.633-12.806 3.007-15.444c.2-1.443 2.592-6.637 6.4611-11.147 4.966-3.97 11.12-6.158 17.478-6.213 11.2-.167 14.462 3.7 15.346 6.553.309.958.387 1.975.23 2.969l2.12 3.076z" fill="#000" opacity=".1"/><path d="m149.839 202.233h-58.5711s2.633-12.806 3.007-15.444c.2-1.443 2.592-6.637 6.4601-11.147 4.966-3.97 11.12-6.158 17.478-6.213 11.2-.167 14.462 3.7 15.346 6.553.309.958.387 1.975.23 2.969l2.12 3.076z" fill="#ffbe27"/><path d="m213.775 202.046h-61.367c2.926-6.239 10.6-22.871 11.023-26.718.164-1.489 1.748-2.886 3.845-4.072.662-.38 1.344-.725 2.042-1.033l.127-.058c.384-.169.773-.326 1.167-.47 5.308-1.947 11.142-1.901 16.418.13 5.038 1.919 11.521 4.5 16.567 6.925l.04.02c1.3.623 2.5 1.232 3.566 1.818 1.608.75 3.058 1.798 4.274 3.09.509 1.59.814 3.239.907 4.906.441 3.712.922 9.218 1.391 15.462z" fill="#000" opacity=".1"/><path d="m213.963 202.233h-61.368c2.926-6.239 10.6-22.871 11.023-26.718.164-1.489 1.748-2.886 3.845-4.072.662-.38 1.344-.725 2.042-1.033l.127-.058c.384-.169.773-.326 1.167-.47 5.308-1.947 11.142-1.901 16.418.13 5.038 1.919 11.521 4.5 16.567 6.925l.04.02c1.3.623 2.5 1.232 3.566 1.818 1.608.75 3.058 1.798 4.274 3.09.509 1.59.814 3.238.907 4.905.444 3.713.922 9.222 1.392 15.463z" fill="#ffbe27"/><path d="m204.086 172.065c0 .886-.024 1.774-.072 2.663-.027.432-.06.866-.1 1.3-.026.312-.058.62-.089.929l-.04.358c-.47 4.2-1.336 8.368-1.44 12.584v.6c.052 3.956.551 7.894 1.486 11.739h-35.34c-.058-.719-.086-1.443-.078-2.156.003-.646.038-1.291.107-1.933.544-5.312 3.255-10.284 3.664-15.562l.017-.242c.026-.4.04-.794.035-1.192v-.107c-.045-1.745-.314-3.477-.8-5.154l-.069-.251c-.494-1.663-1.07-3.3-1.728-4.905l-.127-.32c-.959-2.4-1.967-4.781-2.65-7.168-.543-1.778-.823-3.625-.832-5.483 0-.332.02-.664.046-1 .023-.271.055-.542.1-.817.063-.429.147-.853.253-1.273.711-2.292 1.714-4.482 2.984-6.518 1.311-2.352 2.561-4.678 2.785-7.15.029-.313.039-.627.032-.941-.009-.404-.047-.808-.115-1.206-.435-1.727-1.091-3.39-1.951-4.949-.075-.164-.15-.329-.222-.5 0-.026-.023-.052-.032-.078-1.332-3.382-2.384-6.868-3.146-10.422-.037-.153-.075-.306-.115-.456-.216-.866-.438-1.731-.674-2.6-1.29-4.721-3.128-9.491-6.625-12.9s-9.073-5.133-13.451-2.963c-3.788 1.89-5.838 6.12-6.763 10.252s-1 8.446-2.2 12.509c-.087.296-.183.591-.288.886-.052.15-.1.289-.156.453-.536 1.49-1.149 2.951-1.838 4.377l-.072.153c-2.189 4.666-4.732 9.251-4.813 13.94v.439c.015 1.114.183 2.221.5 3.29.622 1.889 1.582 3.649 2.834 5.194.24.313.486.624.737.932 1.21 1.489 2.523 2.932 3.672 4.467l.037.049c.875 1.134 1.613 2.366 2.2 3.673.695 1.637 1.058 3.395 1.068 5.173.01 1.779-.333 3.541-1.01 5.186-.326.759-.7 1.498-1.12 2.21-.74 1.281-1.555 2.528-2.2 3.861-.215.445-.407.9-.576 1.365-1.44 3.717-1.751 7.829-2.926 11.664-.91 2.943-2.326 5.706-4.185 8.163h-37.4459c.435-2.132 2.592-12.7 2.932-15.069.2-1.443 2.592-6.637 6.4609-11.147-.325.257-.639.517-.9419.776-2.4398 2.083-4.5533 4.521-6.27 7.231.084-.26.17-.522.256-.782.527-1.576 1.1-3.137 1.676-4.678 1.676-4.438 3.543-8.965 6.8839-12.33 1.887-1.9 4.182-3.362 5.979-5.344 3.168-3.489 4.479-8.322 4.441-13.06 0-.491-.02-.978-.052-1.466-.343-5.194-2.114-10.166-4.032-15.005-1.031-2.6-2.126-5.327-2.077-8.08.003-.386.031-.772.083-1.154.792-5.7 6.553-9.121 10.012-13.724 5.144-6.847 5.519-17.0252 12.267-22.2822 5.185-4.04 12.385-3.792 18.932-3.353 6.089.41 11.585 1.2 17.627 2.052s12.175 2.441 17.022 6.172c3.059 2.5145 5.675 5.5226 7.742 8.9 2.9 4.4262 5.441 9.3152 5.789 14.6002.026.378.04.753.04 1.125.06 6.175-2.615 12.16-2.97 18.361-.014.289-.026.577-.029.866-.002.015-.002.031 0 .046-.063 5.376 2 11.02 4.8 15.582 3.984 6.504 6.114 13.973 6.161 21.6z" fill="#000" opacity=".1"/><path d="m204.086 172.065c0 .762-.029 1.526-.072 2.285-.027.432-.06.866-.1 1.3s-.083.863-.13 1.287c-.469 4.2-1.336 8.368-1.44 12.584v.972c.094 3.958.62 7.895 1.57 11.739h-35.391c-.066-.718-.107-1.443-.112-2.155-.008-.771.028-1.542.107-2.309.544-5.312 3.255-10.284 3.664-15.562.029-.387.049-.773.052-1.154v-.271c-.037-1.868-.327-3.722-.861-5.511-.494-1.663-1.071-3.3-1.728-4.905-1-2.508-2.065-5-2.78-7.5-.503-1.661-.783-3.382-.832-5.116-.008-.459.007-.917.046-1.374.023-.271.055-.542.1-.817.063-.429.147-.854.253-1.273.711-2.292 1.714-4.483 2.984-6.519 1.313-2.355 2.569-4.686 2.791-7.162.017-.188.026-.378.032-.577.014-.531-.025-1.061-.115-1.584-.433-1.728-1.086-3.392-1.944-4.952-.075-.164-.15-.329-.222-.5-1.356-3.404-2.422-6.917-3.186-10.5-.253-1.022-.513-2.043-.786-3.056-1.29-4.721-3.128-9.491-6.625-12.9s-9.064-5.1-13.439-2.917c-3.788 1.89-5.838 6.12-6.763 10.252s-1 8.446-2.2 12.509c-.133.447-.288.895-.435 1.339-.536 1.521-1.2 3.03-1.907 4.53-2.249 4.787-4.868 9.5-4.813 14.318v.061c.014 1.114.183 2.221.5 3.29.622 1.889 1.582 3.648 2.834 5.194.24.313.486.624.737.932 1.224 1.506 2.552 2.964 3.71 4.516.875 1.134 1.613 2.366 2.2 3.673.695 1.637 1.058 3.395 1.068 5.173.01 1.779-.334 3.541-1.01 5.186-.326.759-.7 1.498-1.12 2.21-.74 1.281-1.555 2.528-2.2 3.861-.215.445-.408.9-.576 1.365-1.44 3.717-1.751 7.829-2.926 11.664-.958 3.095-2.474 5.988-4.473 8.538h-37.2801s2.633-12.806 3.007-15.444c.187-1.319 2.206-5.771 5.519-9.993.2881-.387.6161-.773.9421-1.154-2.7093 2.145-5.0568 4.711-6.9531 7.6l-.256.4c.6-1.844 1.259-3.665 1.936-5.459 1.676-4.438 3.543-8.966 6.8841-12.33 1.887-1.9 4.182-3.362 5.979-5.344 3.076-3.4 4.407-8.08 4.441-12.7 0-.617 0-1.232-.052-1.844-.343-5.194-2.114-10.166-4.032-15.005-1.136-2.432-1.839-5.043-2.077-7.716-.013-.509.015-1.017.084-1.521.795-5.673 6.556-9.075 10.015-13.692 5.144-6.848 5.519-17.0253 12.267-22.2823 5.185-4.04 12.385-3.792 18.932-3.353 6.089.41 11.585 1.2 17.627 2.052s12.184 2.438 17.025 6.158c3.056 2.5173 5.672 5.5249 7.742 8.9 2.9 4.4263 5.441 9.3153 5.789 14.6003.035.502.048 1.002.04 1.5-.049 6.039-2.624 11.909-2.97 17.986-.023.41-.035.817-.029 1.229-.002.015-.002.03 0 .046.226 5.402 1.882 10.647 4.8 15.2 4.052 6.618 6.184 14.233 6.158 21.994z" fill="#463a3e"/></svg>