<svg fill="none" height="120" viewBox="0 0 776 120" width="776" xmlns="http://www.w3.org/2000/svg" xmlns:xlink="http://www.w3.org/1999/xlink"><linearGradient id="a"><stop offset="0" stop-color="#808080" stop-opacity=".251"/><stop offset=".54" stop-color="#808080" stop-opacity=".122"/><stop offset="1" stop-color="#808080" stop-opacity=".102"/></linearGradient><linearGradient id="b" gradientUnits="userSpaceOnUse" x1="60.1614" x2="117.558" xlink:href="#a" y1="57.7736" y2="57.7736"/><linearGradient id="c" gradientUnits="userSpaceOnUse" x1="664.956" x2="722.353" xlink:href="#a" y1="57.7736" y2="57.7736"/><linearGradient id="d"><stop offset="0" stop-color="#808080" stop-opacity=".251"/><stop offset=".535" stop-color="#808080" stop-opacity=".122"/><stop offset="1" stop-color="#808080" stop-opacity=".102"/></linearGradient><linearGradient id="e" gradientUnits="userSpaceOnUse" x1="471.35" x2="471.35" xlink:href="#d" y1="144.43" y2="81.6934"/><linearGradient id="f" gradientUnits="userSpaceOnUse" x1="488.335" x2="488.335" xlink:href="#d" y1="144.43" y2="81.6934"/><linearGradient id="g" gradientUnits="userSpaceOnUse" x1="299.427" x2="299.427" xlink:href="#d" y1="104.131" y2="41.3937"/><linearGradient id="h" gradientUnits="userSpaceOnUse" x1="316.42" x2="316.42" xlink:href="#d" y1="104.131" y2="41.3937"/><linearGradient id="i" gradientUnits="userSpaceOnUse" x1="340.407" x2="340.407" xlink:href="#d" y1="104.123" y2="39.4285"/><path d="m114.365 74.7316h-24.3025l.3357-2.7011c6.868-6.0955 11.3088-22.3348 11.3088-22.3348-.098.0137-.196.0337-.291.0599-4.028.8031-6.8949 2.4389-8.8989 4.4065l.8527-7.1872c12.6882-2.7011 17.7202-19.2923 17.7202-19.2923-8.096 1.7739-13.1433 4.5229-16.2803 7.131l1.2489-10.5585c8.5794 2.9102 17.4554-12.5496 17.4554-12.5496l-.336-.0695.168-.106-.255.0897c-9.483-2.02083-14.5502 3.3383-16.1968 5.5647l.1242-1.0351c-.2506.6636-.4945 1.314-.7319 1.9513v.0264c-.6712 1.7985-1.2855 3.5748-1.843 5.3289-.485 1.4977-.9392 2.9798-1.3628 4.4462v-.0201s-.3929-9.4448-10.4663-11.9292c0 0 1.0573 20.5964 9.0399 17.225-.7386 2.9864-1.3425 5.8601-1.8663 8.6504-.3333 1.8161-.6243 3.5858-.873 5.3092l-.0485.0533.0485-.0398-.0203.1361c-.2238 1.5639-.4141 3.088-.5709 4.5724.1542-2.8603-.3725-11.1229-10.2214-18.8897 0 0-13.0911 22.7433 9.231 27.2092l.1455.1261-.0334-.103.2013.0431.0906-1.1679c-.2691 4.8749-.2433 9.7614.0772 14.6332.0232.3318.0485.6636.0703.979h-24.5788c-9.379 19.1773 5.2098 29.6846 5.2098 29.6846h40.2811c15.642-19.489 5.568-29.6424 5.568-29.6424z" fill="url(#b)" opacity=".49"/><path d="m88.6929 82.0108s-6.3777-27.5405 7.7212-63.0453" opacity=".6" stroke="#535461" stroke-miterlimit="10" stroke-width="3"/><path d="m63.8531 73.7162h49.3449s9.734 12.2773-5.371 30.5278h-38.9386s-14.0984-12.6095-5.0353-30.5278z" fill="#6c63ff"/><path d="m95.705 20.7902s4.904-8.6274 16.653-5.9728c0 0-9.711 16.3458-18.462 10.9934z" fill="#4db6ac"/><path d="m92.053 17.5749s-5.4064-8.32708 2.475-17.337018c0 0 10.046 16.142618 1.1612 21.270718z" fill="#4db6ac"/><path d="m92.5966 29.9454s-.3792-8.8216-10.1137-11.1458c0 0 1.0069 19.2458 8.73 16.0935z" fill="#4db6ac"/><path d="m89.415 42.976s1.7945-9.2444 20.594-13.2266c0 0-5.995 19.1197-21.4602 18.3531z" fill="#4db6ac"/><path d="m87.8906 53.3518s1.9774-9.6658-9.7713-18.625c0 0-12.7555 21.4589 9.2243 25.4938z" fill="#4db6ac"/><path d="m87.5386 66.6382s-1.3629-13.661 13.4064-16.3156c0 0-5.3938 19.0766-13.4268 22.4777z" fill="#4db6ac"/><g stroke="#535461" stroke-miterlimit="10"><path d="m94.0637 25.9335s12.7553-9.6227 18.1263-11.282" opacity=".3"/><path d="m95.8781 21.4197s-2.6132-15.64687-1.5764-21.113136" opacity=".3"/><path d="m88.525 47.9995s15.441-16.2595 21.486-18.2501" opacity=".3"/><path d="m82.4829 18.7996s9.3988 12.609 8.73 15.9276" opacity=".3"/><path d="m78.1194 34.7268s5.0352 22.564 9.0632 25.5504" opacity=".3"/><path d="m87.5182 72.8866s8.0563-21.9004 13.4268-22.564" opacity=".3"/></g><path d="m113.197 73.7162h-49.3439c-.1106.2224-.2183.4444-.3356.6635h48.0015s9.497 11.982-4.833 29.8643h1.141c15.103-18.2505 5.37-30.5278 5.37-30.5278z" fill="#000" opacity=".01"/><path d="m719.161 74.7316h-24.303l.335-2.7011c6.868-6.0955 11.309-22.3348 11.309-22.3348-.098.0137-.195.0337-.291.0599-4.028.8031-6.895 2.4389-8.899 4.4065l.853-7.1872c12.688-2.7011 17.72-19.2923 17.72-19.2923-8.096 1.7739-13.143 4.5229-16.28 7.131l1.249-10.5585c8.579 2.9102 17.455-12.5496 17.455-12.5496l-.336-.0695.168-.106-.255.0897c-9.483-2.02083-14.55 3.3383-16.197 5.5647l.125-1.0351c-.251.6636-.495 1.314-.732 1.9513v.0264c-.672 1.7985-1.286 3.5748-1.843 5.3289-.485 1.4977-.94 2.9798-1.363 4.4462v-.0201s-.393-9.4448-10.467-11.9292c0 0 1.058 20.5964 9.04 17.225-.738 2.9864-1.342 5.8601-1.866 8.6504-.333 1.8161-.624 3.5858-.873 5.3092l-.048.0533.048-.0398-.02.1361c-.224 1.5639-.414 3.088-.571 4.5724.154-2.8603-.373-11.1229-10.221-18.8897 0 0-13.092 22.7433 9.231 27.2092l.145.1261-.033-.103.201.0431.091-1.1679c-.27 4.8749-.244 9.7614.077 14.6332.023.3318.048.6636.07.979h-24.579c-9.379 19.1773 5.21 29.6846 5.21 29.6846h40.281c15.643-19.489 5.569-29.6424 5.569-29.6424z" fill="url(#c)" opacity=".49"/><path d="m693.488 82.0108s-6.378-27.5405 7.721-63.0453" opacity=".6" stroke="#535461" stroke-miterlimit="10" stroke-width="3"/><path d="m668.648 73.7162h49.345s9.734 12.2773-5.371 30.5278h-38.939s-14.098-12.6095-5.035-30.5278z" fill="#6c63ff"/><path d="m700.5 20.7902s4.904-8.6274 16.653-5.9728c0 0-9.711 16.3458-18.462 10.9934z" fill="#4db6ac"/><path d="m696.848 17.5749s-5.406-8.32708 2.475-17.337019c0 0 10.046 16.142619 1.161 21.270719z" fill="#4db6ac"/><path d="m697.392 29.9454s-.379-8.8216-10.114-11.1458c0 0 1.007 19.2458 8.73 16.0935z" fill="#4db6ac"/><path d="m694.21 42.976s1.795-9.2444 20.594-13.2266c0 0-5.995 19.1197-21.46 18.3531z" fill="#4db6ac"/><path d="m692.686 53.3518s1.977-9.6658-9.772-18.625c0 0-12.755 21.4589 9.225 25.4938z" fill="#4db6ac"/><path d="m692.334 66.6382s-1.363-13.661 13.407-16.3156c0 0-5.395 19.0766-13.428 22.4777z" fill="#4db6ac"/><g stroke="#535461" stroke-miterlimit="10"><path d="m698.859 25.9335s12.755-9.6227 18.126-11.282" opacity=".3"/><path d="m700.673 21.4197s-2.613-15.64687-1.576-21.113136" opacity=".3"/><path d="m693.32 47.9995s15.441-16.2595 21.486-18.2501" opacity=".3"/><path d="m687.278 18.7996s9.399 12.609 8.73 15.9276" opacity=".3"/><path d="m682.914 34.7268s5.036 22.564 9.064 25.5504" opacity=".3"/><path d="m692.313 72.8866s8.057-21.9004 13.428-22.564" opacity=".3"/></g><path d="m717.992 73.7162h-49.344c-.11.2224-.218.4444-.335.6635h48.001s9.497 11.982-4.833 29.8643h1.141c15.103-18.2505 5.37-30.5278 5.37-30.5278z" fill="#000" opacity=".01"/><path d="m764.113 54.2186c0 21.689-13.043 29.2626-29.133 29.2626-.374 0-.747-.0038-1.115-.0139-.745-.0158-1.484-.0479-2.213-.1002-14.522-1.015-25.802-8.9788-25.802-29.1495 0-20.8721 26.978-47.21062 29.013-49.16622h.004c.077-.07623.118-.11412.118-.11412s29.128 27.59034 29.128 49.28134z" fill="#3f3d56"/><path d="m733.918 80.1622 10.656-14.7186-10.683 16.3328-.028 1.6895c-.745-.0158-1.484-.0479-2.213-.1002l1.148-21.6991-.008-.1683.02-.0321.107-2.0495-10.709-16.3751 10.742 14.8375.026.4344.868-16.3966-9.166-16.9191 9.28 14.043.903-33.98837.004-.11603v.11409l-.15 26.80311 9.126-10.6261-9.167 12.9341-.242 14.6793 8.522-14.0872-8.559 16.2484-.133 8.1605 12.371-19.6088-12.416 22.4575z" fill="#f2f2f2"/><path d="m67.2136 76.6403c0 12.9959-7.8158 17.5342-17.4566 17.5342-.2245 0-.4476-.0024-.6698-.0086-.4466-.0096-.8895-.0288-1.326-.0599-8.7013-.608-15.4618-5.3802-15.4618-17.4657 0-12.5065 16.1656-28.2865 17.3849-29.4602h.0024c.0485-.0455.0703-.0685.0703-.0685s17.4566 16.5317 17.4566 29.5287z" fill="#3f3d56"/><path d="m49.1202 92.1863 6.3855-8.8187-6.4019 9.7866-.017 1.0121c-.4467-.0096-.8895-.0287-1.326-.0599l.6877-13.0017-.0048-.1007.0121-.0192.0645-1.2283-6.417-9.8115 6.4379 8.892.016.2603.5204-9.8236-5.4946-10.1414 5.5605 8.4121.5413-20.3658.0024-.0695v.0686l-.0897 16.061 5.4684-6.3674-5.4917 7.751-.1455 8.7957 5.1066-8.4409-5.1275 9.7368-.08 4.8902 7.4133-11.75-7.4409 13.4567z" fill="#f2f2f2"/><path d="m62.4204 86.9222h-28.1499c-3.8296 0-6.9341 3.0689-6.9341 6.8545v3.9658c0 3.7855 3.1045 6.8545 6.9341 6.8545h28.1499c3.8295 0 6.934-3.069 6.934-6.8545v-3.9658c0-3.7856-3.1045-6.8545-6.934-6.8545z" fill="#ff6363"/><g opacity=".7"><path d="m543.451 40.9143v62.7367h-15.991v-62.7367z" fill="url(#e)" opacity=".01"/><path d="m526.46 40.9143v62.7367h-15.992v-62.7367z" fill="url(#f)" opacity=".01"/></g><g opacity=".7"><path d="m291.433 41.3937v62.7373h15.989v-62.7373z" fill="url(#g)" opacity=".01"/><path d="m308.424 41.3937v62.7373h15.992v-62.7373z" fill="url(#h)" opacity=".01"/><path d="m356.31 100.047-13.265-49.163-.772-2.8636-2.319-8.5919-15.451 4.0751 2.318 8.592.616 2.2806 10.46 38.7683.772 2.8637 2.19 8.1148z" fill="url(#i)" opacity=".01"/></g><path d="m301.635 42.9269h-15.185v59.5721h15.185z" fill="#535461"/><path d="m301.635 51.3702h-15.185v2.8143h15.185z" fill="#ffd563"/><path d="m301.635 91.7103h-15.185v2.8143h15.185z" fill="#ffd563"/><path d="m305.075 42.9269h-3.796v59.5721h3.796z" fill="#000" opacity=".1"/><path d="m256.53 42.9269h-15.185v59.5721h15.185z" fill="#535461"/><path d="m256.53 51.3702h-15.185v2.8143h15.185z" fill="#ff6363"/><path d="m256.53 91.7103h-15.185v2.8143h15.185z" fill="#ff6363"/><path d="m259.97 42.9269h-3.796v59.5721h3.796z" fill="#000" opacity=".1"/><path d="m324.885 42.9269h-15.184v59.5721h15.184z" fill="#535461"/><path d="m324.885 51.3702h-15.184v2.8143h15.184z" fill="#d563ff"/><path d="m324.885 91.7103h-15.184v2.8143h15.184z" fill="#d563ff"/><path d="m328.111 42.9269h-3.797v59.5721h3.797z" fill="#000" opacity=".1"/><path d="m279.781 42.9269h-15.185v59.5721h15.185z" fill="#535461"/><path d="m279.781 51.3702h-15.185v2.8143h15.185z" fill="#6c63ff"/><path d="m279.781 91.7103h-15.185v2.8143h15.185z" fill="#6c63ff"/><path d="m283.006 42.9269h-3.796v59.5721h3.796z" fill="#000" opacity=".1"/><path d="m348.996 41.055-14.669 3.8727 15.549 57.5473 14.668-3.8732z" fill="#535461"/><path d="m349.583 49.2129-14.668 3.8727.734 2.7186 14.669-3.8728z" fill="#c3ff63"/><path d="m364.743 88.1901-14.669 3.8728.734 2.7185 14.669-3.8727z" fill="#c3ff63"/><path d="m351.964 41.058-3.667.9681 15.548 57.5469 3.667-.9682z" fill="#000" opacity=".1"/><path d="m392.646 41.055-14.669 3.8727 15.549 57.5473 14.668-3.8732z" fill="#535461"/><path d="m393.233 49.2129-14.668 3.8727.734 2.7186 14.669-3.8728z" fill="#cf63ff"/><path d="m408.392 88.1901-14.668 3.8728.734 2.7185 14.669-3.8727z" fill="#cf63ff"/><path d="m395.614 41.058-3.667.9681 15.548 57.5469 3.667-.9682z" fill="#000" opacity=".1"/><path d="m370.821 41.055-14.669 3.8727 15.549 57.5473 14.668-3.8732z" fill="#535461"/><path d="m371.408 49.2129-14.668 3.8727.734 2.7186 14.669-3.8728z" fill="#63ffbd"/><path d="m386.567 88.1901-14.668 3.8728.734 2.7185 14.669-3.8727z" fill="#63ffbd"/><path d="m373.788 41.058-3.667.9681 15.549 57.5469 3.667-.9682z" fill="#000" opacity=".1"/><path d="m414.471 41.055-14.669 3.8727 15.549 57.5473 14.668-3.8732z" fill="#535461"/><path d="m415.058 49.2129-14.668 3.8727.734 2.7186 14.669-3.8728z" fill="#ff6363"/><path d="m430.217 88.1901-14.668 3.8728.734 2.7185 14.669-3.8727z" fill="#ff6363"/><path d="m417.438 41.058-3.667.9681 15.548 57.5469 3.668-.9682z" fill="#000" opacity=".1"/><path d="m527.349 102.499h15.185v-59.5719h-15.185z" fill="#535461"/><path d="m527.349 54.1851h15.185v-2.8143h-15.185z" fill="#ff6363"/><path d="m527.349 94.5248h15.185v-2.8143h-15.185z" fill="#ff6363"/><path d="m523.695 102.499h3.796v-59.5719h-3.796z" fill="#000" opacity=".1"/><path d="m484.184 102.499h15.185v-59.5719h-15.185z" fill="#535461"/><path d="m484.184 54.1851h15.185v-2.8143h-15.185z" fill="#ff6363"/><path d="m484.184 94.5249h15.185v-2.8143h-15.185z" fill="#ff6363"/><path d="m480.53 102.499h3.797v-59.5719h-3.797z" fill="#000" opacity=".1"/><path d="m506.038 102.499h15.185v-59.572h-15.185z" fill="#535461"/><path d="m506.038 54.1851h15.185v-2.8143h-15.185z" fill="#ff6363"/><path d="m506.038 94.5248h15.185v-2.8143h-15.185z" fill="#ff6363"/><path d="m502.599 102.499h3.796v-59.572h-3.796z" fill="#000" opacity=".1"/><path d="m462.873 102.499h15.185v-59.572h-15.185z" fill="#535461"/><path d="m462.873 54.1851h15.185v-2.8143h-15.185z" fill="#cf63ff"/><path d="m462.873 94.5248h15.185v-2.8143h-15.185z" fill="#cf63ff"/><path d="m459.434 102.499h3.796v-59.572h-3.796z" fill="#000" opacity=".1"/><path d="m441.048 102.499h15.185v-59.572h-15.185z" fill="#535461"/><path d="m441.048 54.1851h15.185v-2.8143h-15.185z" fill="#ffed63"/><path d="m441.048 94.5248h15.185v-2.8143h-15.185z" fill="#ffed63"/><path d="m437.609 102.499h3.796v-59.572h-3.796z" fill="#000" opacity=".1"/><path d="m705.709 74.0526h55.053s10.861 13.6979-5.992 34.0594h-43.444s-15.729-14.068-5.617-34.0594z" fill="#ff6363"/><path d="m760.762 74.0522h-55.054c-.125.2479-.242.4943-.361.7403h53.54s10.594 13.367-5.392 33.3205h1.272c16.855-20.3629 5.995-34.0608 5.995-34.0608z" fill="#000" opacity=".01"/><path d="m776 101.973h-776v12.793h776z" fill="#e0e0e0"/><path d="m759.823 114.766h-743.6458v5.234h743.6458z" fill="#e0e0e0"/><path d="m759.823 114.766h-743.6458v1.745h743.6458z" fill="#000" opacity=".1"/></svg>