<svg fill="none" height="256" viewBox="0 0 320 256" width="320" xmlns="http://www.w3.org/2000/svg" xmlns:xlink="http://www.w3.org/1999/xlink"><linearGradient id="a" gradientUnits="userSpaceOnUse" x1="171.02" x2="171.02" y1="158.003" y2=".000122"><stop offset="0" stop-color="#808080" stop-opacity=".251"/><stop offset=".54" stop-color="#808080" stop-opacity=".122"/><stop offset="1" stop-color="#808080" stop-opacity=".102"/></linearGradient><path d="m187.668 43.2603c-20.247-.7083-39.535-7.2849-57.949-14.4817-18.415-7.1968-36.6544-15.1712-56.4174-18.98368-12.7112-2.45245-27.2496-2.79875-37.4893 4.05808-9.858 6.6112-13.0428 17.9919-14.7541 28.5636-1.289 7.9524-2.0461 16.3203 1.486 23.7658 2.4497 5.1694 6.8015 9.5139 9.808 14.4818 10.4712 17.2269 3.0722 38.4708-8.275 55.2918-5.3185 7.893-11.4974 15.426-15.60202 23.819-4.10464 8.394-6.00679 18.024-2.41523 26.593 3.5634 8.5 12.05115 14.872 21.24275 19.359 18.6743 9.114 40.671 11.72 62.1359 13.197 47.5004 3.271 95.2514 1.854 142.8774.437 17.626-.525 35.327-1.057 52.666-3.799 9.629-1.524 19.569-3.939 26.561-9.776 8.872-7.407 11.072-19.953 5.128-29.24-9.977-15.581-37.543-19.45-44.526-36.173-3.835-9.202.107-19.453 5.682-27.991 11.963-18.3096 32.014-34.3749 33.071-55.3042.726-14.3778-8.916-28.7714-23.82-35.5747-15.621-7.1559-37.289-6.2492-48.809 5.5534-11.869 12.1615-32.724 16.8272-50.601 16.2038z" fill="#2768ff" opacity=".1"/><path d="m136.232 217.381-107.0834-.526-10.6402-25.113 37.6238-2.748-6.5574-27.534 74.4152-9.706-71.2585-24.928 6.2946-1.505 114.5829 18.811-6.31 42.97-9.02 23.614z" fill="#2768ff"/><g fill="#7cb637"><path d="m30.7911 206.337s6.5699-1.057 10.5119 3.614c0 0-2.8908 2.292-9.1103-.881z"/><path d="m30.1028 206.233s-4.1922 5.192-2.1274 10.972c0 0 3.4164-1.376 3.7887-8.384z"/><path d="m26.336 197.699s2.628-4.852 13.1399 1.939c0 0-1.4016 3.262-6.0444 2.997-4.6427-.264-5.8691-2.38-7.0955-4.936z"/><path d="m25.6572 197.349s-5.4531-.629-5.9818 11.932c0 0 3.457.721 5.9129-3.252 2.456-3.973 1.4486-6.202.0689-8.68z"/><path d="m22.4817 187.328s3.066-8.55 14.191-2.468c0 0-2.5403 7.846-13.0522 5.377z"/><path d="m19.0653 174.547s5.7815-8.639 16.0306-.63c0 0-3.5915 8.11-15.1546 3.702z"/><path d="m17.8389 162.382s6.7452-7.936 16.8941 0c0 0-6.3947 6.964-16.8941 2.028z"/><path d="m16.7877 150.567s6.8327-8.286 16.5562-.441c0 0-7.7087 7.317-16.5562 2.38z"/><path d="m17.4009 140.077s7.1957-10.666 16.2935-3.438c0 0-7.7088 9.168-16.2935 5.465z"/><path d="m19.0653 127.824s7.6211-10.578 16.4686-2.468c0 0-9.0227 9.168-16.4686 4.408z"/><path d="m21.6057 116.872s9.0227-9.942 16.8941-5.982c0 0-9.4013 10.559-17.2883 8.62z"/><path d="m24.7593 106.489s10.4117-12.1774 16.4686-8.1099c0 0-7.6712 9.4449-17.207 10.3889z"/><path d="m29.3113 94.4469s9.1134-9.942 15.7709-7.4738c0 0-7.7963 10.3135-16.9942 10.578z"/><path d="m33.4316 83.1827s10.0739-9.5201 14.4538-7.8453c0 0-7.2707 10.578-14.8918 9.9609z"/><path d="m37.4611 72.7811s8.6723-11.3745 13.4058-10.493c0 0-5.2591 10.1404-13.4058 11.6484z"/><path d="m41.8348 58.7558s7.665-8.7174 11.8071-8.6985c0 0-6.0505 11.6483-12.123 11.5413z"/><path d="m44.4252 49.4182 7.4053-18.1588s.3691 16.4147-8.347 21.5274z"/><path d="m47.4318 29.3925s1.2264-15.1649.438-16.399c0 0 5.2935 12.6086-.488 23.0984z"/><path d="m22.1938 187.127s-7.6774-4.788-12.64863 6.926c0 0 6.83273 4.565 13.55283-3.938z"/><path d="m18.8182 174.059s-9.41692-4.323-13.98458 7.908c0 0 7.27388 5.037 14.84178-4.817z"/><path d="m17.4009 163.109s-6.7451-7.936-16.894125 0c0 0 6.394735 6.964 16.894125 2.028z"/><path d="m16.5562 150.567s-6.8327-8.286-16.5562-.441c0 0 7.70872 7.317 16.5562 2.38z"/><path d="m17.4009 140.379s-4.7929-11.947-15.21096-6.809c0 0 5.63137 10.593 14.78546 8.793z"/><path d="m19.6691 127.764s-4.7647-12.155-15.32981-6.52c0 0 6.46981 11.142 14.86061 8.397z"/><path d="m22.6224 116.931s-1.8771-13.326-10.637-14.519c0 0 1.8584 14.053 9.4576 16.921z"/><path d="m24.9813 106.514s-.732-16.0558-7.9746-16.6162c0 0 .244 12.1872 7.1581 18.8892z"/><path d="m30.0621 93.9968s-2.1587-13.3515-9.0728-14.9823c0 0 .8572 12.9297 8.3876 18.2596z"/><path d="m34.2512 83.2929s-.0719-13.9088-4.2955-15.952c0 0-2.6186 12.5929 3.0723 17.7276z"/><path d="m37.7833 72.6236s-.5913-14.3212-4.9649-16.3392c0 0-1.4955 11.3336 4.3111 17.2774z"/><path d="m42.4449 59.8986s-.0251-11.6484-3.1473-14.381c0 0-3.1036 12.7597 1.5173 16.7232z"/><path d="m44.0592 48.8453-3.0378-19.3867s-4.1266 15.8859 3.1817 22.8875z"/><path d="m44.6505 29.5751s-7.7963-13.0335-7.6368-14.4817c0 0 .8291 13.66 10.637 20.4633z"/><path d="m45.564 25.7248s-7.3583-18.51141-10.687-20.00996c0 0 10.5118 5.37716 11.3002 19.48106z"/></g><path d="m41.4813 61.7088-.5037-.1542c6.2101-20.3784 7.7588-33.371 4.3643-36.6294l.3598-.3841c3.6009 3.4379 2.1399 16.2888-4.2204 37.1677z" fill="#444053"/><path d="m24.3807 109.423-.7446-.268c.6601-1.866 1.3703-3.762 2.1149-5.629 6.4823-16.2569 12.0011-31.3809 15.5394-42.9915l.6477-.3148c-3.5447 11.6326-8.9664 27.3359-15.455 43.6153-.7415 1.832-1.4485 3.718-2.1024 5.588z" fill="#444053"/><path d="m40.0484 221.587c-.1001-.11-10.1646-11.516-17.1819-30.988-4.1117-11.399-6.4-23.384-6.7795-35.505-.4818-15.152 2.678-32.071 8.0904-47.44l.5881.692c-12.1512 34.495-7.3239 64.054-.9197 81.854 6.9422 19.295 16.8941 30.575 16.991 30.688z" fill="#444053"/><path d="m197.326 197.371s-7.092 8.711-1.461 21.88l-56.626 24.714-5.435 1.146-2.502-11.019 1.673-13.906v-7.6z" fill="#d5d6db"/><path d="m18.5084 191.742 78.3762-14.378 103.8514 16.648-64.504 23.369z" fill="#2768ff"/><path d="m18.5084 191.742 78.3762-14.378 103.8514 16.648-64.504 23.369z" fill="#2768ff"/><path d="m18.5085 191.739s-7.3302 13.975 1.1168 26.883l116.2257 25.343s-7.215-11.132.372-26.584z" fill="#2768ff"/><path d="m18.5085 191.739s-7.3302 13.975 1.1168 26.883l116.2257 25.343s-7.215-11.132.372-26.584z" fill="#000" opacity=".1"/><path d="m21.9717 196.584s-4.1891 10.226 0 16.843z" fill="#000" opacity=".1"/><path d="m135.851 243.965 64.885-27.862s3.629.787 1.283 3.463-64.917 27.075-64.917 27.075l-117.4767-28.019z" fill="#2768ff"/><path d="m135.851 243.965 64.885-27.862s3.629.787 1.283 3.463-64.917 27.075-64.917 27.075l-117.4767-28.019z" fill="#000" opacity=".1"/><path d="m130.532 220.196s-6.257 7.555 0 18.889z" fill="#000" opacity=".1"/><path d="m160.825 220.067-28.065 9.423.099.298 28.065-9.422z" fill="#000" opacity=".1"/><path d="m166.445 219.131-33.696 12.893.111.295 33.696-12.894z" fill="#000" opacity=".1"/><path d="m171.608 219.084-38.671 15.928.119.291 38.67-15.928z" fill="#000" opacity=".1"/><path d="m177.222 217.721-43.834 19.925.129.287 43.834-19.925z" fill="#000" opacity=".1"/><path d="m181.924 217.701-48.188 21.227.126.289 48.187-21.228z" fill="#000" opacity=".1"/><path d="m192.256 215.964-57.792 25.118.124.289 57.792-25.118z" fill="#000" opacity=".1"/><path d="m47.6257 193.279 55.0623-11.649 33.544 6.454-45.1196 14.639z" fill="#fff" opacity=".3"/><path d="m200.736 194.012s2.847 1.155 1.177 2.941c-1.671 1.785-65.69 20.428-65.69 20.428z" fill="#2768ff"/><path d="m228.39 167.092s-7.09 8.708-1.458 21.88l-56.627 24.713-5.434 1.152-2.503-11.018 1.699-13.903v-7.609z" fill="#d5d6db"/><path d="m49.5748 161.46 78.3732-14.375 103.855 16.648-64.504 23.369z" fill="#3a3768"/><path d="m49.5623 161.46s-7.3333 13.975 1.1138 26.882l116.2249 25.343s-7.211-11.141.385-26.586z" fill="#3a3768"/><path d="m49.5623 161.46s-7.3333 13.975 1.1138 26.882l116.2249 25.343s-7.211-11.141.385-26.586l-36.754-8.006z" fill="#000" opacity=".1"/><path d="m53.035 166.305s-4.186 10.222 0 16.843z" fill="#000" opacity=".1"/><path d="m166.914 213.685 64.889-27.861s3.626.787 1.279 3.463c-2.346 2.676-64.917 27.074-64.917 27.074l-117.4764-28.019z" fill="#3a3768"/><path d="m166.914 213.685 64.889-27.861s3.626.787 1.279 3.463c-2.346 2.676-64.917 27.074-64.917 27.074l-117.4764-28.019z" fill="#000" opacity=".1"/><path d="m161.595 189.916s-6.257 7.556 0 18.889z" fill="#000" opacity=".1"/><path d="m191.891 189.791-28.066 9.423.099.298 28.066-9.422z" fill="#000" opacity=".1"/><path d="m197.515 188.853-33.696 12.894.111.294 33.696-12.894z" fill="#000" opacity=".1"/><path d="m202.673 188.802-38.671 15.928.119.292 38.671-15.928z" fill="#000" opacity=".1"/><path d="m208.291 187.44-43.834 19.925.129.287 43.833-19.925z" fill="#000" opacity=".1"/><path d="m212.988 187.416-48.188 21.227.126.289 48.187-21.228z" fill="#000" opacity=".1"/><path d="m223.323 185.678-57.793 25.118.124.289 57.793-25.118z" fill="#000" opacity=".1"/><path d="m78.6921 162.999 55.0619-11.648 33.545 6.454-45.12 14.639z" fill="#fff" opacity=".45"/><path d="m231.803 163.733s2.844 1.155 1.176 2.937c-1.667 1.782-65.68 20.429-65.68 20.429z" fill="#3a3768"/><path d="m231.33 132.452s-7.092 15.637-1.461 28.806l-56.626 17.788-5.422 1.155-2.503-11.019 1.674-13.905v-7.61z" fill="#d5d6db"/><path d="m52.525 126.823 78.376-14.378 103.855 16.648-64.507 23.369z" fill="#2768ff"/><path d="m52.525 126.82s-7.3427 13.975 1.1044 26.882l116.2256 25.344s-7.215-11.142.381-26.584z" fill="#2768ff"/><path d="m52.525 126.82s-7.3427 13.975 1.1044 26.882l116.2256 25.344s-7.215-11.142.381-26.584z" fill="#000" opacity=".1"/><path d="m55.9883 131.665s-4.1891 10.225 0 16.843z" fill="#000" opacity=".1"/><path d="m169.867 179.046 64.886-20.936s3.629.787 1.283 3.463c-2.347 2.676-64.917 20.149-64.917 20.149l-117.4771-28.019z" fill="#2768ff"/><path d="m169.867 179.046 64.886-20.936s3.629.787 1.283 3.463c-2.347 2.676-64.917 20.149-64.917 20.149l-117.4771-28.019z" fill="#000" opacity=".1"/><path d="m164.549 155.277s-6.258 7.555 0 18.889z" fill="#000" opacity=".1"/><path d="m194.845 155.151-28.066 9.422.099.299 28.066-9.422z" fill="#000" opacity=".1"/><path d="m200.467 154.214-33.696 12.894.111.295 33.696-12.894z" fill="#000" opacity=".1"/><path d="m205.622 154.165-38.671 15.928.119.292 38.67-15.928z" fill="#000" opacity=".1"/><path d="m211.244 152.8-43.833 19.926.129.286 43.833-19.925z" fill="#000" opacity=".1"/><path d="m215.943 152.779-48.188 21.228.126.288 48.187-21.228z" fill="#000" opacity=".1"/><path d="m226.277 151.043-57.793 25.118.124.289 57.793-25.118z" fill="#000" opacity=".1"/><path d="m81.6423 128.359 55.0627-11.648 33.544 6.454-45.12 14.639z" fill="#fff" opacity=".3"/><path d="m234.753 129.093s2.847 1.155 1.176 2.94c-1.67 1.785-65.68 20.429-65.68 20.429z" fill="#2768ff"/><path d="m97.116 33.5261s-11.8884-.7209-10.4993 7.6722c0 0-.2785 1.4828 1.0574 2.1565 0 0 .0219-.6296 1.2201-.4124.4276.0739.8626.095 1.2953.063.5832-.0402 1.1377-.27 1.5799-.6549 0 0 3.3444-1.3915 4.6459-6.8945 0 0 .9635-1.1995.9385-1.508l-2.0148.8626s.6852 1.4576.1471 2.6697c0 0-.0657-2.6162-.4537-2.5564-.0782 0-1.0418.5069-1.0418.5069s1.1795 2.5406.2879 4.3854c0 0 .3378-3.1293-.657-4.2028l-1.4141.8311s1.3797 2.6225.4442 4.7632c0 0 .2409-3.2835-.7414-4.5617l-1.2827 1.0074s1.2983 2.5847.5068 4.3603c0 0-.1033-3.8219-.7822-4.1116 0 0-1.1231.9948-1.292 1.4041 0 0 .8885 1.8889.3347 2.868 0 0-.3347-2.5469-.6257-2.5595 0 0-1.1169 1.6875-1.2326 2.8334.0541-1.0683.3852-2.1038.9604-3.0034-.6437.1226-1.2376.4323-1.7082.891 0 0 .1721-1.1932 1.9867-1.2971 0 0 .9229-1.2813 1.17-1.3569 0 0-1.8051-.1542-2.897.3338 0 0 .9636-1.124 3.2255-.6297l1.2515-1.0389s-2.3715-.3148-3.3789.0346c0 0 1.1607-.9948 3.7199-.2707l1.3796-.828s-2.0241-.4376-3.2286-.2802c0 0 1.2702-.6894 3.6322.0567l.9824-.4439s-1.4798-.2928-1.9147-.34c-.4348-.0472-.4567-.1669-.4567-.1669.9392-.1552 1.9028-.0462 2.7844.3149 0 0 2.1117-.7651 2.071-.8973z" fill="#ffbe27"/><g fill="#2768ff"><path d="m264.368 68.0242s-11.889-.721-10.5 7.6722c0 0-.278 1.4828 1.058 2.1565 0 0 .022-.6297 1.22-.4124.428.0722.862.0933 1.295.0629.578-.0428 1.127-.2725 1.564-.6548 0 0 3.348-1.3915 4.646-6.8946 0 0 .964-1.1995.939-1.508l-2.009.8626s.685 1.4577.147 2.6697c0 0-.065-2.6161-.45-2.5563-.078 0-1.045.5068-1.045.5068s1.179 2.5406.291 4.3855c0 0 .338-3.1293-.66-4.2029l-1.414.8312s1.379 2.6224.444 4.7632c0 0 .241-3.2836-.742-4.5618l-1.279 1.0075s1.295 2.5846.504 4.3602c0 0-.104-3.8219-.783-4.1115 0 0-1.12.9948-1.292 1.4041 0 0 .889 1.8889.338 2.868 0 0-.338-2.5469-.625-2.5595 0 0-1.117 1.6874-1.233 2.8334.054-1.0688.386-2.1045.963-3.0034-.644.1228-1.239.4325-1.711.8909 0 0 .175-1.1931 1.987-1.297 0 0 .923-1.2813 1.17-1.36 0 0-1.802-.1512-2.897.3368 0 0 .963-1.1239 3.225-.6296l1.252-1.0389s-2.375-.3149-3.379.0346c0 0 1.157-.9948 3.72-.2708l1.376-.8279s-2.024-.4376-3.228-.2802c0 0 1.27-.6895 3.632.0566l.985-.4439s-1.483-.2927-1.917-.34c-.435-.0472-.457-.1668-.457-.1668.939-.1572 1.903-.0482 2.784.3148 0 0 2.118-.765 2.081-.8972z" opacity=".1"/><path d="m117.139 85.3771s-5.181-10.8078-11.776-5.4811c0 0-1.424.4786-1.355 1.9803 0 0 .548-.2865.939.872.146.4095.339.8005.575 1.1648.321.494.792.8697 1.343 1.0704 0 0 2.837 2.2604 8.246.7178 0 0 1.512.2613 1.759.0787l-1.727-1.3442s-.939 1.3128-2.247 1.4292c0 0 2.24-1.3317 2-1.6402-.05-.0629-.939-.6706-.939-.6706s-1.63 2.2762-3.663 2.3927c0 0 2.878-1.2278 3.322-2.6288l-1.408-.8374s-1.605 2.4934-3.917 2.7138c0 0 2.966-1.3884 3.595-2.8743l-1.496-.6297s-1.611 2.3989-3.538 2.5721c0 0 3.266-1.955 3.185-2.6949 0 0-1.411-.4974-1.849-.4502 0 0-1.195 1.6969-2.321 1.6969 0 0 2.043-1.5395 1.917-1.7882 0 0-2.008-.1574-3.066.3149.953-.4766 2.014-.6937 3.076-.6297-.422-.5056-.98-.8765-1.608-1.0672 0 0 1.12-.4282 2.093 1.1113 0 0 1.564.1857 1.749.3652 0 0-.748-1.656-1.702-2.3769 0 0 1.445.2928 2.105 2.5186l1.518.6044s-.873-2.2415-1.677-2.9499c0 0 1.426.5321 2.049 3.1483l1.389.8059s-.604-1.9928-1.33-2.9719c0 0 1.217.7807 1.721 3.2175l.867.6485s-.47-1.445-.626-1.848c-.157-.403-.078-.4848-.078-.4848.595.7474.972 1.6467 1.088 2.5972 0 0 1.674 1.4419 1.787 1.3475z" opacity=".1"/><path d="m237.206 52.7554s-5.178-10.8078-11.776-5.4811c0 0-1.42.4786-1.355 1.9803 0 0 .551-.2834.939.872.146.4112.34.8033.579 1.168.319.493.789.8677 1.339 1.0672 0 0 2.84 2.2604 8.246.721 0 0 1.512.2581 1.762.0755l-1.718-1.3474s-.938 1.3159-2.243 1.4324c0 0 2.237-1.3348 1.996-1.6433-.05-.063-.938-.6706-.938-.6706s-1.627 2.2761-3.664 2.3926c0 0 2.881-1.2278 3.326-2.6256l-1.43-.8311s-1.602 2.4902-3.917 2.7138c0 0 2.966-1.3916 3.598-2.8775l-1.499-.6296s-1.611 2.402-3.535 2.572c0 0 3.263-1.955 3.182-2.6917 0 0-1.408-.5005-1.846-.4502 0 0-1.195 1.6938-2.325 1.6938 0 0 2.046-1.5395 1.921-1.7882 0 0-2.008-.1574-3.069.3148.953-.4767 2.013-.6938 3.076-.6296-.42-.506-.978-.8771-1.605-1.0673 0 0 1.12-.4281 2.093 1.1113 0 0 1.564.1889 1.748.3684 0 0-.747-1.6591-1.705-2.3801 0 0 1.446.296 2.106 2.5343l1.52.6045s-.872-2.2447-1.677-2.953c0 0 1.427.532 2.047 3.1482l1.392.8059s-.607-1.9896-1.333-2.9719c0 0 1.22.7808 1.721 3.2175l.866.6485s-.466-1.445-.625-1.848c-.16-.403-.079-.4817-.079-.4817.594.7482.97 1.6472 1.086 2.5973 0 0 1.699 1.4293 1.796 1.3286z" opacity=".1"/><path d="m253.753 106.215s-5.178-10.811-11.786-5.484c0 0-1.42.478-1.354 1.98 0 0 .55-.283.938.872.145.411.338.803.576 1.168.319.493.789.868 1.339 1.067 0 0 2.841 2.264 8.25.721 0 0 1.508.262 1.758.076l-1.727-1.344s-.938 1.315-2.246 1.432c0 0 2.237-1.335 1.996-1.643-.05-.063-.939-.671-.939-.671s-1.627 2.276-3.663 2.396c0 0 2.881-1.231 3.325-2.629l-1.411-.837s-1.601 2.493-3.916 2.713c0 0 2.965-1.391 3.597-2.877l-1.498-.63s-1.611 2.399-3.535 2.572c0 0 3.266-1.955 3.184-2.695 0 0-1.411-.5-1.849-.45 0 0-1.195 1.694-2.324 1.694 0 0 2.046-1.539 1.921-1.788 0 0-2.009-.158-3.069.315.954-.477 2.015-.694 3.078-.63-.42-.507-.979-.878-1.608-1.067 0 0 1.12-.432 2.093 1.111 0 0 1.564.186 1.749.365 0 0-.748-1.656-1.702-2.3798 0 0 1.445.296 2.106 2.5348l1.517.604s-.873-2.245-1.677-2.9499c0 0 1.427.5289 2.046 3.1479l1.392.803s-.607-1.99-1.332-2.972c0 0 1.22.781 1.723 3.221l.867.629s-.469-1.445-.626-1.848c-.156-.402-.078-.481-.078-.481.595.747.971 1.647 1.086 2.597 0 0 1.702 1.451 1.799 1.357z" opacity=".1"/><path d="m63.1809 246.867c3.9723 0 7.1925-.362 7.1925-.809s-3.2202-.809-7.1925-.809c-3.9724 0-7.1926.362-7.1926.809s3.2202.809 7.1926.809z" opacity=".1"/><path d="m16.0306 233.116c3.9724 0 7.1926-.362 7.1926-.809s-3.2202-.809-7.1926-.809c-3.9723 0-7.19247.362-7.19247.809s3.22017.809 7.19247.809z" opacity=".1"/><path d="m99.1215 256c3.9725 0 7.1925-.362 7.1925-.809s-3.22-.809-7.1925-.809c-3.9723 0-7.1925.362-7.1925.809s3.2202.809 7.1925.809z" opacity=".1"/><path d="m283.298 236.107c3.973 0 7.193-.363 7.193-.809 0-.447-3.22-.809-7.193-.809-3.972 0-7.192.362-7.192.809 0 .446 3.22.809 7.192.809z" opacity=".1"/><path d="m223.446 232.181c3.973 0 7.193-.362 7.193-.809s-3.22-.809-7.193-.809c-3.972 0-7.192.362-7.192.809s3.22.809 7.192.809z" opacity=".1"/><path d="m184.728 251.328c4.698 0 8.506-.658 8.506-1.47s-3.808-1.47-8.506-1.47-8.507.658-8.507 1.47 3.809 1.47 8.507 1.47z" opacity=".1"/></g><path d="m188.523 235.08s-11.845 6.158-5.726 13.412c0 0 .576 1.574 2.24 1.464 0 0-.331-.611.939-1.099.452-.176.881-.405 1.28-.683.537-.374.939-.915 1.145-1.54 0 0 2.421-3.261.544-9.296 0 0 .244-1.707.031-1.984l-1.439 1.987s1.486 1.004 1.658 2.481c0 0-1.564-2.478-1.877-2.204-.069.057-.713 1.086-.713 1.086s2.578 1.76 2.769 4.045c0 0-1.452-3.201-3.019-3.658l-.898 1.612s2.815 1.725 3.128 4.319c0 0-1.636-3.289-3.307-3.954l-.66 1.704s2.716 1.737 2.966 3.897c0 0-2.271-3.611-3.088-3.498 0 0-.513 1.6-.444 2.094 0 0 1.918 1.291 1.952 2.559 0 0-1.771-2.251-2.043-2.103 0 0-.112 2.264.432 3.441 0 0-.939-1.681-.785-3.441-.549.489-.944 1.128-1.136 1.839 0 0-.51-1.244 1.17-2.39 0 0 .16-1.759.354-1.977 0 0-1.818.894-2.591 1.99 0 0 .285-1.634 2.75-2.446l.626-1.725s-2.465 1.051-3.226 1.977c0 0 .548-1.622 3.42-2.399l.851-1.574s-2.19.743-3.26 1.574c0 0 .829-1.395 3.523-2.037l.691-.992s-1.589.57-2.034.775c-.444.204-.531.104-.531.104.812-.692 1.798-1.143 2.85-1.304 0 0 1.567-1.949 1.458-2.056z" fill="#f97c14"/><path d="m223.678 118.776c-2.046-5.594-13.309-6.12-18.196-4.694-3.472 1.017-10.793 2.163-14.704 2.739l-.253-.242c.507-.151.519-.523.457-1.074-.037-.726-.026-1.453.031-2.178 2.396.749 4.53-1.023 4.53-1.023 2.816-1.26 2.059-6.649 2.597-8.123.403-1.102.838-7.5932 1.032-10.8295h.041l.022-1.0862c.028-.4691.04-.7429.04-.7429s.276-7.9146.814-9.5171c.5-1.4733.907-8.8968.97-10.0742v-.1543l-.041-.6863c.028-.5006.041-1.0578.037-1.6434 0-2.6917-.278-6.0823-.312-6.6301v-.2865c.022-1.1491-.122-6.904-4.987-9.0794-1.793-.8059-3.948-1.7661-6.035-2.7011-.538-4.6751-1.768-9.325-1.661-14.0347 0-.7084.062-1.4167.131-2.1219 0 .2046-.022.4124-.025.6296v1.3726c.185-5.8903 2.396-11.812 2.19-17.5764-.019.5635-.06 1.1302-.113 1.6969.108-1.9498-.095-3.9043-.6-5.7896-.188-.6642-.442-1.3505-.983-1.7944-.511-.3575-1.098-.5913-1.714-.6832-1.481-.3813-2.985-.6632-4.502-.8437-.231-.7103-.573-1.3789-1.014-1.98024-3.172-4.3823-7.871-8.50015-13.427-9.444615-2.788-.47223-5.995-.078705-7.891 1.926705-.198.17617-.384.36548-.557.56667-1.019 1.22465-1.457 2.83339-2.502 4.05489-.069.08186-.147.15741-.223.23612-2.046 1.8417-5.234 2.22578-7.508 3.87857-.401.2967-.776.6263-1.123.9854-.917.9139-1.738 1.9191-2.453 3.0002-1.023 1.4482-2.074 2.9562-2.399 4.6846-.654 3.463 1.689 6.7466 2.124 10.2316.97 7.7981-7.606 14.7179-5.982 22.4121.433 1.8902 1.39 3.6182 2.759 4.9836-3.344 3.0475-6.191 6.0036-6.191 6.0036v.1763h-.529l.053.6297h-.053l.291 3.4158-.291 4.9741v.4691h.019c.097 1.8228.482 8.3774.939 9.7595.538 1.6024.81 9.517.81 9.517s.594 11.1851 1.139 12.6651c.544 1.48-.229 6.854 2.596 8.122.827.638 1.805 1.047 2.838 1.184-.144 1.178-.053 2.031.413 2.298.199.118.426.183.657.189-.192.286-.362.586-.51.898-1.121-.118-2.223-.38-3.279-.778-3.034-1.259-13.105-4.093-16.03-2.1-2.926 1.993-9.965 3.8-6.714 11.822 3.25 8.021 4.765 8.223 4.765 8.223 1 .731 1.878 1.618 2.599 2.628.976 1.477 10.071 4.855 12.346 4.855.966-.015 1.933.033 2.893.145 0 0-2.468 2.178-2.139 3.444.328 1.266-.751 11.396-.751 11.396s2.503 2.538 3.573-.79l.037.051c.2.273 1.283 1.511 3.319-.051.834-.636 1.719-1.201 2.647-1.687l9.861-1.404c1.028-.065 2.059-.072 3.088-.022 1.564.129 3.101-.803 4.067-1.524 2.043.781 4.34 1.634 5.431 1.946 2.215.629 12.396 3.378 14.777 2.518.494-.198.934-.513 1.282-.919l2.272.072-1.064.214s2.071.035 4.887.073l-.119.069 3.532-.032c5.168.048 10.975.063 11.738-.11 1.195-.267 7.405-.078 9.236 0h.509s6.824-1.369 4.008-8.336c-2.165-5.352-8.819-6.907-11.773-7.335.833-.167 1.549-.296 2.025-.372 2.061-.315 6.066-2.204 6.391-2.849.326-.645 3.683-2.519 4.549-3.586.867-1.067 3.341-8.632 1.286-14.227zm-56.517 15.656-.335.111-.225.075-.432.428c-.344-.233-.713-.478-1.098-.73.679.041 1.377.082 2.09.116z" fill="url(#a)"/><path d="m187.108 101.238s4.787 12.593 7.509 11.333c2.722-1.259 1.983-6.611 2.503-8.078.519-1.467 1.095-12.5929 1.095-12.5929s.263-7.8705.782-9.4635c.482-1.4639.873-8.8464.938-10.0081v-.1543l-.516-9.1298-2.922-.7335-6.776 2.5186-.939 5.3928-.366 2.1062-.156.8972z" fill="#be6f72"/><path d="m188.685 99.1284s4.568 3.7626 5.944 4.0926c1.377.331 2.222 3.265 2.222 3.265" fill="#000" opacity=".1"/><path d="m149.676 101.789s-4.787 12.592-7.509 11.333-1.983-6.611-2.503-8.078c-.519-1.467-1.095-12.593-1.095-12.593s-.263-7.8705-.782-9.4635c-.482-1.4639-.873-8.8464-.938-10.0081v-.1543l.519-9.1298 2.922-.7335 6.776 2.5186.939 5.3928.366 2.1062.156.8972z" fill="#be6f72"/><path d="m180.845 34.3982h-10.684v16.7579h10.684z" fill="#3e373a"/><path d="m180.845 34.3982h-10.684v16.7579h10.684z" fill="#000" opacity=".1"/><path d="m147.798 114.331s-3.651 4.039-2.296 4.773c1.355.733 10.118 14.481 10.118 14.481s28.782 3.567 34.21-1.785 5.319-14.913 5.319-14.913-4.361.945-4.837.432c-.475-.513-3.088-2.988-3.088-2.988s-36.923-2.254-39.426 0z" fill="#4b4b5b"/><path d="m147.798 114.331s-3.651 4.039-2.296 4.773c1.355.733 10.118 14.481 10.118 14.481s28.782 3.567 34.21-1.785 5.319-14.913 5.319-14.913-4.361.945-4.837.432c-.475-.513-3.088-2.988-3.088-2.988s-36.923-2.254-39.426 0z" fill="#000" opacity=".02"/><path d="m199.613 63.2766-9.385 7.5556-2.838.2078-1.042.0756-17.498 1.2907-18.145-1.3348-2.7-.1983-3.441-.2519-7.196-6.926s5.093-5.4905 9.554-9.1959c1.759-1.464 3.42-2.6477 4.631-3.1136l.206-.0724c.762-.2989 1.442-.7759 1.984-1.3915 3.522-3.6551 6.779-12.6747 6.779-12.6747s15.54-8.0783 13.663 2.5186c-1.878 10.5968 6.986 7.9775 6.986 7.9775l2.922 1.3411 1.154.5321 2.944 1.3569 6.642 3.0663c5.212 2.4147 4.78 9.2369 4.78 9.2369z" fill="#be6f72"/><path d="m168.121 45.8765c7.719 0 13.976-6.2962 13.976-14.063s-6.257-14.063-13.976-14.063c-7.718 0-13.975 6.2962-13.975 14.063s6.257 14.063 13.975 14.063z" fill="#000" opacity=".1"/><path d="m199.635 73.2942h-62.786v-.1543l.519-9.1297s5.093-5.4905 9.554-9.196l39.42-1.5741 1.833-1.9455 6.642 3.0663c5.215 2.4115 4.796 9.2337 4.796 9.2337s.714 7.9051.022 9.6996z" fill="#000" opacity=".1"/><path d="m199.635 72.9794h-62.786v-.1543l.519-9.1298s5.093-5.4904 9.554-9.1959l39.42-1.5741 1.833-1.9456 6.642 3.0664c5.215 2.4115 4.796 9.2337 4.796 9.2337s.714 7.9051.022 9.6996z" fill="#e7c7ca"/><path d="m158.057 47.3782s9.905 12.6999 23.098-.2613c13.193-12.9611 1.461 28.91 1.461 28.91l-28.47 3.4z" fill="#000" opacity=".1"/><path d="m158.057 48.0079s9.905 12.6998 23.098-.2613c13.193-12.9612 1.461 28.9099 1.461 28.9099l-28.47 3.4001z" fill="#e7c7ca"/><path d="m185.231 50.2367 1.048 16.0842 1.124 5.352.857 4.0926s2.19 31.4825 1.564 33.0565.313 2.833.444 3.67c.132.838-.131 2.941-.028 3.885.103.945 0 1.364-2.396 1.027-2.397-.337-5.738-.923-5.738-.923s-8.447.63-11.366-.418c-2.919-1.049-8.447-1.052-8.447-1.052s-8.344.211-11.053-.104-4.174 3.359-5.944 2.308c-1.771-1.052 2.083-11.227 3.335-14.167 1.251-2.941-1.668-10.3892-1.668-10.3892l3.754-20.9576.836-4.7506v-14.9351l.206-.0724c.762-.2989 1.442-.7759 1.984-1.3915l.938 15.0295 29.408 1.0515v-16.9153" fill="#000" opacity=".1"/><path d="m185.231 49.6071 1.048 16.0842 1.124 5.3519.857 4.0927s2.19 31.4821 1.564 33.0561.313 2.833.444 3.671c.132.837-.131 2.94-.028 3.885.103.944 0 1.363-2.396 1.026-2.397-.337-5.738-.922-5.738-.922s-8.447.629-11.366-.419-8.447-1.052-8.447-1.052-8.344.211-11.053-.103c-2.709-.315-4.174 3.359-5.944 2.307-1.771-1.051 2.083-11.226 3.335-14.167 1.251-2.9402-1.668-10.3888-1.668-10.3888l3.754-20.9576.836-4.7507v-14.9351l.206-.0724c.762-.2988 1.442-.7758 1.984-1.3915l.938 15.0295 29.408 1.0515v-16.9153" fill="#e7c7ca"/><path d="m188.613 16.0409c-.178-.6579-.425-1.3411-.938-1.7818-.49-.3541-1.056-.587-1.652-.6801-1.427-.3776-2.878-.6573-4.342-.8374-.21-.699-.526-1.3608-.939-1.9613-3.066-4.35713-7.602-8.46553-12.94-9.39425-2.793-.487974-6.032-.05037-7.821 2.16596-.982 1.21836-1.405 2.83339-2.396 4.0297-1.912 2.32338-5.363 2.60989-7.772 4.40749-1.286.9445-2.218 2.3139-3.128 3.6425-.986 1.4387-1.999 2.9372-2.312 4.6562-.626 3.4347 1.63 6.7088 2.046 10.175.938 7.754-7.321 14.6328-5.76 22.283.91 4.461 5.006 7.6029 9.242 9.1959 1.492.5635 3.197 1.1239 3.895 2.5658.313.6296.366 1.3568.66 1.9928.989 2.1219 4.239 2.2037 5.985.6579 1.746-1.5457 2.296-4.0454 2.503-6.3782.838-10.1876-3.216-20.2524-2.744-30.4652.141-3.0884 1.004-6.5923 3.754-7.9901 3.701-1.889 8.153 1.2592 12.227.6579 1.927 4.7196 2.336 9.9284 1.17 14.8942-.648 2.7169-1.768 5.3519-1.849 8.1538-.122 4.2659 2.165 8.1633 4.142 11.9349.424.7053.708 1.4869.835 2.3013.031.8263-.122 1.6492-.447 2.4084-1.117 3.0254-3.044 5.8336-3.263 9.0542-.064.376.02.7623.234 1.0767.221.2099.505.3386.808.3652 3.378.5824 6.3-2.4304 7.949-5.4558 1.838-3.3416 2.909-7.055 3.135-10.8676.341-6.4098-1.943-12.7156-1.802-19.1317.163-7.2944 3.438-14.6391 1.52-21.6754z" fill="#000" opacity=".1"/><path d="m188.926 15.7261c-.178-.658-.425-1.3411-.938-1.7819-.49-.354-1.056-.5869-1.652-.68-1.427-.3776-2.878-.6574-4.343-.8374-.209-.6991-.526-1.3608-.938-1.9613-3.066-4.35715-7.603-8.46555-12.94-9.39427-2.794-.487974-6.032-.05037-7.821 2.16596-.983 1.21836-1.405 2.83339-2.397 4.0297-1.911 2.32338-5.362 2.60986-7.771 4.40751-1.286.9444-2.218 2.3139-3.128 3.6425-.986 1.4387-2 2.9372-2.312 4.6561-.626 3.4347 1.63 6.7089 2.046 10.175.938 7.7541-7.321 14.6329-5.76 22.283.91 4.461 5.006 7.6029 9.242 9.1959 1.492.5636 3.197 1.1239 3.895 2.5658.313.6297.366 1.3569.66 1.9928.988 2.1219 4.239 2.2038 5.985.658 1.745-1.5458 2.296-4.0454 2.503-6.3783.838-10.1875-3.217-20.2524-2.744-30.4651.141-3.0884 1.004-6.5924 3.754-7.9902 3.701-1.8889 8.153 1.2593 12.226.658 1.928 4.7196 2.337 9.9284 1.17 14.8942-.647 2.7169-1.767 5.3519-1.849 8.1538-.122 4.2658 2.165 8.1633 4.143 11.9349.424.7052.708 1.4869.835 2.3013.031.8263-.122 1.6492-.447 2.4084-1.117 3.0254-3.044 5.8336-3.263 9.0542-.065.3759.02.7623.234 1.0767.221.2098.505.3385.807.3652 3.379.5824 6.301-2.4304 7.95-5.4559 1.838-3.3415 2.909-7.0549 3.135-10.8676.341-6.4097-1.943-12.7156-1.802-19.1316.162-7.2944 3.438-14.6391 1.52-21.6754z" fill="#3e373a"/><path d="m182.015 155.119 12.411.4-1.78-9.262-9.508.91z" fill="#c3c7d9"/><path d="m220.471 133.167c-.835 1.048-4.067 2.937-4.38 3.567-.313.629-4.17 2.518-6.154 2.833-1.983.315-8.237 1.681-9.385 2.415-.823.529-7.427 2.203-11.767 3.132-1.175.28-2.365.495-3.563.646-1.877.103-22.419-6.926-22.419-6.926l3.961-4.093.219-.076c1.12-.381 6.294-2.14 9.166-2.978 3.235-.944 6.989-4.826 6.989-4.826s5.525-1.889 6.257-2.1c.733-.211-1.877-7.345-1.877-7.345s11.992-1.675 16.685-3.094c4.693-1.42 15.539-.894 17.52 4.668 1.98 5.563-.404 13.128-1.252 14.177z" fill="#4b4b5b"/><path d="m165.825 150.901s-2.396 2.518-4.796 2.31c-2.4-.207-10.79.63-10.79.63-1.521.61-2.945 1.441-4.227 2.465-1.962 1.555-3.003.315-3.197.051l-.035-.051c-1.045 3.309-3.441.787-3.441.787s1.042-10.074.722-11.333c-.319-1.26 2.062-3.422 2.062-3.422l2.816-.721 7.133-1.839 10.221 3.567z" fill="#e7c7ca"/><path d="m144.926 141.616-2.111 14.74-.035-.05c-1.045 3.309-3.441.787-3.441.787s1.042-10.074.722-11.334c-.319-1.259 2.062-3.422 2.062-3.422z" fill="#000" opacity=".1"/><path d="m159.687 99.6887s5.525 1.8893 10.324 0z" fill="#000" opacity=".1"/><path d="m178.549 103.259s2.293 1.152 4.067 0z" fill="#000" opacity=".1"/><path d="m178.549 105.991s3.857.52 4.589-.528z" fill="#000" opacity=".1"/><path d="m177.297 111.863s7.246-.945 9.045-2.204z" fill="#000" opacity=".1"/><path d="m155.188 109.659s4.067 2.308 7.092 2.204z" fill="#000" opacity=".1"/><path d="m188.782 145.114c-1.175.28-2.365.495-3.563.646-1.877.103-22.419-6.926-22.419-6.926l3.96-4.093.219-.076c.626.444 1.139.825 1.505 1.115 1.724 1.366 3.388-.419 4.014-.419s6.048 4.511 6.048 4.511 5.005 1.156 5.841 2.204c.835 1.048 3.754.841 4.273 1.574.157.227.175.784.122 1.464z" fill="#000" opacity=".1"/><path d="m150.239 117.844s-5.062.293-7.981-.944-12.618-4.093-15.433-2.087c-2.816 2.005-9.596 3.778-6.467 11.755 3.129 7.978 4.59 8.185 4.59 8.185.968.731 1.813 1.613 2.502 2.613.939 1.471 9.699 4.827 11.889 4.827s6.047 0 11.469 3.778c5.422 3.777 10.324 4.199 10.324 4.199s6.883 2.834 9.026 3.463c2.143.63 11.935 3.356 14.232 2.519 2.296-.838 3.754-6.089 3.754-6.089s1.042-4.722.519-5.456c-.522-.733-3.441-.525-4.273-1.574-.832-1.048-5.841-2.203-5.841-2.203s-5.409-4.515-6.035-4.515-2.29 1.782-4.014.419c-3.434-2.56-7.042-4.874-10.797-6.926-3.96-2.1-7.464-11.964-7.464-11.964z" fill="#4b4b5b"/><path d="m140.062 120.889c.901-.186 1.832-.159 2.722.078.889.236 1.712.676 2.405 1.285 2.503 2.1 10.925 6.315 10.925 6.315" fill="#000" opacity=".1"/><path d="m202.639 120.756s-11.16 1.701-13.244 4.008z" fill="#000" opacity=".1"/><path d="m215.466 155.519h-.492c-1.764-.063-7.743-.252-8.894 0-1.355.315-19.294 0-19.294 0l3.507-.733s-1.301-4.591-.475-4.971c0 0-4.693-3.111-1.155-5.211 3.539-2.1 7.352-1.215 7.352-1.215l8.882-3.029 1.705-.582s10.012.526 12.721 7.452-3.857 8.289-3.857 8.289z" fill="#e7c7ca"/><path d="m215.466 155.519h-.492c2.913-2.418 9.502-9.778-10.077-15.143l1.705-.582s10.012.525 12.721 7.452c2.709 6.926-3.857 8.273-3.857 8.273z" fill="#000" opacity=".1"/><path d="m197.06 147.359c.303 0 .548-.247.548-.551s-.245-.551-.548-.551c-.302 0-.547.247-.547.551s.245.551.547.551z" fill="#4b4b5b"/><path d="m193.879 148.269c.302 0 .547-.247.547-.551 0-.305-.245-.551-.547-.551-.303 0-.548.246-.548.551 0 .304.245.551.548.551z" fill="#4b4b5b"/><g fill="#000" opacity=".1"><path d="m178.377 31.294c.121-3.4627-.491-6.9119-1.796-10.1183-4.067.6107-8.522-2.5469-12.226-.658-2.741 1.3978-3.601 4.9018-3.755 7.9902-.037.8153-.043 1.6307-.028 2.4461 0-.2896 0-.5824.028-.872.144-3.0884 1.005-6.5924 3.755-7.9902 3.704-1.8889 8.153 1.2593 12.226.658 1.105 2.716 1.713 5.6105 1.796 8.5442z" opacity=".1"/><path d="m146.86 30.7179c.053-.686.04-1.3756-.041-2.0589-.331-2.7704-1.836-5.418-2.108-8.1192-.351 3.2584 1.711 6.3877 2.108 9.6933.034.1593.047.3222.041.4848z" opacity=".1"/><path d="m163.344 58.9699c-.194 2.336-.741 4.8325-2.503 6.3814-1.761 1.5489-5.005 1.464-5.985-.6579-.312-.6297-.359-1.3632-.663-1.9929-.694-1.4418-2.403-2.0022-3.895-2.5657-4.239-1.5962-8.328-4.7223-9.238-9.1959-.082-.4053-.137-.8154-.166-1.2278-.077.9371-.021 1.8805.166 2.8019.91 4.461 5.005 7.5997 9.238 9.1959 1.492.5635 3.201 1.1239 3.895 2.5657.313.6297.366 1.3569.663 1.9929.986 2.1219 4.236 2.2037 5.985.6579 1.749-1.5457 2.293-4.0454 2.503-6.3814.095-1.2295.128-2.4631.097-3.696 0 .7147-.041 1.4199-.097 2.1219z" opacity=".1"/><path d="m187.509 35.9093v1.3631c.175-5.8556 2.309-11.7428 2.099-17.4756-.162 5.3015-1.98 10.7227-2.099 16.1125z" opacity=".1"/><path d="m180.795 59.5963c.077-.3735.101-.7561.072-1.1365-.126-.8147-.41-1.5966-.835-2.3013-1.809-3.463-3.87-7.0079-4.114-10.8519 0 .1637-.022.3149-.025.4912-.125 4.2626 2.161 8.1633 4.139 11.9348.336.5841.592 1.211.763 1.8637z" opacity=".1"/><path d="m189.308 55.0409c-.234 3.8141-1.312 7.5273-3.157 10.8676-1.652 3.0254-4.571 6.0383-7.953 5.4558-.303-.0262-.587-.1562-.807-.3683-.063-.0721-.113-.1553-.147-.2456-.037.2456-.069.4943-.087.7462-.065.3749.019.7605.234 1.0735.22.2121.504.3421.807.3683 3.382.5825 6.301-2.4304 7.953-5.4558 1.845-3.3403 2.923-7.0535 3.157-10.8676.037-.7367.041-1.4702.019-2.2037-.007.2109-.007.4187-.019.6296z" opacity=".1"/></g><path d="m189.818 149.814s7.918 3.344 13.14-4.054" opacity=".1" stroke="#000" stroke-miterlimit="10"/><path d="m191.376 155.657s6.466-4.231 14.704-.138" opacity=".1" stroke="#000" stroke-miterlimit="10"/><path d="m148.089 154.697s2.716-6.164 9.968-1.464" opacity=".1" stroke="#000" stroke-miterlimit="10"/><path d="m139.286 63.538 5.537-5.0372s21.471-1.4167 22.36 5.9281c0 0 7.612-8.7079 23.62-6.7686l6.774 5.4275-18.722 8.2671-18.192 6.35-13.4-6.0351z" fill="#000" opacity=".1"/><path d="m139.286 63.8528 5.537-5.0371s21.471-1.4167 22.36 5.928c0 0 7.612-8.7079 23.62-6.7686l6.774 5.4275-18.722 8.2672-18.192 6.3499-13.4-6.0351z" fill="#d5d6db"/><path d="m136.836 64.4824 2.45 29.4893 25.967 1.3128-1.127-29.3634-.022-.4942z" fill="#000" opacity=".1"/><path d="m136.836 63.8527 2.45 29.4892 25.967 1.3128-1.127-29.3633-.022-.4943z" fill="#393d8e"/><path d="m198.765 63.8527-26.786 4.0423v29.6214l26.176-3.8062z" fill="#000" opacity=".1"/><path d="m198.765 63.223-26.786 4.0423v29.6215l26.176-3.8062z" fill="#393d8e"/><path d="m192.449 70.4514-14.47 1.6182.316 4.9616 14.145-1.5553z" fill="#fff" opacity=".3"/><path d="m140.694 109.133 1.473 3.989s2.19 1.889 4.587.945c2.396-.945 4.486-1.414 5.528-2.333 1.041-.919 2.502-5.538 2.502-5.538s1.461-5.037 2.919-6.2963 5.319-18.609 0-16.9122c-5.318 1.6969-9.385 17.4375-9.385 17.4375s-.939 1.153-2.293 1.26c-1.355.107-4.068-.211-4.59.944-.522 1.156-2.306 4.197-.741 6.504z" fill="#be6f72"/><path d="m171.979 67.8919c-1.372.311-2.796.2947-4.16-.0475s-2.63-1.0008-3.696-1.9233l1.13 29.3602s2.659 2.8963 6.726 2.2352z" fill="#000" opacity=".1"/><path d="m171.979 67.2623c-1.372.311-2.796.2947-4.16-.0475s-2.63-1.0009-3.696-1.9233l1.13 29.3602s2.659 2.8963 6.726 2.2352z" fill="#161359"/><path d="m172.605 63.9535s10.896-3.3528 13.737-2.8806z" fill="#000" opacity=".1"/><path d="m160.416 62.4896s-10.562-2.5186-12.327-1.8039z" fill="#000" opacity=".1"/><path d="m179.475 64.3722s7.286-2.6885 9.92-1.4104z" fill="#000" opacity=".1"/><path d="m175.805 131.816c1.129-.853 2.331-1.604 3.592-2.244 1.877-.91 5.318-3.271 5.318-3.271" fill="#000" opacity=".1"/><path d="m148.089 99.6887s-4.57 3.7623-5.944 4.0923c-1.373.331-2.221 3.265-2.221 3.265" fill="#000" opacity=".1"/><path d="m196.078 108.573-1.458 3.998s-2.19 1.889-4.589.945c-2.4-.945-4.484-1.414-5.529-2.333s-2.502-5.538-2.502-5.538-1.458-5.037-2.919-6.2963-5.319-18.6091 0-16.9122c5.318 1.6969 9.385 17.4379 9.385 17.4379s.939 1.1526 2.293 1.2596c1.355.107 4.068-.211 4.59.944.522 1.156 2.293 4.197.729 6.495z" fill="#be6f72"/><path d="m193.522 101.219s2.988 1.933 2.975 4.244z" fill="#000" opacity=".1"/><path d="m168.171 45.187c7.719 0 13.976-6.2963 13.976-14.0631s-6.257-14.063-13.976-14.063c-7.718 0-13.975 6.2962-13.975 14.063s6.257 14.0631 13.975 14.0631z" fill="#be6f72"/><path d="m159.396 27.3494c1.696-.2676 3.182-1.2593 4.802-1.8291 3.626-1.2814 7.637-.403 11.307.7524 1.408.4439 2.837.9444 4.314.9444s3.044-.6076 3.798-1.8889c.695-1.1774.56-2.7074-.025-3.9447-.585-1.2372-1.564-2.2321-2.553-3.1702-3.254-3.0916-7.289-5.9816-11.754-5.6668-1.796.1291-3.513.7745-5.165 1.4891-2.08.902-4.105 1.928-6.063 3.0727-1.505.8783-4.292 2.0526-5.159 3.6582-1.971 3.6173 3.432 7.0677 6.498 6.5829z" fill="#3e373a"/><path d="m183.617 24.0059c-.754 1.2814-2.321 1.889-3.798 1.889s-2.906-.4817-4.317-.9256c-3.67-1.1554-7.678-2.0369-11.307-.7524-1.617.5698-3.107 1.5741-4.802 1.8259-2.472.3904-6.451-1.7755-6.883-4.5302-.485 3.1828 4.13 5.9091 6.883 5.4747 1.695-.2676 3.185-1.2593 4.802-1.826 3.629-1.2844 7.637-.4029 11.307.7525 1.411.4439 2.837.9444 4.317.9255s3.044-.6044 3.798-1.8889c.391-.6988.545-1.5067.438-2.3013-.049.4784-.198.9409-.438 1.3568z" fill="#000" opacity=".1"/><path d="m297.03 194.623s1.855 2.44-.858 6.126c-2.712 3.687-4.946 6.797-4.045 9.095 0 0 4.092-6.844 7.421-6.941 3.329-.098 1.139-4.165-2.518-8.28z" fill="#2768ff"/><path d="m297.03 194.623c.161.235.289.493.378.765 3.248 3.841 4.981 7.426 1.855 7.515-2.909.085-6.397 5.32-7.233 6.639.027.107.059.212.097.315 0 0 4.092-6.844 7.421-6.942 3.329-.097 1.139-4.177-2.518-8.292z" fill="#000" opacity=".1"/><path d="m300.471 197.733c0 .86-.097 1.556-.213 1.556-.115 0-.216-.696-.216-1.556 0-.859.119-.453.238-.453s.191-.406.191.453z" fill="#ffd037"/><path d="m301.657 198.76c-.748.409-1.402.658-1.458.554s.504-.523 1.251-.945c.748-.422.454-.113.51 0 .056.114.448-.022-.303.391z" fill="#ffd037"/><path d="m287.225 194.623s-1.855 2.44.857 6.126c2.712 3.687 4.946 6.797 4.042 9.095 0 0-4.089-6.844-7.421-6.941-3.332-.098-1.126-4.165 2.522-8.28z" fill="#2768ff"/><path d="m287.225 194.623c-.162.235-.289.493-.379.765-3.247 3.841-4.98 7.426-1.855 7.515 2.906.085 6.398 5.32 7.233 6.639-.026.107-.06.212-.1.315 0 0-4.089-6.844-7.421-6.942-3.332-.097-1.126-4.177 2.522-8.292z" fill="#000" opacity=".1"/><path d="m283.777 197.733c0 .86.094 1.556.213 1.556s.216-.696.216-1.556c0-.859-.122-.453-.238-.453s-.191-.406-.191.453z" fill="#ffd037"/><path d="m282.595 198.76c.747.409 1.401.658 1.457.554.057-.104-.503-.523-1.251-.945s-.454-.113-.51 0c-.056.114-.447-.022.304.391z" fill="#ffd037"/><path d="m292.127 228.52c10.713 0 19.397-1.341 19.397-2.994 0-1.654-8.684-2.994-19.397-2.994-10.712 0-19.397 1.34-19.397 2.994 0 1.653 8.685 2.994 19.397 2.994z" fill="#2768ff" opacity=".1"/><path d="m302.11 206.555-.093.761-.132 1.077-.053.45-.131 1.077-.057.45-.128 1.074-1.486 12.246c-.132 1.093-1.905 1.946-4.048 1.946h-7.712c-2.143 0-3.914-.853-4.049-1.946l-1.486-12.246-.131-1.074-.053-.45-.132-1.077-.056-.45-.128-1.077-.094-.761c-.072-.63.885-1.14 2.099-1.14h15.774c1.211 0 2.171.519 2.096 1.14z" fill="#65617d"/><path d="m302.017 207.316-.129 1.077h-19.522l-.131-1.077z" fill="#9d9cb5"/><path d="m301.832 208.843-.128 1.077h-19.153l-.132-1.077z" fill="#9d9cb5"/><path d="m301.647 210.37-.131 1.077h-18.781l-.128-1.077z" fill="#9d9cb5"/></svg>