<svg fill="none" height="272" viewBox="0 0 320 272" width="320" xmlns="http://www.w3.org/2000/svg" xmlns:xlink="http://www.w3.org/1999/xlink"><linearGradient id="a" gradientUnits="userSpaceOnUse" x1="150.357" x2="150.357" y1="254.778" y2="15.7378"><stop offset="0" stop-color="#808080" stop-opacity=".251"/><stop offset=".54" stop-color="#808080" stop-opacity=".122"/><stop offset="1" stop-color="#808080" stop-opacity=".102"/></linearGradient><path d="m189.784 5.17279c-2.965 2.428-4.29 6.27701-5.447 9.92601-2.593 8.188-5.017 16.431-7.274 24.729-3.289 12.054-6.276 24.373-12.3 35.34s-14.8 20.055-23.473 29.0372l-31.262 32.337c-9.66 10-19.965 21.533-19.781 35.419.159 12.047 8.6 22.734 18.926 28.955s22.4 8.766 34.208 11.213c6 1.243 12.361 2.463 18.113.4 6.908-2.479 11.411-9.121 17.725-12.859 11.328-6.712 25.682-2.936 38.373.583s27.646 6.188 37.938-2.01c14.935-11.9 8.5-35.869 15.167-53.737 6.33-16.958 23.833-26.71 35.32-40.71 25.663-31.2692 14.442-74.7002-20.973-92.2342-11.6-5.72901-23.044-5.43401-35.631-6.33701-15.692-1.128-46.102-11.139-59.629-.052z" fill="#2768ff" opacity=".01"/><g opacity=".5"><path d="m93.081 186.043s-52.495-26.5-30.061-85.7-58.79-79.737-58.79-79.737-15.911 57.643 13.982 96.029 41.424 102.116 74.869 69.408z" fill="#2768ff" opacity=".5"/><path d="m4.22998 20.606s22.14802 38.288 33.32402 88.094 29.376 90.906 55.257 76.406" opacity=".5" stroke="#fff" stroke-miterlimit="10"/></g><g opacity=".5"><path d="m81.803 195.722s-20.992-30.064 6.857-59.044-10.114-63.3489-10.114-63.3489-23.944 29.8389-18.227 60.7719-5.16 71.874 21.484 61.621z" fill="#2768ff" opacity=".5"/><path d="m78.55 73.332c.6248 20.6098-1.3073 41.218-5.752 61.352-7.34 32.591-8.621 61.942 9.11 60.417" opacity=".5" stroke="#fff" stroke-miterlimit="10"/></g><path d="m19.925 243.118c.4749 2.077 1.4838 3.994 2.927 5.561l14.827 18.747c1.192 1.509 2.472 3.078 4.074 3.487 3.346.885 6.038-3.4 8.9-5.91 10.169-8.915 24.064 4.657 35.558-.533 4.6-2.077 8.322-7.01 13.009-8.68 12.409-4.438 22.924 15.17 35.736 16.169 4.207.317 8.335-1.408 12.355-3.123l26.813-11.451c1.787-.899 3.728-1.453 5.72-1.633 3.3-.057 6.371 2.061 9.476 3.586 12.5 6.144 26.375 2.828 39.212-1.826s25.768-10.643 39.038-9.651c3.454.26 8.017.041 8.961-4.48.562-2.688-7.029.13-8.786-1.319s2.425-7.495.375-7.751c-11.926-1.49-24.077-1.531-35.733 2.219-6.038 1.94-11.977 4.9-18.176 5.5-6.463.634-12.892-1.319-19.238-3.094-16.069-4.5-32.412-7.926-48.818-7.228-29.158 1.268-57.878 15.617-86.89 11.458-8.6196-1.271-16.9472-4.053-24.6-8.218-3.915-2.108-3.74 5.358-7.734 7.872-1.3.818-4.7-6.81-5.72-5.342-.5799.806-.9925 1.721-1.2133 2.69-.2209.968-.2456 1.971-.0727 2.95z" fill="#2768ff" opacity=".01"/><path d="m269.985 206.968-46.346-60.553c-3.619-17-9.053-17-9.053-17-36.931-4.958-47.068-11.334-47.068-11.334l-8.262-3.227-.69-.406c-.032-.181-.067-.361-.1-.548s-.064-.434-.089-.653c9.018-5.404 15.53-14.1573 18.113-24.3479.067-.266.127-.539.191-.808 1.772-.8474 3.269-2.1781 4.318-3.839 3.549-5.8.178-13.154.254-19.916.048-4.274 1.525-8.462 1.357-12.732-.312-3.5798-1.27-7.0736-2.825-10.313-.581-1.6586-1.513-3.1724-2.733-4.438-3.454-3.129-9.047-1.788-13.483-3.329-5.739-1.994-8.411-8.208-11.729-13.2-1.271-1.928-3.584-3.963-5.672-2.907-2.45 1.236-1.786 5.469-4.261 6.658-1.5.72-3.333-.187-4.4-1.442s-1.684-2.831-2.739-4.1c-.947-1.0977-2.173-1.9197-3.548-2.3794s-2.849-.54-4.266-.2326c-.562.0908-1.081.3559-1.484.758-.791.919-.3 2.289-.242 3.487.188 4.036-4.766 6.277-8.859 6.705s-8.917.479-11.367 3.728c-1.3 1.721-1.573 3.963-2.447 5.922-2.027 4.543-6.93 7.032-11.239 9.641s-8.745 6.414-8.707 11.372c.038 4.755 4.245 8.607 4.986 13.315.394 2.5-.219 5.073.27 7.555.9 4.553 5.164 7.609 9.1 10.193.267.174.537.349.813.514.07.279.14.555.216.831 1.5136 5.312 4.113 10.2519 7.633 14.5089 3.52 4.256 7.884 7.736 12.818 10.22.064.266.124.536.184.812.187.85.362 1.734.518 2.641l-.121.032v-.089l-45.774 11.645c-.2755-.099-.5695-.136-.861-.108-1.875-.152-7.738 1.864-14.579 29.208l-29.326 51.697s-17.016 16.292-3.982 30.118c2.5108 2.776 5.581 4.988 9.0086 6.491 3.4276 1.504 7.1348 2.264 10.8774 2.231 3.3381.047 6.6569-.513 9.794-1.655 0 0-.235-.361-.6-1l3.877.472c7.626 8.458 20.617 5.488 20.617 5.488s18.478-.209 19.158-9.85l33.21 10.164.133 1.81h17.439l-.029-1.154 36.689-11.026c2.86 5.275 9.851 7.885 9.851 7.885s21.532.9 28.3-3.009c2.845-1.665 5.943-2.855 9.171-3.522l.188-.019-.044.044 41.456-4.438c18.832-16.282-3.615-32.571-3.615-32.571zm-208.668 14.4-.912-.526c1.6297-.621 3.3051-1.115 5.011-1.477l8.065-9.933 1.4 9.8c-4.6273-1.067-9.4883-.302-13.564 2.135zm155.982-.079c-3.005-2.264-6.677-3.463-10.439-3.408l.318-24.114c3.028 1.931 5.57 4.061 6.324 6.116 2.174 6.024 12.673 15.582 12.673 15.582l-5.453 4.47-.848.694c-.229.054-.458.108-.686.168z" fill="url(#a)"/><path d="m52.835 247.919 8.462 1.056 4.935-24.272-9.52-5.631-12.339 13.369z" fill="#efb7b9"/><path d="m52.835 247.919 8.462 1.056 4.935-24.272-9.52-5.631-12.339 13.369z" fill="#000" opacity=".03"/><path d="m166.354 128.67-20.448 18.293s-39.489 8.794-29.616-3.519c5.593-6.975 4.849-17.56 3.152-25.429-.759-3.569-1.813-7.068-3.152-10.462 0 0 50.779-30.59 43.728-7.371-2.091 6.886-2.383 12.2-1.764 16.254 1.481 9.624 8.1 12.234 8.1 12.234z" fill="#efb7b9"/><path d="m160.018 100.182c-2.091 6.886-2.383 12.2-1.764 16.254-5.788 3.574-12.399 5.597-19.195 5.874-6.797.278-13.551-1.199-19.611-4.289-.759-3.569-1.813-7.068-3.152-10.462 0 0 50.774-30.5972 43.722-7.377z" fill="#000" opacity=".1"/><path d="m176.943 82.2368c-.017 9.0948-3.185 17.9032-8.965 24.9242-5.78 7.022-13.815 11.823-22.737 13.587s-18.18.381-26.197-3.914c-8.017-4.294-14.298-11.234-17.774-19.6386-3.4754-8.4044-3.9308-17.7537-1.2885-26.4562 2.6425-8.7024 8.2185-16.2202 15.7805-21.2734s16.641-7.3295 25.693-6.4413c9.051.8881 17.515 4.8857 23.95 11.3123 3.661 3.665 6.564 8.0152 8.544 12.8024 1.98 4.7871 2.997 9.9173 2.994 15.0976z" fill="#efb7b9"/><path d="m110.304 133.245v72.109l69.457-5.627-11.633-73.517-30.674 18.29z" fill="#e1e7ef"/><path d="m148.028 177.567-7.731-21.809h.318c8.109-8.794 4.582-14.07 4.582-14.07h-11.255c-7.166 5.073-2.193 11.645-.505 13.537l-3.375 22.342z" fill="#000" opacity=".1"/><path d="m148.028 176.862-7.731-21.809h.318c8.109-8.794 4.582-14.07 4.582-14.07h-11.255c-7.166 5.072-2.193 11.645-.505 13.537l-3.375 22.341z" fill="#444053"/><path d="m158.35 117.681s-2.224 10.285-17.722 24c0 0 4.766 1.585 5.466 14.247l5.818 7.926s4.582-16.533 12.692-22.161 0-20.4 0-20.4z" fill="#000" opacity=".1"/><path d="m158.35 116.984s-2.224 10.285-17.722 24c0 0 4.766 1.585 5.466 14.247l5.818 7.926s4.582-16.533 12.692-22.161 0-20.4 0-20.4z" fill="#e1e7ef"/><path d="m137.438 141.684s-6.673 5.279-7.035 13.721-3.877 8.443-3.877 8.443-8.815-27.084-11.633-29.547 5.084-12.852 5.084-12.852 4.433 14.608 17.461 20.235z" fill="#000" opacity=".1"/><path d="m137.438 140.984s-6.673 5.275-7.035 13.727-3.877 8.443-3.877 8.443-8.818-27.1-11.649-29.557 5.084-12.853 5.084-12.853 4.449 14.609 17.477 20.24z" fill="#e1e7ef"/><path d="m157.902 117.063 8.815 3.519s9.873 6.341 45.835 11.258c0 0 5.288 0 8.815 16.885l45.123 60.151s21.859 16.169 3.527 32.363l-40.356 4.4s23.27-22.161-11.986-22.864l6.514-5.456s-10.226-9.511-12.339-15.478-19.384-12.662-19.384-12.662l2.116 50.652-31.745 4.92-4.576-94.254c-.22-4.446.036-8.902.763-13.293 1.195-7.152 2.456-18.477-1.122-20.141z" fill="#000" opacity=".1"/><path d="m158.254 117.063 8.815 3.519s9.873 6.341 45.835 11.258c0 0 5.288 0 8.815 16.885l45.125 60.151s21.859 16.169 3.527 32.363l-40.356 4.4s23.27-22.161-11.986-22.864l6.524-5.453s-10.226-9.511-12.339-15.478-19.384-12.662-19.384-12.662l2.116 50.652-31.767 4.917-4.576-94.254c-.22-4.446.036-8.902.763-13.293 1.205-7.152 2.466-18.477-1.112-20.141z" fill="#67647e"/><path d="m120.177 120.579-44.776 11.622s-6.7-4.22-14.808 28.85l-28.558 51.36s-16.572 16.169-3.877 29.9 28.567 7.013 28.567 7.013-14.455-22.509 10.931-28.14l9.533-11.958 43.013 4.924-1.084-61.911 1.2-7.216c1.303-7.799 1.303-15.76 0-23.559z" fill="#000" opacity=".1"/><path d="m119.824 120.579-44.776 11.622s-6.7-4.22-14.808 28.85l-28.558 51.36s-16.58 16.168-3.873 29.877 28.558 7.035 28.558 7.035-14.455-22.509 10.931-28.14l9.533-11.958 43.013 4.924-1.078-61.91 1.195-7.216c1.303-7.799 1.303-15.76 0-23.559z" fill="#67647e"/><path d="m75.753 155.053-4.233 3.164 63.82 16.181v-6.331z" fill="#e4e6ed"/><path d="m199.154 153.998 4.229 3.167-68.046 17.234v-6.331z" fill="#e4e6ed"/><g fill="#2768ff"><path d="m67.643 155.053 59.232 13.72 4.229 85.83-51.828-16.181z"/><path d="m206.206 155.053-63.112 14.42 3.524 86.182 58.529-17.941z"/><path d="m124.759 168.771s10.34 6.341 21.211 0l2.116 87.59h-16.978z"/></g><path d="m124.759 168.771s10.34 6.341 21.211 0l2.116 87.59h-16.978z" fill="#000" opacity=".1"/><path d="m77.164 153.998v2.463l58.173 11.607s-29.615-10.906-58.173-14.07z" fill="#d8d9e5"/><path d="m198.096 152.59v2.463l-62.759 13.015s34.195-12.311 62.759-15.478z" fill="#d8d9e5"/><path d="m217.382 222.612-1.84.495s-11.983-10.462-27.258 5.39 5.084 23.609 5.084 23.609 20.973.9 27.56-2.99c2.836-1.697 5.94-2.896 9.18-3.548 1.98-.387 3.783-1.403 5.141-2.895 1.233-1.346 2.149-2.952 2.68-4.699.532-1.746.665-3.59.39-5.395-.358-2.371-1.405-4.584-3.009-6.366s-3.696-3.054-6.016-3.658c-3.909-1.014-8.013-.994-11.912.057z" fill="#efb7b9"/><path d="m62.003 224.351s14.1-12.662 31.379 8.443-13.4 21.466-13.4 21.466-16.584 3.858-22.917-9.86 4.938-20.049 4.938-20.049z" fill="#efb7b9"/><path d="m218.875 221.753s16.394 4.775 12.879 23.647l9.908-1.078 2.091-9.6-4.229-13.362-8.109-3.17z" fill="#000" opacity=".1"/><path d="m219.227 221.753s16.394 4.775 12.879 23.647l9.908-1.078 2.091-9.6-4.229-13.362-8.109-3.17z" fill="#67647e"/><path d="m176.943 82.237c.003 3.1536-.375 6.296-1.125 9.359-2.478 1.1749-5.252 1.5814-7.963 1.167-4.671-.713-8.8-3.487-12.212-6.743s-6.282-7.044-9.578-10.43c-2.987-3.069-6.673-5.938-10.957-6.062-3.889-.114-7.433 2.054-11.182 3.082-3.928 1.078-11.84-1.864-13.756 1.458-1.125 1.953-.728 6.249-1.392 8.56-.722 2.5249-1.739 4.9562-3.028 7.244-.953 1.671-2.355 3.443-4.277 3.427-.75-.0374-1.4768-.269-2.11-.672-1.4707-5.4256-1.7657-11.1028-.8653-16.6516.9004-5.5489 2.9753-10.8415 6.0863-15.5237s7.186-8.6461 11.952-11.6265 10.114-4.9085 15.686-5.6554c5.571-.7468 11.238-.2953 16.621 1.3246s10.358 4.3706 14.592 8.0683c4.234 3.6976 7.63 8.2568 9.96 13.3727 2.33 5.1158 3.541 10.6702 3.551 16.2916z" fill="#000" opacity=".1"/><path d="m123.923 71.912c3.753-1.027 7.309-3.2 11.182-3.082 4.283.124 7.973 2.993 10.957 6.062 3.292 3.383 6.158 7.171 9.577 10.43s7.541 6.024 12.212 6.743 9.93-1.034 12.355-5.073c3.454-5.764.175-13.065.248-19.78.048-4.245 1.484-8.4 1.322-12.646-.302-3.5504-1.233-7.0187-2.749-10.243-.565-1.6391-1.473-3.139-2.663-4.4-3.365-3.107-8.808-1.775-13.13-3.307-5.586-1.981-8.192-8.154-11.421-13.116-1.246-1.9-3.5-3.934-5.523-2.888-2.386 1.23-1.738 5.434-4.15 6.613-1.462.713-3.248-.187-4.29-1.433s-1.643-2.812-2.666-4.071c-.912-1.0896-2.105-1.9082-3.449-2.3667-1.345-.4584-2.79-.5391-4.177-.2333-.549.0905-1.056.3535-1.446.751-.769.913-.289 2.273-.235 3.465.184 4.007-4.63 6.233-8.627 6.658s-8.685.476-11.068 3.706c-1.271 1.709-1.532 3.934-2.383 5.881-1.977 4.515-6.749 6.975-10.947 9.578s-8.516 6.372-8.478 11.3c.038 4.733 4.131 8.56 4.855 13.23.381 2.479-.213 5.041.264 7.5.874 4.521 5.027 7.555 8.859 10.123.8908.7258 1.972 1.1793 3.114 1.306 1.907.016 3.333-1.756 4.277-3.427 1.289-2.2879 2.306-4.7192 3.028-7.244.664-2.317.267-6.613 1.392-8.56 1.92-3.34 9.832-.402 13.76-1.476z" fill="#585268"/></svg>